<svg width="34" height="25" viewBox="0 0 34 25" fill="none" xmlns="http://www.w3.org/2000/svg">
<g opacity="0.5">
<path fill-rule="evenodd" clip-rule="evenodd" d="M28.2718 0C27.9259 0 27.5795 0.28695 27.6118 0.651683L27.9157 4.09421C27.947 4.4486 28.2025 4.76206 28.5757 4.76206H31.8165C32.1898 4.76206 32.4453 4.4486 32.4766 4.09421L32.7804 0.651683C32.8126 0.286951 32.4662 0 32.1203 0L28.2718 0Z" fill="#010F1E"/>
<path fill-rule="evenodd" clip-rule="evenodd" d="M27.2484 0.90332V2.16473H27.5954V0.90332H27.2484Z" fill="#010F1E"/>
<path fill-rule="evenodd" clip-rule="evenodd" d="M30.1983 5.2749C29.4547 5.2749 28.6074 5.35997 27.9018 5.60657C27.6228 5.70416 27 5.96475 27 6.33239C27 6.69989 27.6228 6.96062 27.9018 7.05807C28.6074 7.30467 29.4547 7.38974 30.1983 7.38974C30.9418 7.38974 31.7891 7.30467 32.4947 7.05807C32.7737 6.96062 33.3965 6.69989 33.3965 6.33239C33.3965 5.96475 32.7737 5.70416 32.4947 5.60657C31.7891 5.35997 30.9418 5.2749 30.1983 5.2749ZM30.1983 5.58749C30.6124 5.58749 32.1577 5.70008 32.1577 6.33239C32.1577 6.9647 30.6124 7.0773 30.1983 7.0773C29.784 7.0773 28.2388 6.9647 28.2388 6.33239C28.2388 5.70008 29.784 5.58749 30.1983 5.58749Z" fill="#010F1E"/>
<path fill-rule="evenodd" clip-rule="evenodd" d="M33.3868 6.77441C33.1538 7.01563 32.7648 7.17483 32.5045 7.26179C31.7894 7.50096 30.951 7.58574 30.2001 7.58574C29.4493 7.58574 28.6109 7.50096 27.8957 7.26179C27.6355 7.17483 27.2465 7.01563 27.0135 6.77441C27.1633 8.31084 28.7204 9.26665 30.2001 9.26665C31.6799 9.26665 33.237 8.31084 33.3868 6.77441Z" fill="#010F1E"/>
<path fill-rule="evenodd" clip-rule="evenodd" d="M28.9977 9.25L28.4079 11.1797C28.2666 11.6423 28.8545 12.0003 29.2596 12.0003H31.1401C31.5451 12.0003 32.1329 11.6423 31.9916 11.1797L31.4084 9.27112C31.0297 9.39187 30.6332 9.45159 30.2354 9.45159C29.8149 9.45159 29.3958 9.38503 28.9977 9.25Z" fill="#010F1E"/>
</g>
<g opacity="0.5">
<path d="M22.3837 23.7568C22.2464 23.8068 22.1073 23.851 21.9661 23.8894C21.9282 23.8997 21.891 23.9117 21.8529 23.9211C21.6798 23.964 21.5046 23.9982 21.3277 24.0234C21.2869 24.0292 21.2459 24.0322 21.205 24.0371C21.122 24.0469 21.0393 24.059 20.9558 24.0649V24.1726C20.9558 24.6286 21.3269 24.9998 21.783 24.9998C22.2392 24.9998 22.6102 24.6286 22.6102 24.1726V23.6729C22.5794 23.6857 22.5473 23.6954 22.5163 23.7077C22.4724 23.725 22.4281 23.7406 22.3837 23.7568Z" fill="#010F1E"/>
<path d="M6.55505 24.0393C6.4414 24.0257 6.3283 24.0093 6.21592 23.9882C6.16124 23.978 6.10687 23.9667 6.05252 23.9547C5.94387 23.9308 5.83614 23.903 5.72894 23.8722C5.67991 23.8581 5.6307 23.8452 5.58201 23.8296C5.55968 23.8225 5.53691 23.8175 5.51465 23.8101V24.1727C5.51465 24.6286 5.88571 24.9999 6.34185 24.9999C6.798 24.9999 7.16906 24.6286 7.16906 24.1727V24.0808C7.01012 24.0804 6.85233 24.0711 6.69534 24.0566C6.64833 24.0522 6.60186 24.0449 6.55505 24.0393Z" fill="#010F1E"/>
<path d="M2.62539 20.0895C3.02445 21.4779 4.01627 22.5966 5.34612 23.1574C5.78571 23.3424 6.24338 23.4591 6.71192 23.5059C6.86809 23.5215 7.02548 23.5294 7.18382 23.5294H7.44483H20.5735C20.601 23.5294 20.6257 23.5294 20.6534 23.5272C21.4018 23.5121 22.122 23.3287 22.7578 22.9948C23.9096 22.3955 24.7745 21.3368 25.1319 20.0891L25.7259 18.0146H2.03137L2.62539 20.0895Z" fill="#010F1E"/>
<path d="M27.8823 16.0513C27.7258 15.8948 27.5182 15.8086 27.2978 15.8086H25.4484H22.5073H19.2207H17.0037H16.7795H13.6837H10.3972H3.40074H1.93015H0.827206C0.371058 15.8086 0 16.1798 0 16.6358C0 16.8562 0.0861673 17.0638 0.242704 17.2203C0.399242 17.3768 0.606761 17.463 0.827206 17.463H1.66554H26.0918H27.2978C27.7539 17.463 28.125 17.0918 28.125 16.6358C28.125 16.4154 28.0388 16.2078 27.8823 16.0513Z" fill="#010F1E"/>
<path d="M17.1521 13.8672C17.1681 13.9132 17.1819 13.9599 17.1949 14.0071C17.2042 14.0407 17.2139 14.074 17.2216 14.1082C17.2337 14.162 17.2426 14.2164 17.2508 14.2713C17.2552 14.3002 17.261 14.3286 17.2643 14.3578C17.2737 14.4425 17.2794 14.528 17.2794 14.614C17.2794 14.7414 17.2658 14.867 17.245 14.9913C17.2387 15.0293 17.2288 15.0664 17.2205 15.104C17.2092 15.1551 17.2019 15.2071 17.1871 15.2574H18.9896C18.9906 15.2534 18.9921 15.2497 18.9931 15.2457C18.9974 15.2283 19.0037 15.2117 19.0085 15.1944C19.0256 15.133 19.0451 15.0726 19.068 15.0137C19.0777 14.9887 19.0883 14.9644 19.099 14.94C19.1217 14.888 19.1466 14.8375 19.1737 14.788C19.1857 14.766 19.1971 14.7439 19.21 14.7224C19.2481 14.6587 19.2893 14.597 19.3345 14.5383C19.3377 14.5341 19.3404 14.5295 19.3436 14.5253C19.3926 14.4628 19.4464 14.4043 19.503 14.3482C19.5197 14.3317 19.5375 14.3165 19.5547 14.3006C19.5973 14.2615 19.6413 14.2241 19.6875 14.1888C19.7083 14.1728 19.7291 14.1572 19.7506 14.1421C19.8011 14.1066 19.8538 14.0738 19.908 14.043C19.9253 14.0332 19.9416 14.0224 19.9592 14.0131C19.9647 14.0102 19.9698 14.0065 19.9754 14.0036C19.7903 13.3438 19.1776 12.8677 18.4743 12.8677C17.8912 12.8677 17.36 13.1912 17.0891 13.7017C17.0984 13.7227 17.1051 13.7451 17.1137 13.7664C17.1273 13.7997 17.1402 13.8331 17.1521 13.8672Z" fill="#010F1E"/>
<path d="M21.7832 11.5807C22.037 11.5807 22.2427 11.375 22.2427 11.1212C22.2427 10.8674 22.037 10.6616 21.7832 10.6616C21.5294 10.6616 21.3236 10.8674 21.3236 11.1212C21.3236 11.375 21.5294 11.5807 21.7832 11.5807Z" fill="#010F1E"/>
<path d="M8.08826 4.96301V6.06595H12.3162V4.96301C12.3162 4.05071 11.5741 3.30859 10.6618 3.30859H9.74267C8.83037 3.30859 8.08826 4.05071 8.08826 4.96301Z" fill="#010F1E"/>
<path d="M10.478 1.47021H9.92651V2.75698H10.478V1.47021Z" fill="#010F1E"/>
<path d="M13.5911 14.2048C13.6011 14.2183 13.611 14.2315 13.6207 14.2453C13.6832 14.3349 13.7385 14.4291 13.7851 14.5282C13.7918 14.5424 13.7971 14.557 13.8035 14.5713C13.8465 14.669 13.8827 14.7698 13.9093 14.874C13.9111 14.8812 13.9138 14.8881 13.9156 14.8953C13.9413 15.0013 13.9556 15.1102 13.963 15.2203C13.9639 15.2329 13.9678 15.2448 13.9684 15.2574H16.6044C16.6073 15.2498 16.6102 15.2427 16.6129 15.2351C16.6895 15.0348 16.7279 14.8265 16.7279 14.614C16.7279 14.3358 16.6626 14.065 16.5391 13.8306C16.2424 13.2346 15.6467 12.8677 14.9816 12.8677C14.2727 12.8677 13.6322 13.3043 13.3671 13.9487C13.3679 13.9495 13.3685 13.9505 13.3693 13.9513C13.4514 14.0285 13.5243 14.1143 13.5911 14.2048Z" fill="#010F1E"/>
<path d="M22.721 15.2034C22.726 15.2216 22.7342 15.2387 22.7387 15.257H25.1047C24.9147 14.7163 24.401 14.3379 23.8052 14.3379C23.3287 14.3379 22.8952 14.5777 22.6448 14.9716C22.66 15.0077 22.6685 15.0461 22.6814 15.083C22.6954 15.123 22.7098 15.1624 22.721 15.2034Z" fill="#010F1E"/>
<path d="M19.8602 14.7741C19.8055 14.8323 19.7562 14.8951 19.7125 14.9619C19.7042 14.9746 19.6949 14.9866 19.687 14.9996C19.642 15.0737 19.6048 15.1528 19.5744 15.235C19.5717 15.2422 19.5697 15.2497 19.5671 15.257H22.1592C22.1387 15.1993 22.1185 15.1415 22.09 15.0868C21.8538 14.624 21.3843 14.3379 20.8639 14.3379C20.7015 14.3379 20.5406 14.367 20.3857 14.4241C20.2977 14.4566 20.2163 14.4997 20.1386 14.5476C20.1228 14.5574 20.1068 14.567 20.0913 14.5774C20.0179 14.6269 19.9492 14.682 19.8874 14.7438C19.8778 14.7535 19.8695 14.7642 19.8602 14.7741Z" fill="#010F1E"/>
<path d="M12.0405 13.9702C11.3112 13.9702 10.7123 14.5396 10.6649 15.257H13.4088C13.4059 15.213 13.4009 15.1697 13.394 15.1267C13.3872 15.0844 13.3829 15.0414 13.3723 15.0004C13.3571 14.9411 13.3339 14.8852 13.3111 14.829C13.296 14.7919 13.2844 14.7534 13.2661 14.7179C13.236 14.6595 13.1972 14.6062 13.1587 14.5527C13.1385 14.5246 13.1225 14.4937 13.1001 14.4671C13.035 14.3901 12.9616 14.3189 12.8787 14.2567C12.6385 14.0679 12.3504 13.9702 12.0405 13.9702Z" fill="#010F1E"/>
<path d="M7.35291 6.61719V7.90395H13.0514V6.61719H12.5919H7.81246H7.35291Z" fill="#010F1E"/>
<path d="M3.12493 3.40073C3.12493 2.03247 4.2381 0.919118 5.60655 0.919118H9.65066H10.4779V0H5.60655C3.73133 0 2.20581 1.52552 2.20581 3.40073V15.2574H3.12493V3.40073Z" fill="#010F1E"/>
</g>
</svg>
