<svg width="20" height="17" viewBox="0 0 20 17" fill="none" xmlns="http://www.w3.org/2000/svg">
<g opacity="0.5">
<path d="M8.86313 3.30425C9.39068 3.38315 9.87023 3.62986 10.2163 4.00038C10.5623 4.37089 10.7522 4.84111 10.7523 5.32714V6.69396H6.24178V5.32714C6.24178 4.61776 6.6387 3.99176 7.24161 3.62409C7.02509 3.44882 6.75745 3.3342 6.47093 3.29403C6.18441 3.25387 5.89122 3.28986 5.62668 3.39768C5.36214 3.50551 5.13754 3.68056 4.97992 3.90176C4.82229 4.12295 4.73838 4.38086 4.73828 4.64441V8.74487H16.7663C16.9657 8.74487 17.1569 8.81687 17.2978 8.94503C17.4388 9.0732 17.518 9.24703 17.518 9.42828C17.518 9.60953 17.4388 9.78336 17.2978 9.91152C17.1569 10.0397 16.9657 10.1117 16.7663 10.1117V10.7951C16.7662 11.6431 16.4771 12.4703 15.9386 13.1628C15.4001 13.8552 14.6387 14.379 13.7593 14.6618V14.9926C13.7593 15.1738 13.6801 15.3477 13.5391 15.4758C13.3981 15.604 13.2069 15.676 13.0075 15.676C12.8082 15.676 12.6169 15.604 12.476 15.4758C12.335 15.3477 12.2558 15.1738 12.2558 14.9926V14.8955H7.74528V14.9926C7.74528 15.1738 7.66608 15.3477 7.5251 15.4758C7.38412 15.604 7.19291 15.676 6.99353 15.676C6.79415 15.676 6.60294 15.604 6.46196 15.4758C6.32098 15.3477 6.24178 15.1738 6.24178 14.9926V14.6618C5.36236 14.379 4.601 13.8552 4.0625 13.1628C3.524 12.4703 3.23482 11.6431 3.23478 10.7951V10.1117C3.03541 10.1117 2.8442 10.0397 2.70321 9.91152C2.56223 9.78336 2.48303 9.60953 2.48303 9.42828C2.48303 9.24703 2.56223 9.0732 2.70321 8.94503C2.8442 8.81687 3.03541 8.74487 3.23478 8.74487V4.64441C3.23475 4.03993 3.45511 3.45248 3.8614 2.97397C4.26769 2.49545 4.83699 2.15285 5.48025 1.99976C6.12351 1.84667 6.80444 1.89173 7.41653 2.12789C8.02862 2.36404 8.53735 2.77797 8.86313 3.30493V3.30425Z" fill="#010F1E"/>
</g>
</svg>
