<svg width="18" height="19" viewBox="0 0 18 19" fill="none" xmlns="http://www.w3.org/2000/svg">
<g opacity="0.5">
<path d="M14.4212 8.75169C14.9458 8.75166 15.4506 8.95177 15.8328 9.3112C16.2149 9.67064 16.4455 10.1623 16.4775 10.6859L16.4813 10.8118V15.6811C16.4812 15.8234 16.4272 15.9605 16.33 16.0645C16.2328 16.1685 16.0998 16.2318 15.9577 16.2415C15.8157 16.2512 15.6753 16.2066 15.5649 16.1168C15.4545 16.0269 15.3822 15.8985 15.3628 15.7575L15.3576 15.6811V13.9956H2.62247V15.6811C2.62246 15.8169 2.57329 15.948 2.48405 16.0504C2.39481 16.1527 2.27154 16.2192 2.13703 16.2377L2.06062 16.2429C1.92485 16.2429 1.79368 16.1938 1.69136 16.1045C1.58903 16.0153 1.52249 15.892 1.50402 15.7575L1.49878 15.6811V10.8118C1.49875 10.2872 1.69886 9.78233 2.0583 9.40021C2.41773 9.01809 2.9094 8.78748 3.43302 8.75543L3.55887 8.75169H14.4212ZM5.05712 3.50781H12.9229C13.4475 3.50779 13.9524 3.7079 14.3345 4.06733C14.7166 4.42676 14.9472 4.91843 14.9793 5.44205L14.983 5.56791V8.00256H12.7357L12.7304 7.91492C12.7107 7.7477 12.6352 7.592 12.5162 7.47294C12.3971 7.35388 12.2414 7.2784 12.0742 7.25868L11.9865 7.25344H10.4883C10.3048 7.25346 10.1277 7.32083 9.99058 7.44275C9.85347 7.56468 9.76587 7.73269 9.7444 7.91492L9.73916 8.00256H8.24091L8.23566 7.91492C8.21594 7.7477 8.14046 7.592 8.0214 7.47294C7.90234 7.35388 7.74665 7.2784 7.57943 7.25868L7.49178 7.25344H5.99353C5.81005 7.25346 5.63295 7.32083 5.49583 7.44275C5.35872 7.56468 5.27112 7.73269 5.24965 7.91492L5.24441 8.00256H2.99703V5.56791C2.997 5.0433 3.19712 4.53845 3.55655 4.15633C3.91598 3.77421 4.40765 3.54361 4.93127 3.51156L5.05712 3.50781Z" fill="#010F1E"/>
</g>
</svg>
