<svg width="20" height="20" viewBox="0 0 20 20" fill="none" xmlns="http://www.w3.org/2000/svg">
<g id="vuesax/bulk/edit">
<g id="edit">
<path id="Vector" opacity="0.4" d="M12.7235 2.95605H6.49395C3.79395 2.95605 2.17395 4.56823 2.17395 7.27605V13.4978C2.17395 16.2134 3.79395 17.8256 6.49395 17.8256H12.7157C15.4235 17.8256 17.0357 16.2134 17.0357 13.5056V7.27605C17.0435 4.56823 15.4235 2.95605 12.7235 2.95605Z" fill="#064997"/>
<path id="Vector_2" d="M17.0591 2.94036C15.6583 1.53167 14.2887 1.50036 12.8487 2.94036L11.9643 3.81689C11.8861 3.89515 11.8626 4.00471 11.8939 4.10645C12.4417 6.02384 13.9756 7.55775 15.893 8.10558C15.9165 8.11341 15.9556 8.11341 15.9791 8.11341C16.0574 8.11341 16.1356 8.0821 16.1904 8.02732L17.0591 7.1508C17.7713 6.43862 18.1235 5.75775 18.1235 5.06123C18.1235 4.35689 17.7713 3.66036 17.0591 2.94036Z" fill="#064997"/>
<path id="Vector_3" d="M14.5861 8.76276C14.3748 8.66102 14.1713 8.55928 13.9835 8.44189C13.827 8.34798 13.6704 8.24624 13.5217 8.13667C13.3965 8.05841 13.2557 7.94102 13.1148 7.82363C13.0991 7.81581 13.0522 7.77667 12.9896 7.71407C12.747 7.51841 12.4887 7.25233 12.2461 6.96276C12.2304 6.94711 12.1835 6.90015 12.1444 6.82972C12.0661 6.74363 11.9487 6.59494 11.847 6.43059C11.7609 6.32102 11.6591 6.1645 11.5652 6.00015C11.4478 5.8045 11.3461 5.60885 11.2522 5.40537C11.1504 5.18624 11.0722 4.98276 11.0017 4.78711L6.79131 8.99754C6.5174 9.27146 6.25131 9.78798 6.19653 10.1715L5.86 12.5036C5.78957 12.9967 5.92261 13.4584 6.22783 13.7636C6.48609 14.0219 6.83827 14.1549 7.22957 14.1549C7.31566 14.1549 7.40174 14.1471 7.48783 14.1393L9.81218 13.8106C10.1957 13.7558 10.7122 13.4975 10.9861 13.2158L15.1965 9.00537C15.0009 8.94276 14.8052 8.85667 14.5861 8.76276Z" fill="#064997"/>
</g>
</g>
</svg>
