<svg width="17" height="18" viewBox="0 0 17 18" fill="none" xmlns="http://www.w3.org/2000/svg">
<path d="M11.8646 3.02297V1.91797C11.8646 1.62755 11.6237 1.38672 11.3333 1.38672C11.0429 1.38672 10.8021 1.62755 10.8021 1.91797V2.98047H6.19791V1.91797C6.19791 1.62755 5.95708 1.38672 5.66666 1.38672C5.37625 1.38672 5.13541 1.62755 5.13541 1.91797V3.02297C3.22291 3.20005 2.295 4.34047 2.15333 6.03339C2.13916 6.2388 2.30916 6.4088 2.5075 6.4088H14.4925C14.6979 6.4088 14.8679 6.23172 14.8467 6.03339C14.705 4.34047 13.7771 3.20005 11.8646 3.02297Z" fill="#010F1E"/>
<path d="M14.1667 7.4707H2.83333C2.44375 7.4707 2.125 7.78945 2.125 8.17904V12.5424C2.125 14.6674 3.1875 16.084 5.66667 16.084H11.3333C13.8125 16.084 14.875 14.6674 14.875 12.5424V8.17904C14.875 7.78945 14.5562 7.4707 14.1667 7.4707ZM6.52375 13.3995C6.48833 13.4278 6.45292 13.4632 6.4175 13.4845C6.375 13.5128 6.3325 13.534 6.29 13.5482C6.2475 13.5695 6.205 13.5836 6.1625 13.5907C6.11292 13.5978 6.07042 13.6049 6.02083 13.6049C5.92875 13.6049 5.83667 13.5836 5.75167 13.5482C5.65958 13.5128 5.58875 13.4632 5.51792 13.3995C5.39042 13.2649 5.3125 13.0807 5.3125 12.8965C5.3125 12.7124 5.39042 12.5282 5.51792 12.3936C5.58875 12.3299 5.65958 12.2803 5.75167 12.2449C5.87917 12.1882 6.02083 12.174 6.1625 12.2024C6.205 12.2095 6.2475 12.2236 6.29 12.2449C6.3325 12.259 6.375 12.2803 6.4175 12.3086C6.45292 12.337 6.48833 12.3653 6.52375 12.3936C6.65125 12.5282 6.72917 12.7124 6.72917 12.8965C6.72917 13.0807 6.65125 13.2649 6.52375 13.3995ZM6.52375 10.9203C6.38917 11.0478 6.205 11.1257 6.02083 11.1257C5.83667 11.1257 5.6525 11.0478 5.51792 10.9203C5.39042 10.7857 5.3125 10.6015 5.3125 10.4174C5.3125 10.2332 5.39042 10.049 5.51792 9.91445C5.71625 9.71612 6.02792 9.65237 6.29 9.7657C6.38208 9.80112 6.46 9.8507 6.52375 9.91445C6.65125 10.049 6.72917 10.2332 6.72917 10.4174C6.72917 10.6015 6.65125 10.7857 6.52375 10.9203ZM9.00292 13.3995C8.86833 13.527 8.68417 13.6049 8.5 13.6049C8.31583 13.6049 8.13167 13.527 7.99708 13.3995C7.86958 13.2649 7.79167 13.0807 7.79167 12.8965C7.79167 12.7124 7.86958 12.5282 7.99708 12.3936C8.25917 12.1315 8.74083 12.1315 9.00292 12.3936C9.13042 12.5282 9.20833 12.7124 9.20833 12.8965C9.20833 13.0807 9.13042 13.2649 9.00292 13.3995ZM9.00292 10.9203C8.9675 10.9486 8.93208 10.977 8.89667 11.0053C8.85417 11.0336 8.81167 11.0549 8.76917 11.069C8.72667 11.0903 8.68417 11.1045 8.64167 11.1115C8.59208 11.1186 8.54958 11.1257 8.5 11.1257C8.31583 11.1257 8.13167 11.0478 7.99708 10.9203C7.86958 10.7857 7.79167 10.6015 7.79167 10.4174C7.79167 10.2332 7.86958 10.049 7.99708 9.91445C8.06083 9.8507 8.13875 9.80112 8.23083 9.7657C8.49292 9.65237 8.80458 9.71612 9.00292 9.91445C9.13042 10.049 9.20833 10.2332 9.20833 10.4174C9.20833 10.6015 9.13042 10.7857 9.00292 10.9203ZM11.4821 13.3995C11.3475 13.527 11.1633 13.6049 10.9792 13.6049C10.795 13.6049 10.6108 13.527 10.4762 13.3995C10.3488 13.2649 10.2708 13.0807 10.2708 12.8965C10.2708 12.7124 10.3488 12.5282 10.4762 12.3936C10.7383 12.1315 11.22 12.1315 11.4821 12.3936C11.6096 12.5282 11.6875 12.7124 11.6875 12.8965C11.6875 13.0807 11.6096 13.2649 11.4821 13.3995ZM11.4821 10.9203C11.4467 10.9486 11.4112 10.977 11.3758 11.0053C11.3333 11.0336 11.2908 11.0549 11.2483 11.069C11.2058 11.0903 11.1633 11.1045 11.1208 11.1115C11.0712 11.1186 11.0217 11.1257 10.9792 11.1257C10.795 11.1257 10.6108 11.0478 10.4762 10.9203C10.3488 10.7857 10.2708 10.6015 10.2708 10.4174C10.2708 10.2332 10.3488 10.049 10.4762 9.91445C10.5471 9.8507 10.6179 9.80112 10.71 9.7657C10.8375 9.70904 10.9792 9.69487 11.1208 9.7232C11.1633 9.73029 11.2058 9.74445 11.2483 9.7657C11.2908 9.77987 11.3333 9.80112 11.3758 9.82945C11.4112 9.85779 11.4467 9.88612 11.4821 9.91445C11.6096 10.049 11.6875 10.2332 11.6875 10.4174C11.6875 10.6015 11.6096 10.7857 11.4821 10.9203Z" fill="#010F1E"/>
</svg>
