<svg width="29" height="25" viewBox="0 0 29 25" fill="none" xmlns="http://www.w3.org/2000/svg">
<g opacity="0.5">
<path d="M19.8238 0.109583C19.7616 0.0398658 19.6722 7.44437e-05 19.5788 7.44437e-05H14.888C14.6979 -0.00420068 14.5358 0.176341 14.5611 0.365104L14.711 1.71539C14.8383 2.86309 15.2721 3.95785 15.965 4.88161C16.0268 4.96415 16.1245 5.01315 16.2281 5.01315H18.2384C18.3416 5.01315 18.4393 4.96448 18.5014 4.88161C19.1943 3.95753 19.6281 2.86276 19.7554 1.71539L19.9053 0.365104C19.9155 0.272038 19.8859 0.179301 19.8238 0.109583Z" fill="#010F1E"/>
<path d="M18.2324 5.34229H16.2343V12.097H18.2324V5.34229Z" fill="#010F1E"/>
<path d="M17.0762 14.5814C17.2038 14.2411 17.2015 13.7517 17.3929 13.5136L18.0673 12.4258H16.228C16.1182 12.4258 16.0156 12.4807 15.9544 12.5721C15.3701 13.4489 15.032 14.3203 14.8344 15.0418C15.4773 14.7649 16.2435 14.6005 17.0762 14.5814Z" fill="#010F1E"/>
<path d="M28.9337 5.32792C28.9038 5.06023 28.7736 4.81951 28.5654 4.64916L26.0694 2.32086C25.8481 2.14427 25.5613 2.06666 25.2808 2.10809C25.0006 2.1492 24.7481 2.30639 24.578 2.55271L17.6632 13.7006C17.5241 13.8621 17.5139 14.3284 17.4244 14.5826C19.1174 14.629 20.5292 15.2853 21.1833 16.238L28.7154 6.08199C28.8867 5.86823 28.9643 5.60054 28.9341 5.32825L28.9337 5.32792Z" fill="#010F1E"/>
<path d="M27.9044 22.4093C27.8475 22.1554 27.6798 21.9364 27.4394 21.8062L21.2369 18.5781C20.663 19.4835 19.4121 20.1353 17.8802 20.2806L24.7014 24.8215C24.8717 24.9421 25.0723 24.9997 25.2729 24.9997C25.5745 24.9997 25.8754 24.8691 26.0711 24.6251L27.6969 23.1969C27.8946 22.9887 27.9636 22.6806 27.9044 22.4093Z" fill="#010F1E"/>
<path d="M12.8898 17.4455C12.8898 17.0258 13.022 16.6312 13.2572 16.2754L0.957291 16.7259C0.394619 16.7378 -0.0378269 17.2833 0.00262233 17.8394C0.00393776 17.8657 0.0085417 17.892 0.0161054 17.9174L0.814896 20.5683C0.841205 20.861 0.979324 21.1303 1.19834 21.3128C1.41013 21.4897 1.67551 21.5677 1.94189 21.5325L14.6916 19.7833C13.5952 19.2673 12.8905 18.4218 12.8905 17.4458L12.8898 17.4455Z" fill="#010F1E"/>
<path d="M17.2334 14.9053C14.9821 14.9053 13.2188 16.0211 13.2188 17.4457C13.3394 20.8105 21.1287 20.8089 21.2481 17.4457C21.2481 16.0214 19.4848 14.9053 17.2334 14.9053ZM17.2334 19.6569C16.0121 19.6569 15.0219 19.162 15.0219 18.5513C15.0975 17.0925 19.37 17.0935 19.4446 18.5513C19.4446 19.162 18.4548 19.6569 17.2334 19.6569Z" fill="#010F1E"/>
</g>
</svg>
