<svg width="220" height="220" viewBox="0 0 220 220" fill="none" xmlns="http://www.w3.org/2000/svg">
<g id="Confirmed-rafiki (1) 1">
<g id="freepik--background-complete--inject-2">
<path id="Vector" d="M220 168.256H0V168.366H220V168.256Z" fill="#EBEBEB"/>
<path id="Vector_2" d="M104.28 148.632H19.3205C18.6549 148.631 18.017 148.366 17.5468 147.895C17.0766 147.424 16.8125 146.785 16.8125 146.12V26.6906C16.8183 26.0288 17.0849 25.3961 17.5545 24.9298C18.0241 24.4635 18.6587 24.2013 19.3205 24.2002H104.28C104.946 24.2002 105.585 24.4649 106.057 24.9361C106.528 25.4072 106.793 26.0463 106.793 26.7126V146.12C106.793 146.786 106.528 147.425 106.057 147.896C105.585 148.368 104.946 148.632 104.28 148.632ZM19.3205 24.2882C18.6841 24.2894 18.0742 24.543 17.6246 24.9934C17.175 25.4438 16.9225 26.0542 16.9225 26.6906V146.12C16.9225 146.756 17.175 147.367 17.6246 147.817C18.0742 148.267 18.6841 148.521 19.3205 148.522H104.28C104.917 148.521 105.527 148.268 105.978 147.817C106.428 147.367 106.681 146.757 106.683 146.12V26.6906C106.681 26.0538 106.428 25.4434 105.978 24.9931C105.527 24.5428 104.917 24.2894 104.28 24.2882H19.3205Z" fill="#EBEBEB"/>
<path id="Vector_3" d="M199.456 148.632H114.492C113.826 148.631 113.188 148.366 112.717 147.895C112.246 147.424 111.981 146.786 111.98 146.12V26.6906C111.987 26.0284 112.255 25.3957 112.725 24.9295C113.195 24.4634 113.83 24.2013 114.492 24.2002H199.456C200.117 24.2025 200.751 24.4652 201.22 24.9314C201.688 25.3975 201.954 26.0296 201.96 26.6906V146.12C201.96 146.785 201.697 147.422 201.227 147.893C200.758 148.364 200.121 148.63 199.456 148.632ZM114.492 24.2882C113.856 24.2894 113.245 24.5428 112.795 24.9931C112.345 25.4434 112.091 26.0538 112.09 26.6906V146.12C112.091 146.757 112.345 147.367 112.795 147.817C113.245 148.268 113.856 148.521 114.492 148.522H199.456C200.093 148.521 200.704 148.268 201.154 147.817C201.604 147.367 201.858 146.757 201.859 146.12V26.6906C201.858 26.0538 201.604 25.4434 201.154 24.9931C200.704 24.5428 200.093 24.2894 199.456 24.2882H114.492Z" fill="#EBEBEB"/>
<path id="Vector_4" d="M197.956 175.335H186.516V175.445H197.956V175.335Z" fill="#EBEBEB"/>
<path id="Vector_5" d="M156.653 176.532H136.84V176.642H156.653V176.532Z" fill="#EBEBEB"/>
<path id="Vector_6" d="M186.076 171.253H159.328V171.363H186.076V171.253Z" fill="#EBEBEB"/>
<path id="Vector_7" d="M31.5435 171.992H23.0823V172.102H31.5435V171.992Z" fill="#EBEBEB"/>
<path id="Vector_8" d="M59.7916 171.992H35.464V172.102H59.7916V171.992Z" fill="#EBEBEB"/>
<path id="Vector_9" d="M107.422 173.848H74.6548V173.958H107.422V173.848Z" fill="#EBEBEB"/>
<path id="Vector_10" d="M166.579 166.003H170.099V100.861H166.579V166.003Z" fill="#F0F0F0"/>
<path id="Vector_11" d="M149.688 168.247H169.176V165.998H149.688V168.247Z" fill="#F0F0F0"/>
<path id="Vector_12" d="M166.584 100.857H148.755V165.999H166.584V100.857Z" fill="#F5F5F5"/>
<path id="Vector_13" d="M164.683 134.781H150.656V146.414H164.683V134.781Z" fill="#F0F0F0"/>
<path id="Vector_14" d="M164.683 150.005H150.656V161.638H164.683V150.005Z" fill="#F0F0F0"/>
<path id="Vector_15" d="M155.8 141.394H159.535C159.822 141.394 160.055 141.162 160.055 140.875V140.316C160.055 140.029 159.822 139.797 159.535 139.797H155.8C155.513 139.797 155.281 140.029 155.281 140.316V140.875C155.281 141.162 155.513 141.394 155.8 141.394Z" fill="#F5F5F5"/>
<path id="Vector_16" d="M155.8 156.618H159.535C159.822 156.618 160.055 156.385 160.055 156.098V155.54C160.055 155.253 159.822 155.02 159.535 155.02H155.8C155.513 155.02 155.281 155.253 155.281 155.54V156.098C155.281 156.385 155.513 156.618 155.8 156.618Z" fill="#F5F5F5"/>
<path id="Vector_17" d="M164.683 104.452H150.656V116.085H164.683V104.452Z" fill="#F0F0F0"/>
<path id="Vector_18" d="M164.683 119.552H150.656V131.186H164.683V119.552Z" fill="#F0F0F0"/>
<path id="Vector_19" d="M155.8 111.065H159.535C159.822 111.065 160.055 110.832 160.055 110.546V109.987C160.055 109.7 159.822 109.468 159.535 109.468H155.8C155.513 109.468 155.281 109.7 155.281 109.987V110.546C155.281 110.832 155.513 111.065 155.8 111.065Z" fill="#F5F5F5"/>
<path id="Vector_20" d="M155.8 126.17H159.535C159.822 126.17 160.055 125.937 160.055 125.65V125.092C160.055 124.805 159.822 124.572 159.535 124.572H155.8C155.513 124.572 155.281 124.805 155.281 125.092V125.65C155.281 125.937 155.513 126.17 155.8 126.17Z" fill="#F5F5F5"/>
<path id="Vector_21" d="M186.094 166.003H196.654V100.861H186.094V166.003Z" fill="#F0F0F0"/>
<path id="Vector_22" d="M169.189 168.247H195.567V165.998H169.189V168.247Z" fill="#F0F0F0"/>
<path id="Vector_23" d="M186.093 100.857H168.265V165.999H186.093V100.857Z" fill="#F5F5F5"/>
<path id="Vector_24" d="M184.193 134.781H170.166V146.414H184.193V134.781Z" fill="#F0F0F0"/>
<path id="Vector_25" d="M184.193 150.005H170.166V161.638H184.193V150.005Z" fill="#F0F0F0"/>
<path id="Vector_26" d="M175.309 141.394H179.045C179.332 141.394 179.564 141.162 179.564 140.875V140.316C179.564 140.029 179.332 139.797 179.045 139.797H175.309C175.023 139.797 174.79 140.029 174.79 140.316V140.875C174.79 141.162 175.023 141.394 175.309 141.394Z" fill="#F5F5F5"/>
<path id="Vector_27" d="M175.309 156.618H179.045C179.332 156.618 179.564 156.385 179.564 156.098V155.54C179.564 155.253 179.332 155.02 179.045 155.02H175.309C175.023 155.02 174.79 155.253 174.79 155.54V156.098C174.79 156.385 175.023 156.618 175.309 156.618Z" fill="#F5F5F5"/>
<path id="Vector_28" d="M184.193 104.452H170.166V116.085H184.193V104.452Z" fill="#F0F0F0"/>
<path id="Vector_29" d="M184.193 119.552H170.166V131.186H184.193V119.552Z" fill="#F0F0F0"/>
<path id="Vector_30" d="M175.309 111.065H179.045C179.332 111.065 179.564 110.832 179.564 110.546V109.987C179.564 109.7 179.332 109.468 179.045 109.468H175.309C175.023 109.468 174.79 109.7 174.79 109.987V110.546C174.79 110.832 175.023 111.065 175.309 111.065Z" fill="#F5F5F5"/>
<path id="Vector_31" d="M175.309 126.17H179.045C179.332 126.17 179.564 125.937 179.564 125.65V125.092C179.564 124.805 179.332 124.572 179.045 124.572H175.309C175.023 124.572 174.79 124.805 174.79 125.092V125.65C174.79 125.937 175.023 126.17 175.309 126.17Z" fill="#F5F5F5"/>
<path id="Vector_32" d="M128.757 87.2607L188.03 87.2607V35.2263L128.757 35.2263V87.2607Z" fill="#E6E6E6"/>
<path id="Vector_33" d="M122.404 33.2021H191.866C192.023 33.2021 192.173 33.2643 192.283 33.3748C192.394 33.4854 192.456 33.6354 192.456 33.7918C192.455 33.9474 192.392 34.0962 192.282 34.2058C192.171 34.3154 192.022 34.377 191.866 34.3769H122.404C122.249 34.3758 122.101 34.3138 121.991 34.2043C121.882 34.0948 121.82 33.9466 121.818 33.7918C121.818 33.6361 121.88 33.4868 121.989 33.3764C122.099 33.2659 122.248 33.2033 122.404 33.2021Z" fill="#E6E6E6"/>
<path id="Vector_34" d="M126.245 87.2607L186.859 87.2607V35.2263L126.245 35.2263V87.2607Z" fill="#F0F0F0"/>
<path id="Vector_35" d="M128.757 87.2607H188.03V88.9283H127.024L128.757 87.2607Z" fill="#E6E6E6"/>
<path id="Vector_36" d="M122.051 87.2607H182.666L180.932 88.9283H120.318L122.051 87.2607Z" fill="#F0F0F0"/>
<path id="Vector_37" d="M183.335 83.7407V38.7463H129.765V83.7407H183.335Z" fill="#FAFAFA"/>
<path id="Vector_38" d="M171.173 83.7407L150.506 38.7463H140.751L161.418 83.7407H171.173Z" fill="white"/>
<path id="Vector_39" d="M159.324 83.7407L138.657 38.7463H134.851L155.518 83.7407H159.324Z" fill="white"/>
<path id="Vector_40" d="M130.209 83.7407V38.7463H129.76V83.7407H130.209Z" fill="#E6E6E6"/>
<g id="Group" opacity="0.4">
<path id="Vector_41" d="M183.291 75.0859H189.349V32.1463H183.291V75.0859Z" fill="#F0F0F0"/>
<path id="Vector_42" d="M180.932 75.0859H185.654V32.1463H180.932V75.0859Z" fill="#E6E6E6"/>
<path id="Vector_43" d="M177.236 75.0859H183.295V32.1463H177.236V75.0859Z" fill="#F0F0F0"/>
<path id="Vector_44" d="M174.873 75.0859H179.595V32.1463H174.873V75.0859Z" fill="#E6E6E6"/>
<path id="Vector_45" d="M171.173 75.0859H177.232V32.1463H171.173V75.0859Z" fill="#F0F0F0"/>
</g>
<g id="Group_2" opacity="0.4">
<path id="Vector_46" d="M132.018 75.0859H135.511V32.1463H132.018V75.0859Z" fill="#F0F0F0"/>
<path id="Vector_47" d="M130.658 75.0859H133.377V32.1463H130.658V75.0859Z" fill="#E6E6E6"/>
<path id="Vector_48" d="M128.524 75.0859H132.018V32.1463H128.524V75.0859Z" fill="#F0F0F0"/>
<path id="Vector_49" d="M127.169 75.0859H129.888V32.1463H127.169V75.0859Z" fill="#E6E6E6"/>
<path id="Vector_50" d="M125.03 75.0859H128.524V32.1463H125.03V75.0859Z" fill="#F0F0F0"/>
</g>
<path id="Vector_51" d="M72.2566 66.7481H80.643L79.653 45.4785H72.2566V66.7481Z" fill="#F5F5F5"/>
<path id="Vector_52" d="M85.382 67.8967L87.1904 77.3435H85.382L74.2896 67.8967H85.382Z" fill="#F5F5F5"/>
<path id="Vector_53" d="M87.1904 67.8967V77.3435L76.098 67.8967H87.1904Z" fill="#E6E6E6"/>
<path id="Vector_54" d="M41.8791 67.8967L43.6875 77.3435H41.8791L30.7867 67.8967H41.8791Z" fill="#F5F5F5"/>
<path id="Vector_55" d="M43.6876 67.8967V77.3435L32.5952 67.8967H43.6876Z" fill="#E6E6E6"/>
<path id="Vector_56" d="M95.3348 66.7788H83.27V68.1428H95.3348V66.7788Z" fill="#E6E6E6"/>
<path id="Vector_57" d="M23.2892 68.1431L83.27 68.1431V66.7791L23.2892 66.7791V68.1431Z" fill="#F5F5F5"/>
<path id="Vector_58" d="M59.9324 66.7479H77.9372L80.1636 40.9727H62.1588L59.9324 66.7479Z" fill="#E6E6E6"/>
<path id="Vector_59" d="M58.9995 66.7479H77.0043L79.2307 40.9727H61.2259L58.9995 66.7479Z" fill="#F0F0F0"/>
<path id="Vector_60" d="M75.4952 63.8926L77.5324 43.8242H62.7396L60.7024 63.8926H75.4952Z" fill="white"/>
<path id="Vector_61" d="M51.8717 66.7479H57.6489L56.9669 52.1003H51.8717V66.7479Z" fill="#E0E0E0"/>
<path id="Vector_62" d="M43.3884 66.7481H55.7832L57.3188 48.9985H44.9196L43.3884 66.7481Z" fill="#F0F0F0"/>
<path id="Vector_63" d="M42.7458 66.7481H55.1451L56.6762 48.9985H44.277L42.7458 66.7481Z" fill="#F5F5F5"/>
<path id="Vector_64" d="M54.1024 64.7808L55.5016 50.9648H45.32L43.9164 64.7808H54.1024Z" fill="#E0E0E0"/>
<path id="Vector_65" d="M115.438 104.034C115.48 104.526 115.374 105.019 115.134 105.451C114.895 105.882 114.533 106.233 114.094 106.459C113.655 106.685 113.159 106.776 112.669 106.72C112.178 106.664 111.716 106.463 111.339 106.144C110.962 105.825 110.689 105.401 110.553 104.927C110.418 104.452 110.426 103.948 110.577 103.478C110.728 103.008 111.015 102.593 111.402 102.286C111.789 101.98 112.258 101.795 112.75 101.755C113.076 101.728 113.405 101.765 113.716 101.865C114.028 101.965 114.317 102.125 114.567 102.337C114.816 102.549 115.022 102.807 115.172 103.099C115.321 103.39 115.412 103.708 115.438 104.034Z" fill="#E0E0E0"/>
<path id="Vector_66" d="M120.071 105.336C120.112 105.828 120.007 106.321 119.767 106.753C119.528 107.184 119.166 107.535 118.727 107.761C118.288 107.987 117.792 108.078 117.302 108.022C116.811 107.966 116.348 107.765 115.972 107.446C115.595 107.127 115.322 106.703 115.186 106.228C115.051 105.754 115.059 105.25 115.21 104.78C115.361 104.31 115.648 103.895 116.035 103.588C116.422 103.282 116.891 103.097 117.383 103.057C118.042 103.003 118.695 103.213 119.199 103.64C119.703 104.067 120.016 104.677 120.071 105.336Z" fill="#E0E0E0"/>
<path id="Vector_67" d="M123.42 103.84C123.46 104.332 123.354 104.825 123.114 105.256C122.874 105.687 122.511 106.037 122.072 106.263C121.633 106.488 121.137 106.578 120.647 106.521C120.157 106.465 119.695 106.264 119.318 105.944C118.942 105.625 118.669 105.201 118.534 104.727C118.399 104.252 118.408 103.748 118.559 103.278C118.71 102.809 118.997 102.394 119.384 102.088C119.771 101.781 120.24 101.596 120.732 101.556C121.391 101.504 122.044 101.715 122.547 102.143C123.051 102.571 123.365 103.181 123.42 103.84Z" fill="#E0E0E0"/>
<path id="Vector_68" d="M126.953 104.773C126.992 105.263 126.885 105.755 126.645 106.184C126.406 106.614 126.044 106.963 125.606 107.188C125.167 107.412 124.673 107.501 124.184 107.445C123.695 107.388 123.234 107.188 122.858 106.869C122.483 106.55 122.211 106.128 122.076 105.654C121.941 105.181 121.949 104.678 122.099 104.21C122.25 103.741 122.536 103.327 122.921 103.021C123.307 102.715 123.774 102.53 124.265 102.489C124.591 102.462 124.92 102.5 125.232 102.6C125.544 102.7 125.833 102.861 126.083 103.073C126.333 103.285 126.538 103.544 126.687 103.836C126.837 104.128 126.927 104.446 126.953 104.773Z" fill="#E0E0E0"/>
<path id="Vector_69" d="M130.126 105.16C130.126 105.16 129.835 112.086 118.712 112.086C107.589 112.086 107.272 105.16 107.272 105.16H130.126Z" fill="#F0F0F0"/>
<path id="Vector_70" d="M26.347 168.256H30.3906L30.3906 112.099H26.347L26.347 168.256Z" fill="#E6E6E6"/>
<path id="Vector_71" d="M25.2693 168.256H27.6497L27.6497 112.099H25.2693L25.2693 168.256Z" fill="#F0F0F0"/>
<path id="Vector_72" d="M81.9326 112.099H24.5302V116.309H81.9326V112.099Z" fill="#F0F0F0"/>
<path id="Vector_73" d="M136.294 168.256H140.338V112.099H136.294V168.256Z" fill="#E6E6E6"/>
<path id="Vector_74" d="M135.538 168.256H137.918V112.099H135.538V168.256Z" fill="#F0F0F0"/>
<path id="Vector_75" d="M141.059 112.099H83.6571V116.309H141.059V112.099Z" fill="#E6E6E6"/>
<path id="Vector_76" d="M82.2712 168.256H86.3148V112.099H82.2712V168.256Z" fill="#E6E6E6"/>
<path id="Vector_77" d="M81.1931 168.256H83.5735V112.099H81.1931V168.256Z" fill="#F0F0F0"/>
<path id="Vector_78" d="M95.5414 93.4209H65.573L60.2314 111.118H90.2042L95.5414 93.4209Z" fill="#E6E6E6"/>
<path id="Vector_79" d="M90.2045 111.118L90.0857 112.099H60.1129L60.2317 111.118H90.2045Z" fill="#E6E6E6"/>
<path id="Vector_80" d="M94.622 93.4209H64.6492L59.312 111.118H89.2804L94.622 93.4209Z" fill="#F0F0F0"/>
<path id="Vector_81" d="M88.6951 110.312L93.5439 94.2305H65.2387L60.3855 110.312H88.6951Z" fill="white"/>
<path id="Vector_82" d="M81.4748 111.118L81.3516 112.099H48.3472L48.466 111.118H81.4748Z" fill="#F0F0F0"/>
</g>
<g id="freepik--Shadow--inject-2">
<path id="freepik--path--inject-2" d="M110 188.126C157.116 188.126 195.311 185.896 195.311 183.145C195.311 180.395 157.116 178.165 110 178.165C62.8835 178.165 24.6882 180.395 24.6882 183.145C24.6882 185.896 62.8835 188.126 110 188.126Z" fill="#F5F5F5"/>
</g>
<g id="freepik--Smartphone--inject-2">
<path id="Vector_83" d="M166.122 48.026H115.482C113.745 48.0546 112.082 48.7295 110.816 49.919C109.55 51.1084 108.772 52.7271 108.636 54.4588L100.76 175.705C100.696 176.531 100.804 177.361 101.078 178.142C101.352 178.923 101.786 179.639 102.352 180.244C102.917 180.849 103.603 181.329 104.364 181.654C105.126 181.98 105.947 182.143 106.775 182.134H157.432C159.168 182.106 160.832 181.432 162.098 180.243C163.364 179.055 164.142 177.436 164.278 175.705L169.928 88.5588C170.168 88.4751 170.379 88.3238 170.535 88.1232C170.691 87.9226 170.786 87.6812 170.808 87.428L171.82 71.8344C171.838 71.5921 171.776 71.3507 171.644 71.1467C171.512 70.9427 171.318 70.7871 171.089 70.7036L172.141 54.4588C172.205 53.6326 172.097 52.8022 171.822 52.0202C171.548 51.2383 171.114 50.522 170.548 49.9169C169.982 49.3119 169.296 48.8313 168.534 48.5057C167.772 48.1802 166.95 48.0168 166.122 48.026Z" fill="#064997"/>
<path id="Vector_84" d="M104.535 79.4197H105.53C105.837 79.4142 106.132 79.2945 106.356 79.0839C106.581 78.8733 106.719 78.5868 106.744 78.2801L107.184 71.7681C107.195 71.6216 107.175 71.4744 107.126 71.3358C107.078 71.1973 107 71.0704 106.9 70.9633C106.799 70.8561 106.678 70.771 106.542 70.7134C106.407 70.6558 106.262 70.6269 106.115 70.6285H105.125C104.817 70.633 104.522 70.7524 104.297 70.9632C104.072 71.1739 103.934 71.461 103.91 71.7681L103.47 78.2801C103.459 78.4262 103.479 78.573 103.528 78.7113C103.576 78.8495 103.653 78.9762 103.753 79.0833C103.853 79.1903 103.974 79.2755 104.109 79.3334C104.243 79.3913 104.389 79.4207 104.535 79.4197Z" fill="#064997"/>
<path id="Vector_85" d="M103.783 91.0449H104.773C105.081 91.0394 105.377 90.9193 105.602 90.7078C105.828 90.4964 105.966 90.2088 105.991 89.9009L106.431 83.3933C106.442 83.2468 106.423 83.0996 106.374 82.9611C106.325 82.8225 106.248 82.6957 106.147 82.5885C106.047 82.4814 105.925 82.3963 105.79 82.3386C105.655 82.281 105.509 82.2521 105.362 82.2537H104.372C104.064 82.2582 103.768 82.3774 103.543 82.5881C103.317 82.7988 103.179 83.0859 103.153 83.3933L102.713 89.9009C102.701 90.0479 102.72 90.1959 102.768 90.3353C102.816 90.4746 102.893 90.6023 102.994 90.7101C103.095 90.8179 103.217 90.9034 103.353 90.961C103.489 91.0187 103.635 91.0473 103.783 91.0449Z" fill="#064997"/>
<path id="Vector_86" d="M154.739 182.134H104.1C103.271 182.143 102.451 181.98 101.689 181.654C100.928 181.329 100.242 180.849 99.6765 180.244C99.1107 179.639 98.677 178.923 98.403 178.142C98.1289 177.361 98.0205 176.531 98.0847 175.705L105.943 54.4588C106.081 52.7266 106.859 51.108 108.126 49.9186C109.392 48.7292 111.057 48.0544 112.794 48.026H163.429C164.257 48.0174 165.078 48.1812 165.84 48.507C166.601 48.8328 167.287 49.3135 167.852 49.9185C168.418 50.5235 168.852 51.2396 169.126 52.0212C169.4 52.8029 169.508 53.633 169.444 54.4588L161.586 175.705C161.449 177.436 160.672 179.055 159.405 180.243C158.139 181.432 156.476 182.106 154.739 182.134Z" fill="#263238"/>
<path id="Vector_87" opacity="0.2" d="M132.861 176.978C134.635 175.261 134.769 172.521 133.16 170.859C131.551 169.197 128.808 169.242 127.034 170.959C125.261 172.676 125.127 175.416 126.736 177.078C128.345 178.74 131.087 178.695 132.861 176.978Z" fill="white"/>
<path id="Vector_88" d="M159.315 166.395H101.75C101.554 166.395 101.36 166.354 101.18 166.276C101 166.198 100.838 166.084 100.704 165.941C100.57 165.798 100.467 165.629 100.401 165.444C100.335 165.26 100.307 165.064 100.32 164.868L107.056 60.8874C107.086 60.5283 107.249 60.1934 107.514 59.9489C107.779 59.7045 108.126 59.5684 108.486 59.5674H166.056C166.252 59.5676 166.446 59.6079 166.626 59.686C166.805 59.7641 166.967 59.8782 167.101 60.0212C167.235 60.1643 167.339 60.3333 167.405 60.5179C167.471 60.7024 167.498 60.8986 167.486 61.0942L160.745 165.053C160.722 165.416 160.561 165.757 160.295 166.007C160.03 166.256 159.679 166.395 159.315 166.395Z" fill="white"/>
<path id="Vector_89" opacity="0.2" d="M143.253 125.411C149.693 119.178 150.177 109.233 144.336 103.199C138.495 97.165 128.539 97.3266 122.1 103.56C115.661 109.793 115.176 119.738 121.018 125.772C126.859 131.806 136.814 131.645 143.253 125.411Z" fill="#064997"/>
<path id="Vector_90" opacity="0.2" d="M131.12 138.714C117.757 138.714 107.589 127.842 108.456 114.479C109.322 101.116 120.894 90.2437 134.262 90.2437C147.629 90.2437 157.793 101.116 156.926 114.479C156.059 127.842 144.47 138.714 131.12 138.714ZM134.2 90.6837C121.079 90.6837 109.714 101.358 108.865 114.479C108.016 127.6 117.995 138.274 131.116 138.274C144.236 138.274 155.602 127.6 156.455 114.479C157.309 101.358 147.338 90.6837 134.2 90.6837Z" fill="#064997"/>
<path id="Vector_91" d="M128.92 122.095L127.6 119.548C124.74 113.999 118.153 109.04 115.852 107.597L118.025 104.346C120.749 106.053 126.192 110.281 129.606 115.306C135.92 107.826 144.843 100.122 156.789 91.8101L158.827 94.8901C146.067 103.769 136.884 111.887 130.777 119.71L128.92 122.095Z" fill="#064997"/>
<path id="Vector_92" opacity="0.2" d="M128.296 54.9474C129.013 54.2527 129.066 53.1433 128.414 52.4693C127.761 51.7954 126.651 51.8122 125.933 52.5068C125.216 53.2015 125.163 54.311 125.815 54.9849C126.468 55.6589 127.578 55.6421 128.296 54.9474Z" fill="white"/>
<path id="Vector_93" opacity="0.2" d="M133.281 51.9728H147.84C148.066 51.9701 148.291 52.0148 148.499 52.104C148.707 52.1932 148.894 52.3248 149.048 52.4906C149.202 52.6563 149.32 52.8524 149.394 53.0663C149.468 53.2802 149.496 53.5073 149.477 53.7328C149.441 54.2057 149.23 54.6482 148.885 54.9737C148.54 55.2992 148.086 55.4843 147.611 55.4928H133.056C132.83 55.4947 132.606 55.4495 132.398 55.3602C132.19 55.2708 132.003 55.1392 131.848 54.9737C131.694 54.8082 131.576 54.6124 131.501 54.3988C131.427 54.1852 131.397 53.9584 131.415 53.7328C131.451 53.2598 131.662 52.8173 132.007 52.4918C132.352 52.1663 132.806 51.9813 133.281 51.9728Z" fill="white"/>
</g>
<g id="freepik--Character--inject-2">
<path id="Vector_94" d="M79.0855 84.4797C78.3419 85.2409 77.5455 86.0813 76.8107 86.9173C76.0759 87.7533 75.3411 88.6113 74.6503 89.4913C73.9595 90.3713 73.3303 91.2513 72.6791 92.1797L72.2391 92.8705L71.7991 93.5701C71.6539 93.8033 71.5219 94.0409 71.3943 94.2829L71.0423 94.9297C70.8988 95.2996 70.817 95.6905 70.8003 96.0869C70.7651 96.5967 70.7651 97.1083 70.8003 97.6181C70.8866 98.718 71.0334 99.8124 71.2403 100.896C71.4339 102.005 71.6803 103.118 71.9399 104.227C72.1995 105.336 72.4855 106.458 72.7759 107.549L71.1479 108.161C70.1475 106.008 69.3092 103.785 68.6399 101.508C68.3 100.334 68.0398 99.1391 67.8611 97.9305C67.7721 97.286 67.7265 96.6363 67.7247 95.9857C67.7144 95.2192 67.8441 94.4572 68.1075 93.7373C68.2087 93.4909 68.2615 93.3941 68.3319 93.2445L68.5343 92.8265C68.6663 92.5493 68.8027 92.2721 68.9743 92.0037L69.4143 91.1941L69.8807 90.4065C70.5022 89.369 71.1793 88.3658 71.9091 87.4013C72.6307 86.4377 73.3787 85.5005 74.1663 84.5941C74.9539 83.6877 75.7503 82.8341 76.6655 81.9541L79.0855 84.4797Z" fill="#B55B52"/>
<path id="Vector_95" d="M79.2748 79.1999C76.89 79.3055 74.624 83.2655 74.624 83.2655L77.7744 89.6939C77.7744 89.6939 82.0424 86.1387 82.0952 82.6539C82.1304 80.3703 81.62 79.0899 79.2748 79.1999Z" fill="#064997"/>
<path id="Vector_96" opacity="0.7" d="M79.2748 79.1999C76.89 79.3055 74.624 83.2655 74.624 83.2655L77.7744 89.6939C77.7744 89.6939 82.0424 86.1387 82.0952 82.6539C82.1304 80.3703 81.62 79.0899 79.2748 79.1999Z" fill="white"/>
<path id="Vector_97" opacity="0.2" d="M79.8425 83.8201C79.1473 84.8717 78.8129 87.5997 78.7073 88.8141C79.7571 87.7932 80.6471 86.6199 81.3473 85.3337C80.8765 84.1589 80.3001 83.1293 79.8425 83.8201Z" fill="black"/>
<path id="Vector_98" d="M72.3051 106.881L75.2047 107.761L73.2731 109.714C73.2731 109.714 71.1831 109.068 70.8927 107.646L72.3051 106.881Z" fill="#B55B52"/>
<path id="Vector_99" d="M76.9604 109.973L76.472 111.843L73.2732 109.696L75.2048 107.743L76.9604 109.973Z" fill="#B55B52"/>
<path id="Vector_100" d="M96.0387 71.5657C95.9463 71.8253 96.0123 72.0893 96.1839 72.1509C96.3555 72.2125 96.5667 72.0585 96.6547 71.7989C96.7427 71.5393 96.6811 71.2709 96.5095 71.2093C96.3379 71.1477 96.1311 71.3017 96.0387 71.5657Z" fill="#263238"/>
<path id="Vector_101" d="M96.4303 71.1965L97.1211 71.2537C97.1211 71.2537 96.6283 71.6189 96.4303 71.1965Z" fill="#263238"/>
<path id="Vector_102" d="M96.171 71.9001C96.197 72.5847 96.3154 73.2625 96.523 73.9153C96.355 73.9593 96.1796 73.9663 96.0087 73.9359C95.8377 73.9055 95.6755 73.8385 95.533 73.7393L96.171 71.9001Z" fill="#A02724"/>
<path id="Vector_103" d="M96.8923 70.5496C96.861 70.5452 96.8317 70.5316 96.8081 70.5104C96.7846 70.4892 96.768 70.4615 96.7603 70.4308C96.7121 70.2319 96.6193 70.0465 96.489 69.8888C96.3586 69.731 96.1942 69.6049 96.0079 69.52C95.9679 69.5051 95.9353 69.4751 95.9172 69.4364C95.8991 69.3977 95.8969 69.3534 95.9111 69.3132C95.918 69.293 95.9289 69.2744 95.9431 69.2585C95.9573 69.2426 95.9746 69.2298 95.9939 69.2207C96.0133 69.2117 96.0342 69.2067 96.0555 69.2059C96.0768 69.2052 96.098 69.2087 96.1179 69.2164C96.3574 69.3204 96.5691 69.4794 96.7357 69.6804C96.9024 69.8815 97.0193 70.1189 97.0771 70.3736C97.0824 70.3944 97.0835 70.416 97.0804 70.4372C97.0773 70.4585 97.07 70.4789 97.0589 70.4973C97.0479 70.5157 97.0333 70.5317 97.016 70.5445C96.9988 70.5572 96.9792 70.5664 96.9583 70.5716L96.8923 70.5496Z" fill="#263238"/>
<path id="Vector_104" d="M87.0012 72.6702C87.0628 74.7514 86.8516 78.4958 85.2412 79.5562C85.2412 79.5562 85.4568 81.6946 89.2012 82.4206C93.3152 83.217 91.5024 80.7706 91.5024 80.7706C89.3464 79.8026 89.6764 78.157 90.3232 76.6786L87.0012 72.6702Z" fill="#B55B52"/>
<path id="Vector_105" d="M99.2288 86.9131C99.5984 87.9207 100.021 89.0119 100.47 90.0459C100.918 91.0799 101.35 92.1271 101.873 93.1259C102.397 94.1247 102.907 95.1279 103.462 96.1003C103.748 96.5799 104.034 97.0595 104.342 97.5171C104.491 97.7547 104.645 97.9835 104.808 98.1991L105.046 98.5335L105.164 98.7051L105.226 98.7887L105.266 98.8327C105.552 99.1582 105.88 99.4438 106.242 99.6819C106.678 99.9797 107.131 100.253 107.598 100.5C108.561 101.019 109.595 101.49 110.647 101.935C111.698 102.379 112.772 102.815 113.859 103.197C114.946 103.58 116.059 103.985 117.128 104.359L116.719 106.053C114.361 105.659 112.031 105.111 109.745 104.412C108.574 104.055 107.425 103.63 106.304 103.14C105.716 102.879 105.143 102.585 104.588 102.26C103.944 101.893 103.361 101.429 102.859 100.883L102.753 100.764L102.678 100.672L102.533 100.491L102.243 100.122C102.045 99.8799 101.856 99.6335 101.68 99.3827C101.306 98.8855 100.962 98.3751 100.624 97.8603C99.9559 96.8391 99.3406 95.7847 98.78 94.7011C98.2212 93.6231 97.6932 92.5363 97.2092 91.4275C96.7252 90.3187 96.2896 89.2275 95.8892 88.0131L99.2288 86.9131Z" fill="#B55B52"/>
<path id="Vector_106" d="M116.547 104.35L119.143 103.347L119.016 106.344C119.016 106.344 116.913 106.902 115.936 105.842L116.547 104.35Z" fill="#B55B52"/>
<path id="Vector_107" d="M121.101 104.377L121.99 106.291L119.016 106.344L119.143 103.347L121.101 104.377Z" fill="#B55B52"/>
<path id="Vector_108" d="M78.0474 179.471L81.4838 179.727L82.5046 171.837L79.0682 171.582L78.0474 179.471Z" fill="#B55B52"/>
<path id="Vector_109" d="M50.8286 161.625L53.0726 164.292L59.7342 160.011L57.4902 157.344L50.8286 161.625Z" fill="#B55B52"/>
<path id="Vector_110" d="M54.1199 163.949L52.3115 160.473C52.2827 160.412 52.2328 160.364 52.1711 160.339C52.1095 160.313 52.0404 160.31 51.9771 160.332L49.1039 161.326C49.0318 161.355 48.9667 161.399 48.9128 161.455C48.8589 161.511 48.8175 161.578 48.7913 161.651C48.7651 161.724 48.7548 161.802 48.7609 161.88C48.767 161.957 48.7894 162.032 48.8267 162.101C49.4779 163.302 49.8519 163.861 50.6439 165.379C51.1367 166.316 51.7571 167.741 52.4303 169.039C53.1035 170.337 54.3883 169.761 54.2211 169.158C53.4643 166.47 53.9659 165.726 54.2211 164.56C54.2574 164.351 54.2217 164.135 54.1199 163.949Z" fill="#263238"/>
<path id="Vector_111" d="M81.699 179.239H77.8358C77.7693 179.238 77.7047 179.261 77.6539 179.304C77.603 179.347 77.5692 179.406 77.5586 179.472L77.0394 182.526C77.0287 182.602 77.0345 182.679 77.0563 182.753C77.0782 182.827 77.1156 182.895 77.1661 182.953C77.2166 183.011 77.2789 183.057 77.3489 183.089C77.4189 183.121 77.4949 183.137 77.5718 183.137C78.9226 183.115 79.5694 183.036 81.2678 183.036C82.315 183.036 84.471 183.146 85.9142 183.146C87.3574 183.146 87.4718 181.72 86.8734 181.588C84.1938 181.012 83.1554 180.211 82.2666 179.45C82.1098 179.312 81.9077 179.237 81.699 179.239Z" fill="#263238"/>
<path id="Vector_112" opacity="0.2" d="M82.5045 171.838L81.9369 176.225L78.5137 175.881L79.0681 171.587L82.5045 171.838Z" fill="black"/>
<path id="Vector_113" opacity="0.2" d="M57.4902 157.344L59.7342 160.011L56.9754 161.784L54.6478 159.17L57.4902 157.344Z" fill="black"/>
<path id="Vector_114" d="M78.3199 100.122L92.1007 102.793C98.6127 83.6218 97.0551 82.9926 97.0551 82.9926C96.0428 82.4456 94.998 81.9607 93.9267 81.5406L93.7375 81.4702C92.8575 81.149 92.6727 81.1006 91.4935 80.7574C89.4607 80.2778 87.5731 79.8774 85.2367 79.5474L84.7967 79.4858C84.3567 79.433 83.9519 79.389 83.5471 79.3494C83.2743 79.3186 83.0015 79.301 82.7419 79.2834L81.8619 79.235C80.3571 79.1602 79.2791 79.1822 79.2791 79.1822C80.0359 91.1546 79.4595 94.5998 78.3199 100.122Z" fill="#064997"/>
<path id="Vector_115" opacity="0.7" d="M78.3199 100.122L92.1007 102.793C98.6127 83.6218 97.0551 82.9926 97.0551 82.9926C96.0428 82.4456 94.998 81.9607 93.9267 81.5406L93.7375 81.4702C92.8575 81.149 92.6727 81.1006 91.4935 80.7574C89.4607 80.2778 87.5731 79.8774 85.2367 79.5474L84.7967 79.4858C84.3567 79.433 83.9519 79.389 83.5471 79.3494C83.2743 79.3186 83.0015 79.301 82.7419 79.2834L81.8619 79.235C80.3571 79.1602 79.2791 79.1822 79.2791 79.1822C80.0359 91.1546 79.4595 94.5998 78.3199 100.122Z" fill="white"/>
<path id="Vector_116" opacity="0.2" d="M95.0752 87.468L93.83 87.2656C93.83 88.9068 94.4548 91.7228 95.062 93.5136C95.5768 91.7536 95.9772 90.306 96.2808 89.0872L95.0752 87.468Z" fill="black"/>
<path id="Vector_117" d="M96.5754 82.7599C98.6126 83.4111 100.095 87.4415 100.65 89.1795L96.6898 93.8303C96.6898 93.8303 92.633 88.0003 93.2798 86.1919C93.9134 84.3087 95.5898 82.4387 96.5754 82.7599Z" fill="#064997"/>
<path id="Vector_118" opacity="0.7" d="M96.5754 82.7599C98.6126 83.4111 100.095 87.4415 100.65 89.1795L96.6898 93.8303C96.6898 93.8303 92.633 88.0003 93.2798 86.1919C93.9134 84.3087 95.5898 82.4387 96.5754 82.7599Z" fill="white"/>
<path id="Vector_119" d="M97.8956 67.8789C97.4864 69.0801 95.6956 69.5597 93.9136 68.9569C92.1316 68.3541 91.0052 66.8801 91.4144 65.6789C91.8236 64.4777 93.6144 63.9981 95.3744 64.6053C97.1344 65.2125 98.3004 66.6777 97.8956 67.8789Z" fill="#263238"/>
<path id="Vector_120" d="M87.5601 67.5487C86.6449 70.8223 86.1873 72.1863 87.2345 74.4391C88.8097 77.8315 93.0249 78.3639 94.8993 75.4555C96.5845 72.8419 97.7989 67.9271 95.1061 65.4675C94.5378 64.9183 93.8361 64.5268 93.0703 64.3315C92.3044 64.1363 91.5009 64.1441 90.7391 64.3543C89.9772 64.5644 89.2833 64.9695 88.7258 65.5297C88.1683 66.0899 87.7665 66.7858 87.5601 67.5487Z" fill="#B55B52"/>
<path id="Vector_121" d="M92.6728 63.7252C91.3528 64.482 88.55 59.7432 85.0696 63.7252C82.5792 66.5808 84.1676 70.7652 84.1676 70.7652C84.1676 70.7652 82.1832 67.276 80.5992 68.9788C78.5312 71.1788 80.6696 79.0504 87.4896 78.5092C94.3096 77.968 93.6496 72.4328 93.6496 72.4328C93.6496 72.4328 96.844 69.1856 96.6856 66.2728C96.5668 64.0904 94.8728 62.48 92.6728 63.7252Z" fill="#263238"/>
<path id="Vector_122" d="M93.5 70.3602C93.3299 70.9693 93.3514 71.6161 93.5616 72.2125C93.8432 73.0529 94.49 73.0574 94.8332 72.4766C95.1764 71.8958 95.3656 70.8882 94.8772 70.2106C94.3888 69.533 93.72 69.687 93.5 70.3602Z" fill="#B55B52"/>
<path id="Vector_123" d="M88.4401 102.08C88.4401 102.08 86.9705 107.175 85.0829 113.898C83.8289 118.377 82.3857 123.578 81.0701 128.475C80.3177 131.278 79.6093 133.98 78.9977 136.395C75.5393 150.057 58.2913 161.801 58.2913 161.801L54.9517 158.127C54.9517 158.127 66.5413 148.368 69.9117 135.621C76.7185 109.745 72.8905 105.38 78.3157 100.122L88.4401 102.08Z" fill="#263238"/>
<path id="Vector_124" opacity="0.2" d="M86.9527 106.647C86.4423 108.623 85.7999 111.118 85.0915 113.907C83.8375 118.386 82.3943 123.587 81.0787 128.484C80.5155 122.236 80.1987 110.748 84.7967 107.175C85.7031 106.48 86.4203 106.335 86.9527 106.647Z" fill="black"/>
<path id="Vector_125" d="M58.5773 162.329L54.4061 157.74L55.6689 156.473L60.7861 161.295L58.5773 162.329Z" fill="#064997"/>
<path id="Vector_126" opacity="0.7" d="M58.5773 162.329L54.4061 157.74L55.6689 156.473L60.7861 161.295L58.5773 162.329Z" fill="white"/>
<path id="Vector_127" d="M54.7493 165.814C54.7074 165.813 54.6658 165.805 54.6261 165.792C54.2169 165.642 53.9573 164.859 53.8385 164.406C53.8347 164.39 53.8356 164.374 53.8411 164.359C53.8466 164.344 53.8564 164.331 53.8693 164.322C53.8821 164.313 53.8975 164.308 53.9133 164.308C53.9291 164.308 53.9445 164.313 53.9573 164.322C54.0805 164.393 55.1629 165.026 55.1849 165.471C55.1886 165.519 55.1791 165.567 55.1574 165.611C55.1357 165.654 55.1026 165.691 55.0617 165.717C54.9718 165.784 54.8615 165.818 54.7493 165.814ZM54.0497 164.56C54.2301 165.154 54.4589 165.554 54.6833 165.633C54.7313 165.648 54.7822 165.651 54.8315 165.641C54.8807 165.631 54.9266 165.609 54.9649 165.576C55.0221 165.537 55.0265 165.497 55.0221 165.471C55.0001 165.242 54.4765 164.828 54.0497 164.56Z" fill="#064997"/>
<path id="Vector_128" d="M91.8809 102.793C91.8809 102.793 92.7609 129.994 90.8161 140.241C88.8185 150.92 82.7201 175.12 82.7201 175.12L77.7657 174.482C77.7657 174.482 80.8985 149.992 82.2317 139.405C83.6793 127.86 81.7917 100.822 81.7917 100.822L91.8809 102.793Z" fill="#263238"/>
<path id="Vector_129" d="M83.7847 175.423L76.7227 174.513L76.8063 172.832L84.4931 173.166L83.7847 175.423Z" fill="#064997"/>
<path id="Vector_130" opacity="0.7" d="M83.7847 175.423L76.7227 174.513L76.8063 172.832L84.4931 173.166L83.7847 175.423Z" fill="white"/>
<path id="Vector_131" d="M54.9165 164.749C54.551 164.732 54.1943 164.631 53.8737 164.454C53.8617 164.447 53.8518 164.437 53.8448 164.424C53.8379 164.412 53.8342 164.398 53.8341 164.384C53.836 164.37 53.841 164.356 53.8486 164.344C53.8561 164.332 53.8662 164.322 53.8781 164.314C53.9177 164.314 54.7581 163.852 55.2421 164.032C55.3028 164.054 55.3579 164.089 55.4035 164.135C55.4491 164.18 55.4842 164.235 55.5061 164.296C55.535 164.355 55.5434 164.421 55.5298 164.485C55.5162 164.549 55.4815 164.606 55.4313 164.648C55.275 164.736 55.0945 164.772 54.9165 164.749ZM54.0937 164.393C54.4765 164.569 55.1453 164.666 55.3301 164.52C55.3609 164.494 55.3917 164.454 55.3301 164.353C55.3172 164.314 55.2953 164.279 55.2663 164.25C55.2372 164.221 55.2019 164.199 55.1629 164.186C54.7938 164.145 54.4208 164.217 54.0937 164.393Z" fill="#064997"/>
<path id="Vector_132" d="M82.9753 179.837C82.6129 179.829 82.252 179.788 81.8973 179.714C81.8804 179.712 81.8647 179.704 81.8527 179.692C81.8407 179.68 81.8332 179.665 81.8313 179.648C81.8286 179.631 81.8315 179.614 81.8394 179.599C81.8474 179.584 81.8599 179.572 81.8753 179.564C82.0337 179.481 83.4241 178.781 83.8377 179.014C83.8771 179.036 83.9101 179.068 83.9333 179.106C83.9565 179.145 83.969 179.189 83.9697 179.234C83.9782 179.307 83.9682 179.382 83.9405 179.45C83.9129 179.519 83.8684 179.579 83.8113 179.626C83.5641 179.788 83.2697 179.862 82.9753 179.837ZM82.1701 179.599C82.9269 179.727 83.4901 179.692 83.7057 179.507C83.7427 179.474 83.7712 179.433 83.7889 179.387C83.8065 179.341 83.8127 179.292 83.8069 179.243C83.8081 179.225 83.8043 179.207 83.7957 179.192C83.7871 179.176 83.7742 179.163 83.7585 179.155C83.5341 179.032 82.7421 179.327 82.1701 179.599Z" fill="#064997"/>
<path id="Vector_133" d="M81.9148 179.718C81.8989 179.722 81.8822 179.722 81.8664 179.718C81.8545 179.71 81.8451 179.698 81.8389 179.685C81.8327 179.672 81.8301 179.658 81.8312 179.643C81.8312 179.582 82.0028 178.094 82.8344 178.182C83.0544 178.204 83.1204 178.314 83.1336 178.407C83.1952 178.794 82.3636 179.542 81.9456 179.727L81.9148 179.718ZM82.7684 178.323C82.2756 178.323 82.0776 179.137 82.016 179.489C82.456 179.234 83.0104 178.649 82.9752 178.416C82.9752 178.416 82.9752 178.341 82.8168 178.328L82.7684 178.323Z" fill="#064997"/>
<path id="Vector_134" d="M78.2319 99.2817L77.4091 100.386C77.3475 100.474 77.4443 100.593 77.6027 100.624L92.0567 103.422C92.1799 103.422 92.2943 103.422 92.3119 103.33L92.6419 102.124C92.6419 102.045 92.5671 101.948 92.4307 101.922L78.4739 99.2201C78.4317 99.2088 78.3873 99.2085 78.3449 99.2193C78.3025 99.2301 78.2636 99.2516 78.2319 99.2817Z" fill="#064997"/>
<path id="Vector_135" d="M79.8512 101.2L79.4772 101.125C79.4024 101.125 79.354 101.063 79.3672 101.019L79.8072 99.4573C79.8072 99.4133 79.8952 99.3869 79.9656 99.4001L80.3396 99.4749C80.4144 99.4749 80.4672 99.5365 80.454 99.5805L80.014 101.143C79.9964 101.2 79.926 101.2 79.8512 101.2Z" fill="#263238"/>
<path id="Vector_136" d="M89.2891 103.044L88.9151 102.973C88.8403 102.973 88.7919 102.907 88.8051 102.863L89.2451 101.306C89.2451 101.257 89.3287 101.231 89.4035 101.249L89.7775 101.319C89.8479 101.319 89.9007 101.385 89.8875 101.429L89.4475 102.987C89.4343 103.035 89.3639 103.061 89.2891 103.044Z" fill="#263238"/>
</g>
</g>
</svg>
