<svg width="49" height="48" viewBox="0 0 49 48" fill="none" xmlns="http://www.w3.org/2000/svg">
<circle cx="24.5" cy="24" r="24" fill="#FBFDFF"/>
<path opacity="0.4" d="M25 35.6668C31.4434 35.6668 36.6667 30.4435 36.6667 24.0002C36.6667 17.5568 31.4434 12.3335 25 12.3335C18.5567 12.3335 13.3334 17.5568 13.3334 24.0002C13.3334 30.4435 18.5567 35.6668 25 35.6668Z" fill="#064997"/>
<path d="M29.6667 23.1252H25.875V19.3335C25.875 18.8552 25.4784 18.4585 25 18.4585C24.5217 18.4585 24.125 18.8552 24.125 19.3335V23.1252H20.3334C19.855 23.1252 19.4584 23.5218 19.4584 24.0002C19.4584 24.4785 19.855 24.8752 20.3334 24.8752H24.125V28.6668C24.125 29.1452 24.5217 29.5418 25 29.5418C25.4784 29.5418 25.875 29.1452 25.875 28.6668V24.8752H29.6667C30.145 24.8752 30.5417 24.4785 30.5417 24.0002C30.5417 23.5218 30.145 23.1252 29.6667 23.1252Z" fill="#064997"/>
</svg>
