<svg width="33" height="32" viewBox="0 0 33 32" fill="none" xmlns="http://www.w3.org/2000/svg">
<path opacity="0.4" d="M22.0866 2.66699H10.9133C6.05996 2.66699 3.16663 5.56033 3.16663 10.4137V21.5737C3.16663 26.4403 6.05996 29.3337 10.9133 29.3337H22.0733C26.9266 29.3337 29.82 26.4403 29.82 21.587V10.4137C29.8333 5.56033 26.94 2.66699 22.0866 2.66699Z" fill="#010F1E"/>
<path d="M21.8333 15.0003H17.5V10.667C17.5 10.1203 17.0466 9.66699 16.5 9.66699C15.9533 9.66699 15.5 10.1203 15.5 10.667V15.0003H11.1666C10.62 15.0003 10.1666 15.4537 10.1666 16.0003C10.1666 16.547 10.62 17.0003 11.1666 17.0003H15.5V21.3337C15.5 21.8803 15.9533 22.3337 16.5 22.3337C17.0466 22.3337 17.5 21.8803 17.5 21.3337V17.0003H21.8333C22.38 17.0003 22.8333 16.547 22.8333 16.0003C22.8333 15.4537 22.38 15.0003 21.8333 15.0003Z" fill="#010F1E"/>
</svg>
