<svg width="20" height="20" viewBox="0 0 20 20" fill="none" xmlns="http://www.w3.org/2000/svg">
<g id="vuesax/bulk/edit">
<g id="edit">
<path id="Vector" opacity="0.4" d="M12.7235 2.95703H6.49392C3.79392 2.95703 2.17392 4.56921 2.17392 7.27703V13.4988C2.17392 16.2144 3.79392 17.8266 6.49392 17.8266H12.7157C15.4235 17.8266 17.0357 16.2144 17.0357 13.5066V7.27703C17.0435 4.56921 15.4235 2.95703 12.7235 2.95703Z" fill="#010F1E"/>
<path id="Vector_2" d="M17.0591 2.94134C15.6583 1.53264 14.2887 1.50134 12.8487 2.94134L11.9644 3.81786C11.8861 3.89612 11.8626 4.00569 11.8939 4.10743C12.4418 6.02482 13.9757 7.55873 15.8931 8.10656C15.9165 8.11438 15.9557 8.11438 15.9791 8.11438C16.0574 8.11438 16.1357 8.08308 16.1904 8.0283L17.0591 7.15177C17.7713 6.4396 18.1235 5.75873 18.1235 5.06221C18.1235 4.35786 17.7713 3.66134 17.0591 2.94134Z" fill="#010F1E"/>
<path id="Vector_3" d="M14.5861 8.76471C14.3748 8.66298 14.1713 8.56124 13.9835 8.44385C13.827 8.34993 13.6704 8.24819 13.5217 8.13863C13.3965 8.06037 13.2557 7.94298 13.1148 7.82558C13.0991 7.81776 13.0522 7.77863 12.9896 7.71602C12.747 7.52037 12.4887 7.25428 12.2461 6.96471C12.2304 6.94906 12.1835 6.90211 12.1444 6.83167C12.0661 6.74558 11.9487 6.59689 11.847 6.43254C11.7609 6.32298 11.6591 6.16645 11.5652 6.00211C11.4478 5.80645 11.3461 5.6108 11.2522 5.40732C11.1504 5.18819 11.0722 4.98471 11.0017 4.78906L6.79131 8.9995C6.5174 9.27341 6.25131 9.78993 6.19653 10.1734L5.86 12.5056C5.78957 12.9986 5.92261 13.4604 6.22783 13.7656C6.48609 14.0238 6.83827 14.1569 7.22957 14.1569C7.31566 14.1569 7.40174 14.1491 7.48783 14.1412L9.81218 13.8125C10.1957 13.7578 10.7122 13.4995 10.9861 13.2178L15.1965 9.00732C15.0009 8.94471 14.8052 8.85863 14.5861 8.76471Z" fill="#010F1E"/>
</g>
</g>
</svg>
