<svg width="42" height="42" viewBox="0 0 42 42" fill="none" xmlns="http://www.w3.org/2000/svg">
<path d="M37.4702 27.615L26.6702 8.175C25.2189 5.55938 23.2108 4.125 21.0002 4.125C18.7895 4.125 16.7814 5.55938 15.3302 8.175L4.53018 27.615C3.1633 30.0956 3.01143 32.475 4.1083 34.3481C5.20518 36.2212 7.36518 37.2506 10.2002 37.2506H31.8002C34.6352 37.2506 36.7952 36.2212 37.892 34.3481C38.9889 32.475 38.837 30.0787 37.4702 27.615ZM19.7345 15.9375C19.7345 15.2456 20.3083 14.6719 21.0002 14.6719C21.692 14.6719 22.2658 15.2456 22.2658 15.9375V24.375C22.2658 25.0669 21.692 25.6406 21.0002 25.6406C20.3083 25.6406 19.7345 25.0669 19.7345 24.375V15.9375ZM22.1983 30.6356C22.1139 30.7031 22.0295 30.7706 21.9452 30.8381C21.8439 30.9056 21.7427 30.9562 21.6414 30.99C21.5402 31.0406 21.4389 31.0744 21.3208 31.0912C21.2195 31.1081 21.1014 31.125 21.0002 31.125C20.8989 31.125 20.7808 31.1081 20.6627 31.0912C20.5614 31.0744 20.4602 31.0406 20.3589 30.99C20.2577 30.9562 20.1564 30.9056 20.0552 30.8381C19.9708 30.7706 19.8864 30.7031 19.802 30.6356C19.4983 30.315 19.3127 29.8762 19.3127 29.4375C19.3127 28.9987 19.4983 28.56 19.802 28.2394C19.8864 28.1719 19.9708 28.1044 20.0552 28.0369C20.1564 27.9694 20.2577 27.9187 20.3589 27.885C20.4602 27.8344 20.5614 27.8006 20.6627 27.7837C20.882 27.7331 21.1183 27.7331 21.3208 27.7837C21.4389 27.8006 21.5402 27.8344 21.6414 27.885C21.7427 27.9187 21.8439 27.9694 21.9452 28.0369C22.0295 28.1044 22.1139 28.1719 22.1983 28.2394C22.502 28.56 22.6877 28.9987 22.6877 29.4375C22.6877 29.8762 22.502 30.315 22.1983 30.6356Z" fill="#EB0B0B"/>
</svg>
