<svg width="33" height="32" viewBox="0 0 33 32" fill="none" xmlns="http://www.w3.org/2000/svg">
<g id="vuesax/bulk/discover">
<g id="discover">
<path id="Vector" opacity="0.4" d="M28.4733 4.02665C27.3133 2.86665 25.6733 2.41332 24.0867 2.81332L11.02 6.07999C8.81999 6.62665 7.12666 8.33332 6.57999 10.52L3.31333 23.6C2.91333 25.1867 3.36666 26.8267 4.52666 27.9867C5.40666 28.8533 6.56666 29.3333 7.76666 29.3333C8.13999 29.3333 8.52666 29.2933 8.89999 29.1867L21.98 25.92C24.1667 25.3733 25.8733 23.68 26.42 21.48L29.6867 8.39999C30.0867 6.81332 29.6333 5.17332 28.4733 4.02665Z" fill="#010F1E"/>
<path id="Vector_2" d="M16.5 21.1733C19.3571 21.1733 21.6733 18.8571 21.6733 16C21.6733 13.1428 19.3571 10.8267 16.5 10.8267C13.6428 10.8267 11.3267 13.1428 11.3267 16C11.3267 18.8571 13.6428 21.1733 16.5 21.1733Z" fill="#010F1E"/>
</g>
</g>
</svg>
