<svg width="25" height="24" viewBox="0 0 25 24" fill="none" xmlns="http://www.w3.org/2000/svg">
<g id="vuesax/bulk/frame">
<g id="frame">
<path id="Vector" opacity="0.4" d="M21.875 9.14999C19.565 5.51999 16.185 3.42999 12.625 3.42999C10.845 3.42999 9.115 3.94999 7.535 4.91999C5.955 5.89999 4.535 7.32999 3.375 9.14999C2.375 10.72 2.375 13.27 3.375 14.84C5.685 18.48 9.065 20.56 12.625 20.56C14.405 20.56 16.135 20.04 17.715 19.07C19.295 18.09 20.715 16.66 21.875 14.84C22.875 13.28 22.875 10.72 21.875 9.14999ZM12.625 16.04C10.385 16.04 8.585 14.23 8.585 12C8.585 9.76999 10.385 7.95999 12.625 7.95999C14.865 7.95999 16.665 9.76999 16.665 12C16.665 14.23 14.865 16.04 12.625 16.04Z" fill="white"/>
<path id="Vector_2" d="M12.625 9.14001C11.055 9.14001 9.775 10.42 9.775 12C9.775 13.57 11.055 14.85 12.625 14.85C14.195 14.85 15.485 13.57 15.485 12C15.485 10.43 14.195 9.14001 12.625 9.14001Z" fill="white"/>
</g>
</g>
</svg>
