<svg width="220" height="221" viewBox="0 0 220 221" fill="none" xmlns="http://www.w3.org/2000/svg">
<g id="Forgot password-amico 1">
<g id="freepik--Floor--inject-3">
<path id="freepik--floor--inject-3" d="M110 210.79C167.249 210.79 213.659 183.995 213.659 150.941C213.659 117.888 167.249 91.0923 110 91.0923C52.7501 91.0923 6.34009 117.888 6.34009 150.941C6.34009 183.995 52.7501 210.79 110 210.79Z" fill="#F0F0F0"/>
</g>
<g id="freepik--Shadow--inject-3">
<path id="freepik--shadow--inject-3" d="M88.5505 196.291C108.292 196.291 124.296 187.052 124.296 175.655C124.296 164.258 108.292 155.019 88.5505 155.019C68.8088 155.019 52.8049 164.258 52.8049 175.655C52.8049 187.052 68.8088 196.291 88.5505 196.291Z" fill="#E0E0E0"/>
</g>
<g id="freepik--Plants--inject-3">
<g id="freepik--plants--inject-3">
<path id="Vector" d="M190.204 149.836L186.01 147.416C186.01 147.416 184.985 138.44 185.667 131.488C186.626 121.72 192.936 109.964 200.46 112.727C207.984 115.49 197.01 125.434 194.568 133.719C192.126 142.004 190.204 149.836 190.204 149.836Z" fill="#064997"/>
<path id="Vector_2" opacity="0.15" d="M190.204 149.836L186.01 147.416C186.01 147.416 184.985 138.44 185.667 131.488C186.626 121.72 192.936 109.964 200.46 112.727C207.984 115.49 197.01 125.434 194.568 133.719C192.126 142.004 190.204 149.836 190.204 149.836Z" fill="black"/>
<path id="Vector_3" d="M187.999 148.82C188.066 148.816 188.129 148.787 188.174 148.737C188.22 148.688 188.244 148.623 188.241 148.556C187.506 126.85 198.313 115.93 198.418 115.824C198.466 115.776 198.493 115.711 198.493 115.644C198.493 115.576 198.466 115.511 198.418 115.463C198.395 115.44 198.367 115.421 198.337 115.408C198.306 115.395 198.273 115.389 198.24 115.389C198.207 115.389 198.174 115.395 198.144 115.408C198.113 115.421 198.085 115.44 198.062 115.463C197.948 115.569 186.987 126.648 187.731 148.573C187.732 148.607 187.74 148.64 187.754 148.671C187.768 148.702 187.788 148.73 187.813 148.753C187.838 148.776 187.868 148.793 187.899 148.805C187.931 148.816 187.965 148.821 187.999 148.82Z" fill="white"/>
<path id="Vector_4" d="M192.839 151.345L189.856 149.624C189.856 149.624 189.346 143.464 192.369 135.984C195.009 129.472 201.521 124.065 204.803 125.2C208.085 126.335 208.002 128.663 206.4 131.105C204.799 133.547 195.07 139.359 192.839 151.345Z" fill="#064997"/>
<path id="Vector_5" d="M191.264 150.695C191.332 150.693 191.396 150.666 191.443 150.619C191.491 150.571 191.518 150.507 191.519 150.439C191.458 136.711 204.345 127.436 204.477 127.344C204.505 127.325 204.528 127.301 204.546 127.273C204.564 127.244 204.576 127.213 204.581 127.18C204.587 127.147 204.585 127.113 204.577 127.081C204.569 127.049 204.555 127.018 204.535 126.992C204.496 126.937 204.437 126.901 204.371 126.889C204.305 126.878 204.238 126.892 204.183 126.93C204.051 127.023 190.952 136.456 191.009 150.439C191.009 150.507 191.036 150.572 191.084 150.62C191.132 150.668 191.197 150.695 191.264 150.695Z" fill="white"/>
</g>
<g id="freepik--plants--inject-3_2">
<path id="Vector_6" d="M35.0503 144.445L38.9223 141.832C38.9223 141.832 40.6251 131.712 39.0411 122.784C36.8147 110.262 28.1599 106.099 25.0799 107.419C21.9999 108.739 21.3399 112.466 27.0907 119.612C30.5007 123.814 34.9315 132.785 35.0503 144.445Z" fill="#064997"/>
<g id="Group" opacity="0.15">
<path id="Vector_7" d="M35.0503 144.445L38.9223 141.832C38.9223 141.832 40.6251 131.712 39.0411 122.784C36.8147 110.262 28.1599 106.099 25.0799 107.419C21.9999 108.739 21.3399 112.466 27.0907 119.612C30.5007 123.814 34.9315 132.785 35.0503 144.445Z" fill="black"/>
</g>
<path id="Vector_8" d="M36.3793 139.43H36.3397C36.3001 139.427 36.2616 139.416 36.2265 139.398C36.1914 139.379 36.1606 139.354 36.1361 139.323C36.1116 139.291 36.0939 139.256 36.0843 139.217C36.0746 139.179 36.0732 139.139 36.0801 139.1C37.4793 127.312 32.5029 114.517 27.0865 109.426C27.0344 109.373 27.0051 109.302 27.0051 109.228C27.0051 109.154 27.0344 109.083 27.0865 109.03C27.1123 109.004 27.1431 108.983 27.1771 108.968C27.2111 108.954 27.2476 108.947 27.2845 108.947C27.3214 108.947 27.3579 108.954 27.3919 108.968C27.4259 108.983 27.4567 109.004 27.4825 109.03C33.0001 114.213 38.0689 127.22 36.6521 139.179C36.6438 139.246 36.6118 139.308 36.5618 139.354C36.5118 139.4 36.4471 139.427 36.3793 139.43Z" fill="white"/>
<path id="Vector_9" d="M24.9133 151.284C24.2973 151.654 22.5021 150.321 22.0049 149.999C21.1528 149.443 20.4587 148.676 19.9897 147.773C19.4636 146.749 19.2684 145.586 19.4309 144.447C19.521 143.852 19.6519 143.264 19.8225 142.687C19.9765 142.11 20.1305 141.534 20.2625 140.953C20.4577 140.388 20.5326 139.789 20.4825 139.193C20.3109 138.018 19.2505 137.213 18.2825 136.522C17.2177 135.752 16.0825 134.736 16.0825 133.319C16.1368 132.206 16.5628 131.143 17.2925 130.301C17.9525 129.421 18.7445 128.655 19.3385 127.735C19.803 127.098 20.0401 126.323 20.0117 125.535C19.9352 125.05 19.7616 124.584 19.5013 124.167C18.9821 123.252 18.3089 122.407 17.9437 121.435C17.5785 120.462 17.6049 119.213 18.3837 118.487C19.0041 117.893 19.9501 117.796 20.8081 117.835C21.6166 117.916 22.3976 118.173 23.0961 118.588C25.3709 119.798 26.7085 122.438 29.1153 123.357C30.0437 123.709 31.0557 123.771 32.0193 124.009C32.9829 124.246 33.9773 124.717 34.4393 125.593C35.3501 127.331 33.7617 129.522 34.4129 131.365C34.9937 133.002 36.6129 133.601 37.5281 135.066C37.8996 135.716 38.0537 136.469 37.9681 137.213C37.9165 138.469 37.6346 139.706 37.1365 140.861C36.5636 142.058 35.9171 143.219 35.2005 144.337C35.2005 144.337 25.0057 151.227 24.9133 151.284Z" fill="#064997"/>
<path id="Vector_10" d="M30.8617 147.636C30.8247 147.636 30.7882 147.628 30.7543 147.613C30.7203 147.598 30.6896 147.577 30.6639 147.551C30.6381 147.524 30.6179 147.493 30.6043 147.458C30.5907 147.424 30.5839 147.387 30.5845 147.35C30.8309 136.209 25.3485 124.03 21.4677 120.51C21.4126 120.46 21.3793 120.391 21.3752 120.317C21.3711 120.243 21.3964 120.17 21.4457 120.114C21.4715 120.088 21.5023 120.067 21.5363 120.053C21.5703 120.038 21.6069 120.031 21.6437 120.031C21.6806 120.031 21.7171 120.038 21.7511 120.053C21.7851 120.067 21.8159 120.088 21.8417 120.114C25.8017 123.678 31.3941 136.069 31.1433 147.363C31.1428 147.4 31.135 147.436 31.1206 147.469C31.1061 147.503 31.0852 147.533 31.059 147.558C31.0329 147.583 31.002 147.603 30.9682 147.617C30.9343 147.63 30.8981 147.637 30.8617 147.636Z" fill="white"/>
<path id="Vector_11" d="M28.8063 134.063C28.7803 134.069 28.7531 134.069 28.7271 134.063C25.1279 133.024 20.6663 132.919 20.6223 132.914C20.5855 132.914 20.5492 132.906 20.5155 132.891C20.4818 132.876 20.4514 132.855 20.426 132.828C20.4006 132.802 20.3808 132.77 20.3676 132.736C20.3545 132.702 20.3483 132.665 20.3495 132.628C20.3488 132.591 20.3558 132.554 20.3702 132.52C20.3845 132.486 20.4057 132.455 20.4326 132.429C20.4595 132.403 20.4914 132.383 20.5263 132.371C20.5613 132.358 20.5984 132.353 20.6355 132.355C20.6795 132.355 25.2115 132.465 28.8811 133.521C28.952 133.543 29.0116 133.591 29.0471 133.656C29.0825 133.721 29.0908 133.798 29.0703 133.869C29.0532 133.925 29.0182 133.975 28.9706 134.01C28.923 134.045 28.8653 134.063 28.8063 134.063Z" fill="white"/>
</g>
</g>
<g id="freepik--speech-bubble--inject-3">
<g id="freepik--speach-bubble--inject-3">
<path id="Vector_12" d="M132.51 136.786L130.843 135.822C130.565 135.642 130.334 135.398 130.168 135.111C130.002 134.825 129.906 134.503 129.888 134.172V64.8632C129.906 64.533 130.002 64.2116 130.167 63.925C130.332 63.6384 130.562 63.3946 130.838 63.2132L177.192 36.4524C177.488 36.3028 177.814 36.2249 178.145 36.2249C178.476 36.2249 178.802 36.3028 179.098 36.4524L180.765 37.416C181.043 37.5964 181.274 37.8399 181.44 38.1266C181.606 38.4134 181.702 38.7352 181.72 39.066V108.375C181.702 108.705 181.606 109.026 181.441 109.313C181.276 109.6 181.046 109.843 180.77 110.025L134.416 136.79C134.12 136.94 133.794 137.018 133.462 137.017C133.131 137.016 132.805 136.937 132.51 136.786Z" fill="#455A64"/>
<path id="Vector_13" d="M181.721 38.912C181.655 38.4192 181.254 38.2388 180.775 38.516L134.416 65.2812C134.136 65.4571 133.904 65.7007 133.743 65.9896L130.166 63.926C130.326 63.6349 130.558 63.3896 130.839 63.2132L177.193 36.4524C177.488 36.3028 177.815 36.2249 178.146 36.2249C178.477 36.2249 178.803 36.3028 179.098 36.4524L180.766 37.416C181.023 37.5818 181.242 37.8014 181.407 38.0596C181.572 38.3178 181.679 38.6086 181.721 38.912Z" fill="#455A64"/>
<path id="Vector_14" d="M134.253 136.864C133.972 136.978 133.669 137.031 133.365 137.018C133.062 137.005 132.764 136.927 132.493 136.79L130.821 135.822C130.545 135.64 130.315 135.396 130.15 135.11C129.984 134.823 129.889 134.502 129.871 134.172V64.8627C129.882 64.5319 129.978 64.2093 130.148 63.9255L133.725 65.9891C133.551 66.2733 133.454 66.5978 133.444 66.9307V136.24C133.461 136.785 133.804 137.036 134.253 136.864Z" fill="#263238"/>
<path id="Vector_15" d="M133.46 66.9395V136.239C133.46 136.847 133.9 137.093 134.415 136.789L180.769 110.024C181.046 109.843 181.276 109.599 181.441 109.312C181.606 109.026 181.701 108.705 181.719 108.374V39.0655C181.719 38.4583 181.279 38.2119 180.769 38.5155L134.415 65.2807C134.136 65.4619 133.904 65.7068 133.738 65.9952C133.572 66.2835 133.477 66.6072 133.46 66.9395Z" fill="#37474F"/>
<path id="Vector_16" d="M122.637 93.3399C122.038 92.9835 119.262 91.4039 119.117 91.3203C119.003 91.2527 118.907 91.1607 118.834 91.0509C118.761 90.9411 118.714 90.8163 118.696 90.6858C118.678 90.5553 118.689 90.4224 118.729 90.2969C118.769 90.1714 118.837 90.0565 118.927 89.9607L129.888 78.2039L133.461 80.2543L122.505 92.0199C122.419 92.1115 122.353 92.2205 122.313 92.3395C122.272 92.4585 122.258 92.5848 122.27 92.7099C122.283 92.8349 122.322 92.9559 122.385 93.0645C122.448 93.1732 122.534 93.2671 122.637 93.3399Z" fill="#455A64"/>
<path id="Vector_17" d="M133.461 80.2678L122.505 92.0202C122.383 92.1501 122.303 92.3139 122.277 92.4899C122.25 92.6658 122.277 92.8458 122.355 93.0059C122.433 93.1661 122.557 93.2989 122.712 93.3868C122.867 93.4748 123.044 93.5138 123.222 93.4986L133.461 92.6538V80.2678Z" fill="#37474F"/>
<path id="Vector_18" d="M157.59 59.1077C162.993 55.9881 167.371 58.5181 167.371 64.7573C167.371 70.9965 162.993 78.5777 157.59 81.6973C152.187 84.8169 147.809 82.2869 147.809 76.0521C147.809 69.8173 152.187 62.2273 157.59 59.1077Z" fill="#064997"/>
<path id="Vector_19" d="M157.52 64.0179C159.28 63.0059 160.692 63.8243 160.692 65.8483C160.633 66.9485 160.314 68.0191 159.763 68.9732C159.212 69.9272 158.443 70.7379 157.52 71.3395C155.76 72.3515 154.343 71.5331 154.343 69.5091C154.404 68.4084 154.723 67.3376 155.275 66.3835C155.827 65.4294 156.596 64.6189 157.52 64.0179Z" fill="white"/>
<path id="Vector_20" d="M163.777 74.807C163.777 71.485 161.441 70.1342 158.563 71.7974L156.763 72.8358C153.886 74.499 151.549 78.5558 151.549 81.869V82.7798C152.093 82.9535 152.66 83.0411 153.23 83.0394C154.774 82.987 156.277 82.5319 157.591 81.7194C160.092 80.1788 162.208 78.0869 163.777 75.6034V74.807Z" fill="white"/>
<path id="Vector_21" d="M151.396 112.581L163.786 105.427C164.314 105.124 164.741 105.37 164.741 105.977V109.968C164.723 110.299 164.627 110.621 164.461 110.907C164.295 111.194 164.064 111.437 163.786 111.618L151.396 118.772C150.868 119.076 150.441 118.829 150.441 118.222V114.232C150.459 113.901 150.555 113.579 150.721 113.292C150.887 113.005 151.118 112.762 151.396 112.581Z" fill="#064997"/>
<path id="Vector_22" d="M145.328 103.666L169.84 89.5073C170.469 89.1421 170.984 89.4369 170.984 90.1673V91.6501C170.963 92.0468 170.848 92.4329 170.649 92.777C170.45 93.121 170.173 93.4133 169.84 93.6301L145.315 107.789C144.685 108.154 144.175 107.86 144.175 107.129V105.66C144.195 105.26 144.31 104.87 144.511 104.524C144.711 104.177 144.991 103.883 145.328 103.666Z" fill="#FAFAFA"/>
<path id="Vector_23" d="M148.197 93.4191C148.531 93.2255 148.791 93.1947 148.976 93.3311C149.16 93.4675 149.253 93.7711 149.253 94.2375C149.262 94.6632 149.167 95.0847 148.976 95.4651C148.803 95.8089 148.532 96.0937 148.197 96.2835L147.537 96.6663V98.0875C147.536 98.1364 147.524 98.1845 147.502 98.2283C147.486 98.2681 147.458 98.302 147.422 98.3251L147.088 98.5187C147.077 98.5272 147.063 98.5319 147.048 98.5319C147.034 98.5319 147.02 98.5272 147.009 98.5187C146.985 98.4889 146.974 98.451 146.978 98.4131V94.2991C146.978 94.2504 146.988 94.2023 147.009 94.1583C147.026 94.1192 147.053 94.0856 147.088 94.0615L148.197 93.4191ZM147.537 95.8699L148.175 95.5003C148.329 95.4133 148.459 95.2893 148.553 95.1395C148.653 94.9627 148.702 94.7616 148.694 94.5587C148.694 94.3211 148.646 94.1847 148.553 94.1451C148.488 94.1292 148.42 94.1285 148.354 94.143C148.289 94.1575 148.227 94.1868 148.175 94.2287L147.537 94.5983V95.8699Z" fill="#FAFAFA"/>
<path id="Vector_24" d="M151.096 91.7429C151.14 91.7165 151.176 91.7165 151.198 91.7429C151.226 91.7824 151.245 91.8274 151.255 91.8749L152.271 95.3157C152.271 95.3157 152.271 95.3421 152.271 95.3553C152.271 95.4044 152.258 95.4526 152.236 95.4961C152.22 95.536 152.193 95.5698 152.157 95.5929L151.858 95.7645C151.805 95.7953 151.765 95.7997 151.743 95.7645C151.722 95.7424 151.707 95.7151 151.699 95.6853L151.519 95.0825L150.199 95.8393L150.023 96.6489C150.01 96.6928 149.994 96.7355 149.974 96.7765C149.953 96.8302 149.912 96.874 149.86 96.8997L149.561 97.0713C149.55 97.0807 149.536 97.0858 149.521 97.0858C149.507 97.0858 149.493 97.0807 149.482 97.0713C149.459 97.0429 149.448 97.0066 149.451 96.9701C149.448 96.9541 149.448 96.9378 149.451 96.9217L150.463 92.3105C150.475 92.2428 150.494 92.1764 150.52 92.1125C150.542 92.0663 150.577 92.0279 150.621 92.0025L151.096 91.7429ZM151.325 94.4093L150.885 92.8561L150.445 94.9329L151.325 94.4093Z" fill="#FAFAFA"/>
<path id="Vector_25" d="M153.811 90.1098C153.958 90.0168 154.126 89.961 154.299 89.9469C154.422 89.9359 154.545 89.9636 154.651 90.0262C154.748 90.0888 154.823 90.1794 154.867 90.2857C154.915 90.394 154.942 90.5105 154.946 90.6289C154.949 90.6778 154.938 90.7266 154.915 90.7698C154.9 90.8096 154.872 90.8435 154.836 90.8666L154.546 91.0337C154.497 91.0601 154.462 91.0645 154.44 91.0337C154.413 91.0158 154.39 90.9917 154.374 90.9634C154.356 90.9238 154.331 90.8881 154.299 90.8587C154.267 90.8292 154.23 90.8064 154.189 90.7918C154.055 90.7726 153.919 90.8074 153.811 90.8885C153.739 90.9346 153.672 90.9861 153.608 91.0426C153.543 91.1027 153.485 91.1707 153.437 91.245C153.39 91.3166 153.352 91.3933 153.322 91.4737C153.296 91.5503 153.283 91.6305 153.283 91.7114C153.278 91.7854 153.291 91.8596 153.322 91.9269C153.336 91.9506 153.355 91.9705 153.378 91.9851C153.401 91.9997 153.427 92.0084 153.454 92.0105C153.536 92.0247 153.619 92.0247 153.701 92.0105L154.084 91.9269C154.226 91.8847 154.375 91.8668 154.524 91.8741C154.63 91.8738 154.733 91.9078 154.818 91.971C154.899 92.0387 154.957 92.1292 154.986 92.2305C155.029 92.3731 155.048 92.5217 155.043 92.6705C155.042 92.8671 155.014 93.0627 154.959 93.2514C154.905 93.4454 154.827 93.6317 154.726 93.8057C154.619 93.9842 154.492 94.1495 154.348 94.2985C154.2 94.452 154.031 94.5839 153.846 94.6902C153.71 94.7727 153.562 94.8307 153.406 94.8618C153.279 94.8861 153.149 94.8755 153.028 94.831C152.918 94.7798 152.827 94.6951 152.768 94.5889C152.696 94.4532 152.657 94.3025 152.654 94.1489C152.653 94.0989 152.664 94.0493 152.684 94.0037C152.704 93.9663 152.733 93.9345 152.768 93.9114L153.058 93.7442C153.102 93.7178 153.138 93.7089 153.164 93.7221C153.19 93.7353 153.208 93.7573 153.226 93.7969C153.244 93.8422 153.267 93.8851 153.296 93.9246C153.323 93.9629 153.362 93.992 153.406 94.0082C153.464 94.0215 153.524 94.0215 153.582 94.0082C153.675 93.9861 153.765 93.949 153.846 93.8982C153.931 93.8495 154.012 93.7936 154.088 93.731C154.236 93.6139 154.354 93.463 154.431 93.291C154.466 93.2028 154.484 93.1087 154.484 93.0137C154.488 92.9793 154.485 92.9443 154.475 92.9111C154.465 92.8778 154.449 92.8468 154.427 92.8202C154.403 92.7992 154.375 92.7836 154.345 92.7745C154.314 92.7654 154.282 92.7629 154.251 92.7673C154.151 92.7715 154.052 92.7877 153.956 92.8157C153.842 92.8421 153.71 92.873 153.556 92.8994C153.438 92.9288 153.316 92.9378 153.195 92.9257C153.1 92.9196 153.009 92.8808 152.94 92.8157C152.863 92.7412 152.81 92.6466 152.786 92.543C152.75 92.3901 152.734 92.2334 152.737 92.0766C152.737 91.8828 152.765 91.6901 152.821 91.5046C152.873 91.3136 152.95 91.1302 153.05 90.9589C153.145 90.7889 153.26 90.6308 153.393 90.4882C153.513 90.3428 153.654 90.2154 153.811 90.1098Z" fill="#FAFAFA"/>
<path id="Vector_26" d="M156.702 88.4467C156.848 88.3509 157.016 88.2934 157.191 88.2795C157.313 88.2691 157.436 88.2967 157.543 88.3587C157.637 88.423 157.71 88.5132 157.754 88.6183C157.802 88.7266 157.829 88.8431 157.833 88.9615C157.838 89.0105 157.827 89.0599 157.802 89.1023C157.787 89.1421 157.759 89.176 157.723 89.1991L157.433 89.3663C157.389 89.3927 157.353 89.4015 157.327 89.3663C157.299 89.3486 157.277 89.3224 157.265 89.2915C157.225 89.2143 157.158 89.1547 157.076 89.1243C157.011 89.1147 156.944 89.1183 156.879 89.1349C156.815 89.1515 156.755 89.1808 156.702 89.2211C156.629 89.266 156.559 89.3175 156.495 89.3751C156.431 89.4353 156.375 89.5033 156.328 89.5775C156.28 89.6481 156.241 89.7251 156.214 89.8063C156.186 89.8826 156.172 89.9628 156.17 90.0439C156.165 90.118 156.178 90.1921 156.209 90.2595C156.223 90.2831 156.242 90.3031 156.265 90.3177C156.288 90.3322 156.314 90.341 156.341 90.3431C156.423 90.3573 156.506 90.3573 156.588 90.3431L156.971 90.2595C157.114 90.2196 157.262 90.2018 157.411 90.2067C157.517 90.2057 157.62 90.2398 157.705 90.3035C157.786 90.3722 157.845 90.4622 157.877 90.5631C157.916 90.7064 157.934 90.8547 157.93 91.0031C157.929 91.1997 157.901 91.3952 157.846 91.5839C157.792 91.7779 157.714 91.9642 157.613 92.1383C157.507 92.3184 157.38 92.4853 157.235 92.6355C157.086 92.7852 156.919 92.9153 156.737 93.0227C156.602 93.1049 156.453 93.1629 156.297 93.1943C156.172 93.2183 156.043 93.2076 155.923 93.1635C155.811 93.114 155.718 93.0289 155.659 92.9215C155.587 92.7861 155.549 92.635 155.549 92.4815C155.544 92.4325 155.555 92.3831 155.58 92.3407C155.596 92.3009 155.623 92.267 155.659 92.2439L155.95 92.0767C155.994 92.0503 156.033 92.0415 156.055 92.0547C156.071 92.0616 156.084 92.072 156.095 92.085C156.106 92.0979 156.113 92.1132 156.117 92.1295C156.137 92.1739 156.16 92.2166 156.187 92.2571C156.216 92.2958 156.256 92.3249 156.302 92.3407C156.36 92.3541 156.42 92.3541 156.478 92.3407C156.571 92.3187 156.66 92.2815 156.742 92.2307C156.825 92.1809 156.904 92.125 156.979 92.0635C157.057 92.0032 157.125 91.9321 157.182 91.8523C157.239 91.7763 157.286 91.6935 157.323 91.6059C157.358 91.5177 157.376 91.4236 157.375 91.3287C157.38 91.2942 157.377 91.2593 157.367 91.226C157.357 91.1927 157.34 91.1618 157.318 91.1351C157.294 91.1141 157.266 91.0986 157.236 91.0894C157.206 91.0803 157.174 91.0779 157.142 91.0823C157.044 91.0883 156.947 91.1045 156.852 91.1307C156.737 91.1571 156.601 91.1879 156.451 91.2143C156.332 91.2438 156.209 91.2527 156.086 91.2407C155.991 91.2357 155.9 91.1967 155.831 91.1307C155.756 91.0558 155.704 90.9612 155.681 90.8579C155.642 90.7071 155.625 90.5516 155.629 90.3959C155.63 90.2009 155.658 90.0069 155.712 89.8195C155.767 89.6292 155.843 89.4461 155.941 89.2739C156.036 89.1027 156.153 88.9445 156.289 88.8031C156.407 88.6635 156.547 88.5433 156.702 88.4467Z" fill="#FAFAFA"/>
<path id="Vector_27" d="M159.91 88.9976L159.553 91.1052C159.543 91.1686 159.525 91.2306 159.501 91.29C159.484 91.3374 159.451 91.3777 159.408 91.4044L159.074 91.598C159.03 91.6244 158.999 91.6244 158.977 91.598C158.948 91.5618 158.931 91.517 158.929 91.4704L158.401 87.7524C158.401 87.7524 158.401 87.7172 158.401 87.704C158.402 87.655 158.414 87.607 158.436 87.5632C158.453 87.5241 158.48 87.4905 158.515 87.4664L158.819 87.2904C158.844 87.2801 158.872 87.2801 158.898 87.2904C158.924 87.2904 158.942 87.3256 158.951 87.396L159.298 89.8996L159.602 88.0208C159.61 87.9739 159.623 87.9282 159.641 87.8844C159.659 87.8287 159.697 87.7816 159.747 87.7524L160.086 87.5544C160.134 87.528 160.169 87.5324 160.191 87.5544C160.21 87.5824 160.224 87.6137 160.231 87.6468L160.539 89.1736L160.887 86.2696C160.891 86.2125 160.907 86.1569 160.935 86.1068C160.956 86.0739 160.983 86.0455 161.014 86.0232L161.318 85.8472C161.329 85.8386 161.343 85.834 161.357 85.834C161.372 85.834 161.386 85.8386 161.397 85.8472C161.41 85.8616 161.419 85.8784 161.425 85.8965C161.431 85.9146 161.434 85.9337 161.432 85.9528C161.434 85.9703 161.434 85.988 161.432 86.0056L160.904 90.3308C160.895 90.3941 160.879 90.4561 160.856 90.5156C160.836 90.5625 160.802 90.6024 160.759 90.63L160.42 90.8236C160.381 90.8456 160.35 90.8456 160.328 90.8236C160.306 90.7831 160.288 90.7404 160.275 90.696L159.91 88.9976Z" fill="#FAFAFA"/>
<path id="Vector_28" d="M161.968 87.1317C161.978 86.8877 162.007 86.6449 162.056 86.4057C162.106 86.1718 162.183 85.9445 162.285 85.7281C162.382 85.5176 162.506 85.3209 162.654 85.1428C162.805 84.9663 162.985 84.8173 163.187 84.7028C163.342 84.5977 163.523 84.5382 163.71 84.5312C163.85 84.5328 163.984 84.5879 164.084 84.6853C164.191 84.805 164.268 84.9482 164.309 85.1033C164.365 85.3053 164.396 85.5138 164.401 85.7237C164.401 85.8029 164.401 85.8908 164.401 85.9876C164.401 86.0844 164.401 86.1856 164.401 86.2912C164.401 86.3968 164.401 86.4981 164.401 86.5949C164.401 86.6917 164.401 86.784 164.401 86.8676C164.391 87.1102 164.362 87.3515 164.313 87.5892C164.262 87.8224 164.187 88.0495 164.089 88.2669C163.989 88.4766 163.863 88.6732 163.715 88.8521C163.564 89.027 163.386 89.1757 163.187 89.2921C163.028 89.3965 162.844 89.4558 162.654 89.4637C162.586 89.465 162.518 89.4525 162.454 89.4268C162.39 89.4011 162.333 89.3627 162.285 89.3141C162.17 89.1908 162.091 89.0388 162.056 88.8741C162.003 88.6712 161.974 88.4631 161.968 88.2537C161.968 88.1745 161.968 88.0865 161.968 87.9897C161.968 87.8929 161.968 87.7916 161.968 87.686C161.968 87.5804 161.968 87.4837 161.968 87.3825C161.968 87.2813 161.963 87.2109 161.968 87.1317ZM163.842 86.0801C163.852 85.9724 163.84 85.8639 163.807 85.761C163.773 85.6582 163.72 85.5632 163.649 85.4817C163.534 85.3805 163.376 85.3849 163.187 85.4817C162.981 85.6024 162.818 85.7838 162.72 86.0009C162.595 86.2574 162.529 86.5384 162.527 86.8237C162.527 86.9865 162.527 87.1669 162.527 87.3649C162.527 87.5629 162.527 87.7389 162.527 87.8973C162.517 88.0049 162.529 88.1134 162.562 88.2163C162.595 88.3191 162.649 88.4141 162.72 88.4957C162.835 88.5925 162.993 88.5837 163.187 88.4737C163.389 88.3521 163.55 88.1728 163.649 87.9589C163.773 87.7039 163.84 87.4243 163.842 87.1405C163.842 86.9733 163.842 86.7929 163.842 86.5949C163.842 86.3969 163.847 86.2385 163.842 86.0801Z" fill="#FAFAFA"/>
<path id="Vector_29" d="M166.32 82.9465C166.668 82.7485 166.927 82.7177 167.108 82.8629C167.215 82.9807 167.294 83.1207 167.34 83.2729C167.387 83.425 167.399 83.5855 167.376 83.7429C167.38 84.0418 167.334 84.3392 167.24 84.6229C167.15 84.8872 167.011 85.1321 166.83 85.3445L167.402 86.5897C167.404 86.6102 167.404 86.6308 167.402 86.6513C167.403 86.691 167.394 86.7302 167.376 86.7657C167.364 86.7977 167.342 86.8253 167.314 86.8449L166.962 87.0473C166.905 87.0781 166.866 87.0825 166.839 87.0473C166.816 87.0242 166.797 86.9975 166.782 86.9681L166.241 85.7933L165.691 86.1101V87.5973C165.691 87.646 165.681 87.6941 165.66 87.7381C165.642 87.7764 165.615 87.8096 165.581 87.8349L165.246 88.0285C165.235 88.0378 165.221 88.0429 165.207 88.0429C165.192 88.0429 165.178 88.0378 165.167 88.0285C165.155 88.0151 165.145 87.9991 165.139 87.9817C165.133 87.9642 165.131 87.9457 165.132 87.9273V83.8133C165.133 83.7644 165.145 83.7163 165.167 83.6725C165.183 83.6327 165.21 83.5988 165.246 83.5757L166.32 82.9465ZM165.7 85.3137L166.32 84.9793C166.472 84.8947 166.601 84.7756 166.698 84.6317C166.8 84.4622 166.849 84.2661 166.839 84.0685C166.839 83.8309 166.791 83.6989 166.698 83.6725C166.565 83.6543 166.429 83.689 166.32 83.7693L165.722 84.1125L165.7 85.3137Z" fill="#FAFAFA"/>
<path id="Vector_30" d="M169.268 81.2538C169.428 81.1496 169.611 81.0861 169.801 81.069C169.938 81.0639 170.072 81.1128 170.175 81.2054C170.291 81.3279 170.372 81.4801 170.408 81.6454C170.467 81.8636 170.499 82.0881 170.505 82.3142C170.505 82.6222 170.505 82.939 170.505 83.2602C170.496 83.5221 170.463 83.7828 170.408 84.039C170.357 84.277 170.281 84.5087 170.179 84.7298C170.081 84.9327 169.956 85.1221 169.809 85.293C169.662 85.4679 169.487 85.6167 169.29 85.733L168.247 86.3006C168.236 86.3099 168.222 86.315 168.208 86.315C168.193 86.315 168.179 86.3099 168.168 86.3006C168.155 86.2873 168.145 86.2713 168.139 86.2538C168.133 86.2364 168.131 86.2178 168.133 86.1994V82.0854C168.134 82.0364 168.146 81.9884 168.168 81.9446C168.184 81.9047 168.211 81.8709 168.247 81.8478L169.268 81.2538ZM169.946 82.6222C169.944 82.503 169.926 82.3846 169.893 82.2702C169.872 82.1835 169.828 82.1043 169.765 82.0414C169.738 82.0137 169.705 81.9921 169.668 81.9777C169.632 81.9633 169.593 81.9565 169.554 81.9578C169.444 81.9651 169.338 82.0016 169.246 82.0634L168.692 82.3802V85.249L169.268 84.919C169.38 84.854 169.479 84.7707 169.563 84.6726C169.645 84.5761 169.714 84.4696 169.77 84.3558C169.825 84.2345 169.866 84.1076 169.893 83.9774C169.924 83.8415 169.941 83.703 169.946 83.5638C169.959 83.2426 169.959 82.9302 169.946 82.6222Z" fill="#FAFAFA"/>
</g>
</g>
<g id="freepik--question-marks--inject-3">
<g id="freepik--question-marks--inject-3_2">
<path id="Vector_31" d="M108.847 17.392C109.606 17.561 110.338 17.8366 111.02 18.2104C111.674 18.5617 112.259 19.0265 112.749 19.5832C113.219 20.1187 113.567 20.749 113.77 21.4312C113.978 22.1615 113.993 22.933 113.814 23.6708C113.696 24.2558 113.465 24.8119 113.132 25.3076C112.829 25.7315 112.467 26.1107 112.059 26.434C111.657 26.7458 111.229 27.0211 110.778 27.2568L109.511 27.93C109.129 28.1291 108.767 28.3633 108.429 28.6296C108.123 28.8644 107.888 29.1798 107.751 29.5404C107.684 29.7052 107.573 29.8483 107.43 29.954C107.362 30.0066 107.283 30.0431 107.2 30.0606C107.116 30.0781 107.029 30.0763 106.946 30.0552L105.08 29.6416C104.99 29.6228 104.905 29.5862 104.83 29.5341C104.754 29.482 104.69 29.4153 104.64 29.338C104.588 29.2662 104.553 29.1829 104.538 29.095C104.523 29.0071 104.53 28.917 104.557 28.832C104.707 28.2543 104.972 27.7126 105.335 27.2392C105.667 26.8205 106.052 26.4464 106.479 26.126C106.896 25.8211 107.338 25.5517 107.799 25.3208C108.239 25.0964 108.679 24.8808 109.062 24.6652C109.418 24.4738 109.753 24.2452 110.061 23.9832C110.331 23.7571 110.518 23.4475 110.593 23.1032C110.663 22.8043 110.66 22.4928 110.583 22.1955C110.507 21.8982 110.359 21.6239 110.153 21.396C109.639 20.8343 108.951 20.461 108.2 20.3356C106.809 20.0276 105.636 20.4955 104.68 21.7392C104.588 21.875 104.471 21.9928 104.337 22.0868C104.185 22.1621 104.009 22.1748 103.848 22.122L101.864 21.682C101.722 21.6547 101.597 21.5724 101.516 21.4532C101.473 21.3896 101.444 21.3173 101.431 21.2414C101.418 21.1655 101.422 21.0876 101.441 21.0132C101.61 20.4018 101.924 19.8403 102.357 19.3764C102.844 18.8385 103.424 18.3916 104.068 18.0564C104.773 17.6879 105.532 17.4353 106.317 17.3084C107.157 17.1717 108.017 17.2001 108.847 17.392ZM106.739 31.5512C106.914 31.5922 107.065 31.6999 107.161 31.8512C107.258 32.0025 107.291 32.1854 107.254 32.3608L106.779 34.5168C106.763 34.6071 106.728 34.693 106.676 34.7688C106.624 34.8446 106.557 34.9087 106.479 34.9568C106.406 35.0076 106.322 35.0425 106.234 35.0591C106.147 35.0758 106.056 35.0739 105.969 35.0536L103.839 34.5652C103.749 34.55 103.663 34.5153 103.587 34.4637C103.511 34.4121 103.447 34.3446 103.399 34.266C103.35 34.1917 103.316 34.1081 103.301 34.0204C103.285 33.9326 103.287 33.8425 103.307 33.7556L103.787 31.5996C103.828 31.4249 103.935 31.2729 104.086 31.176C104.237 31.0791 104.42 31.0448 104.596 31.0804L106.739 31.5512Z" fill="#064997"/>
<path id="Vector_32" d="M111.197 38.032C111.726 37.947 112.265 37.9367 112.798 38.0012C113.307 38.0617 113.801 38.2106 114.259 38.4412C114.695 38.6673 115.078 38.982 115.385 39.3652C115.661 39.7402 115.856 40.1689 115.956 40.6236C116.056 41.0784 116.059 41.549 115.966 42.0052C115.882 42.356 115.747 42.6925 115.566 43.004C115.391 43.307 115.187 43.5928 114.959 43.8576C114.734 44.1216 114.519 44.3724 114.321 44.6144C114.127 44.8399 113.954 45.0829 113.806 45.3404C113.666 45.5661 113.596 45.8276 113.603 46.0928C113.599 46.2168 113.565 46.3378 113.502 46.4448C113.47 46.4942 113.428 46.5362 113.379 46.568C113.33 46.5999 113.274 46.6209 113.216 46.6296L111.896 46.8408C111.834 46.852 111.771 46.8508 111.71 46.8372C111.649 46.8236 111.591 46.7979 111.54 46.7616C111.488 46.7289 111.444 46.6844 111.413 46.6316C111.382 46.5788 111.363 46.5193 111.359 46.458C111.304 46.0486 111.334 45.6321 111.447 45.2348C111.551 44.8831 111.699 44.546 111.887 44.2316C112.072 43.9299 112.284 43.6457 112.521 43.3824C112.754 43.1184 112.961 42.872 113.163 42.6344C113.344 42.4222 113.5 42.1905 113.63 41.9436C113.744 41.7311 113.786 41.4869 113.749 41.2484C113.715 41.0385 113.632 40.8397 113.506 40.6689C113.379 40.498 113.214 40.3602 113.023 40.2672C112.55 40.0387 112.014 39.9737 111.5 40.0824C111.035 40.1505 110.602 40.3608 110.261 40.6845C109.92 41.0083 109.687 41.4297 109.595 41.8908C109.569 42.0017 109.524 42.1074 109.463 42.2032C109.384 42.2867 109.278 42.3384 109.164 42.3484L107.773 42.5728C107.676 42.5915 107.574 42.571 107.492 42.5156C107.449 42.4865 107.414 42.4487 107.387 42.4047C107.361 42.3606 107.344 42.3115 107.338 42.2604C107.296 41.8238 107.364 41.3837 107.536 40.98C107.71 40.5102 107.966 40.0752 108.293 39.6952C108.65 39.2792 109.072 38.9227 109.542 38.6392C110.049 38.3317 110.611 38.1255 111.197 38.032ZM113.467 47.646C113.527 47.6364 113.589 47.6388 113.649 47.6532C113.709 47.6675 113.765 47.6935 113.815 47.7296C113.866 47.7637 113.91 47.8084 113.944 47.8607C113.977 47.913 113.999 47.9718 114.008 48.0332L114.255 49.5424C114.274 49.6648 114.244 49.7899 114.171 49.8903C114.099 49.9908 113.99 50.0587 113.867 50.0792L112.393 50.3212C112.271 50.3401 112.146 50.3101 112.046 50.2376C111.995 50.2031 111.951 50.1582 111.919 50.1059C111.886 50.0536 111.865 49.995 111.857 49.934L111.61 48.4248C111.599 48.3643 111.601 48.302 111.615 48.2421C111.629 48.1823 111.656 48.1261 111.694 48.0772C111.728 48.0262 111.773 47.983 111.825 47.9504C111.878 47.9178 111.936 47.8965 111.997 47.888L113.467 47.646Z" fill="#064997"/>
<g id="Group_2" opacity="0.2">
<path id="Vector_33" d="M111.197 38.032C111.726 37.947 112.265 37.9367 112.798 38.0012C113.307 38.0617 113.801 38.2106 114.259 38.4412C114.695 38.6673 115.078 38.982 115.385 39.3652C115.661 39.7402 115.856 40.1689 115.956 40.6236C116.056 41.0784 116.059 41.549 115.966 42.0052C115.882 42.356 115.747 42.6925 115.566 43.004C115.391 43.307 115.187 43.5928 114.959 43.8576C114.734 44.1216 114.519 44.3724 114.321 44.6144C114.127 44.8399 113.954 45.0829 113.806 45.3404C113.666 45.5661 113.596 45.8276 113.603 46.0928C113.599 46.2168 113.565 46.3378 113.502 46.4448C113.47 46.4942 113.428 46.5362 113.379 46.568C113.33 46.5999 113.274 46.6209 113.216 46.6296L111.896 46.8408C111.834 46.852 111.771 46.8508 111.71 46.8372C111.649 46.8236 111.591 46.7979 111.54 46.7616C111.488 46.7289 111.444 46.6844 111.413 46.6316C111.382 46.5788 111.363 46.5193 111.359 46.458C111.304 46.0486 111.334 45.6321 111.447 45.2348C111.551 44.8831 111.699 44.546 111.887 44.2316C112.072 43.9299 112.284 43.6457 112.521 43.3824C112.754 43.1184 112.961 42.872 113.163 42.6344C113.344 42.4222 113.5 42.1905 113.63 41.9436C113.744 41.7311 113.786 41.4869 113.749 41.2484C113.715 41.0385 113.632 40.8397 113.506 40.6689C113.379 40.498 113.214 40.3602 113.023 40.2672C112.55 40.0387 112.014 39.9737 111.5 40.0824C111.035 40.1505 110.602 40.3608 110.261 40.6845C109.92 41.0083 109.687 41.4297 109.595 41.8908C109.569 42.0017 109.524 42.1074 109.463 42.2032C109.384 42.2867 109.278 42.3384 109.164 42.3484L107.773 42.5728C107.676 42.5915 107.574 42.571 107.492 42.5156C107.449 42.4865 107.414 42.4487 107.387 42.4047C107.361 42.3606 107.344 42.3115 107.338 42.2604C107.296 41.8238 107.364 41.3837 107.536 40.98C107.71 40.5102 107.966 40.0752 108.293 39.6952C108.65 39.2792 109.072 38.9227 109.542 38.6392C110.049 38.3317 110.611 38.1255 111.197 38.032ZM113.467 47.646C113.527 47.6364 113.589 47.6388 113.649 47.6532C113.709 47.6675 113.765 47.6935 113.815 47.7296C113.866 47.7637 113.91 47.8084 113.944 47.8607C113.977 47.913 113.999 47.9718 114.008 48.0332L114.255 49.5424C114.274 49.6648 114.244 49.7899 114.171 49.8903C114.099 49.9908 113.99 50.0587 113.867 50.0792L112.393 50.3212C112.271 50.3401 112.146 50.3101 112.046 50.2376C111.995 50.2031 111.951 50.1582 111.919 50.1059C111.886 50.0536 111.865 49.995 111.857 49.934L111.61 48.4248C111.599 48.3643 111.601 48.302 111.615 48.2421C111.629 48.1823 111.656 48.1261 111.694 48.0772C111.728 48.0262 111.773 47.983 111.825 47.9504C111.878 47.9178 111.936 47.8965 111.997 47.888L113.467 47.646Z" fill="black"/>
</g>
<path id="Vector_34" d="M123.639 40.4041C123.699 40.4458 123.75 40.4994 123.789 40.5614C123.827 40.6234 123.853 40.6927 123.864 40.7649C123.878 40.8365 123.877 40.9102 123.861 40.9814C123.845 41.0526 123.815 41.1197 123.771 41.1785L122.724 42.6525C122.683 42.7125 122.629 42.7634 122.567 42.802C122.505 42.8405 122.436 42.8661 122.363 42.8769C122.292 42.8909 122.218 42.89 122.147 42.8741C122.076 42.8582 122.009 42.8277 121.95 42.7845L120.507 41.7593C120.447 41.7182 120.396 41.6647 120.358 41.6026C120.32 41.5404 120.296 41.4708 120.287 41.3985C120.273 41.327 120.274 41.2532 120.29 41.1821C120.305 41.1109 120.336 41.0438 120.379 40.9849L121.439 39.5109C121.525 39.3915 121.655 39.3106 121.8 39.2859C121.945 39.2612 122.093 39.2946 122.214 39.3789L123.639 40.4041ZM129.729 30.4205C130.255 30.7893 130.724 31.2342 131.119 31.7405C131.505 32.2116 131.803 32.7481 131.999 33.3245C132.182 33.877 132.244 34.4622 132.18 35.0405C132.105 35.6572 131.872 36.244 131.502 36.7433C131.228 37.1471 130.875 37.4913 130.464 37.7553C130.102 37.9819 129.71 38.1539 129.298 38.2657C128.897 38.3706 128.488 38.4412 128.075 38.4769L126.904 38.5825C126.553 38.6106 126.206 38.671 125.866 38.7629C125.552 38.8341 125.266 38.9928 125.039 39.2205C124.936 39.3246 124.807 39.3978 124.665 39.4317C124.597 39.4511 124.526 39.454 124.457 39.4403C124.388 39.4265 124.324 39.3964 124.269 39.3525L122.993 38.4461C122.871 38.359 122.787 38.2282 122.759 38.0809C122.743 38.0096 122.744 37.9353 122.761 37.8643C122.779 37.7932 122.813 37.7272 122.861 37.6717C123.159 37.285 123.531 36.9618 123.956 36.7213C124.339 36.5124 124.747 36.3541 125.171 36.2505C125.579 36.1514 125.996 36.0881 126.416 36.0613C126.829 36.0349 127.217 36.0041 127.577 35.9689C127.908 35.9398 128.234 35.8749 128.55 35.7753C128.826 35.6832 129.065 35.5022 129.227 35.2605C129.375 35.0565 129.47 34.8199 129.506 34.5709C129.542 34.3219 129.518 34.0679 129.434 33.8305C129.226 33.2441 128.828 32.7439 128.303 32.4093C127.353 31.7317 126.316 31.7097 125.193 32.3433C125.08 32.4153 124.954 32.466 124.823 32.4929C124.755 32.4977 124.686 32.4889 124.621 32.467C124.556 32.4451 124.496 32.4105 124.445 32.3653L123.089 31.4017C123.04 31.3692 122.998 31.3271 122.966 31.2779C122.933 31.2288 122.911 31.1736 122.9 31.1157C122.89 31.0559 122.892 30.9945 122.906 30.9354C122.921 30.8763 122.947 30.8209 122.984 30.7725C123.304 30.3629 123.719 30.038 124.194 29.8265C124.733 29.5822 125.311 29.4333 125.901 29.3865C126.55 29.3323 127.204 29.3843 127.837 29.5405C128.52 29.7051 129.163 30.0043 129.729 30.4205Z" fill="#064997"/>
<g id="Group_3" opacity="0.6">
<path id="Vector_35" d="M123.639 40.4041C123.699 40.4458 123.75 40.4994 123.789 40.5614C123.827 40.6234 123.853 40.6927 123.864 40.7649C123.878 40.8365 123.877 40.9102 123.861 40.9814C123.845 41.0526 123.815 41.1197 123.771 41.1785L122.724 42.6525C122.683 42.7125 122.629 42.7634 122.567 42.802C122.505 42.8405 122.436 42.8661 122.363 42.8769C122.292 42.8909 122.218 42.89 122.147 42.8741C122.076 42.8582 122.009 42.8277 121.95 42.7845L120.507 41.7593C120.447 41.7182 120.396 41.6647 120.358 41.6026C120.32 41.5404 120.296 41.4708 120.287 41.3985C120.273 41.327 120.274 41.2532 120.29 41.1821C120.305 41.1109 120.336 41.0438 120.379 40.9849L121.439 39.5109C121.525 39.3915 121.655 39.3106 121.8 39.2859C121.945 39.2612 122.093 39.2946 122.214 39.3789L123.639 40.4041ZM129.729 30.4205C130.255 30.7893 130.724 31.2342 131.119 31.7405C131.505 32.2116 131.803 32.7481 131.999 33.3245C132.182 33.877 132.244 34.4622 132.18 35.0405C132.105 35.6572 131.872 36.244 131.502 36.7433C131.228 37.1471 130.875 37.4913 130.464 37.7553C130.102 37.9819 129.71 38.1539 129.298 38.2657C128.897 38.3706 128.488 38.4412 128.075 38.4769L126.904 38.5825C126.553 38.6106 126.206 38.671 125.866 38.7629C125.552 38.8341 125.266 38.9928 125.039 39.2205C124.936 39.3246 124.807 39.3978 124.665 39.4317C124.597 39.4511 124.526 39.454 124.457 39.4403C124.388 39.4265 124.324 39.3964 124.269 39.3525L122.993 38.4461C122.871 38.359 122.787 38.2282 122.759 38.0809C122.743 38.0096 122.744 37.9353 122.761 37.8643C122.779 37.7932 122.813 37.7272 122.861 37.6717C123.159 37.285 123.531 36.9618 123.956 36.7213C124.339 36.5124 124.747 36.3541 125.171 36.2505C125.579 36.1514 125.996 36.0881 126.416 36.0613C126.829 36.0349 127.217 36.0041 127.577 35.9689C127.908 35.9398 128.234 35.8749 128.55 35.7753C128.826 35.6832 129.065 35.5022 129.227 35.2605C129.375 35.0565 129.47 34.8199 129.506 34.5709C129.542 34.3219 129.518 34.0679 129.434 33.8305C129.226 33.2441 128.828 32.7439 128.303 32.4093C127.353 31.7317 126.316 31.7097 125.193 32.3433C125.08 32.4153 124.954 32.466 124.823 32.4929C124.755 32.4977 124.686 32.4889 124.621 32.467C124.556 32.4451 124.496 32.4105 124.445 32.3653L123.089 31.4017C123.04 31.3692 122.998 31.3271 122.966 31.2779C122.933 31.2288 122.911 31.1736 122.9 31.1157C122.89 31.0559 122.892 30.9945 122.906 30.9354C122.921 30.8763 122.947 30.8209 122.984 30.7725C123.304 30.3629 123.719 30.038 124.194 29.8265C124.733 29.5822 125.311 29.4333 125.901 29.3865C126.55 29.3323 127.204 29.3843 127.837 29.5405C128.52 29.7051 129.163 30.0043 129.729 30.4205Z" fill="white"/>
</g>
</g>
</g>
<g id="freepik--Character--inject-3">
<g id="freepik--character--inject-3">
<path id="Vector_36" d="M90.8729 79.353H75.2397V41.4778C75.2397 38.1882 76.5465 35.0333 78.8727 32.7071C81.1988 30.381 84.3537 29.0742 87.6433 29.0742H89.0865C92.3762 29.0742 95.5311 30.381 97.8572 32.7071C100.183 35.0333 101.49 38.1882 101.49 41.4778V68.7578C101.484 71.5699 100.363 74.2647 98.3727 76.2511C96.3822 78.2374 93.685 79.353 90.8729 79.353Z" fill="#263238"/>
<path id="Vector_37" d="M73.7178 170.534C73.4413 172.103 73.2941 173.693 73.2778 175.286C73.2206 178.172 72.6926 179.198 72.6222 181.565C72.5386 184.271 73.0094 185.283 74.105 186.805C75.2006 188.328 78.065 189.705 79.3058 187.135C80.5466 184.566 80.3662 182.88 79.9746 180.227C79.5742 177.482 79.5346 175.964 79.2882 173.874C79.0858 172.03 78.8482 170.626 78.8482 170.626L73.7178 170.534Z" fill="#263238"/>
<path id="Vector_38" d="M81.9107 151.363L72.4067 151.191C72.5475 157.536 73.5551 164.58 73.7267 170.551C73.7619 171.673 73.7003 179.259 74.1227 181.551C74.7607 185.018 78.8703 184.547 79.0903 182.475C79.3103 180.403 78.8263 171.545 78.8395 170.63C78.7999 166.811 80.5995 160.365 81.5279 153.51C81.5675 153.18 81.8667 151.693 81.9107 151.363Z" fill="#FFA8A7"/>
<path id="Vector_39" d="M94.1201 165.597C94.1201 165.597 93.7461 165.394 93.6801 165.795C93.5877 166.27 93.4469 167.251 93.2401 168.034C92.9673 169.121 92.7385 170.912 92.9013 171.801C93.0641 172.69 95.1321 173.825 96.4741 174.238C98.1281 174.749 99.6365 175.646 100.874 176.856C102.194 178.106 105.067 179.285 107.034 179.272C109.344 179.272 110.955 178.502 111.716 177.266C112.477 176.029 111.021 175.88 108.381 174.186L106.335 172.866C102.15 170.133 100.615 168.672 99.4397 165.94L94.1201 165.597Z" fill="#263238"/>
<path id="Vector_40" d="M99.4757 163.903C99.4053 161.941 100.76 145.26 100.76 145.26L91.7361 149.374C93.6677 160.911 94.0813 163.635 94.1121 165.522C94.0725 165.68 94.0562 165.843 94.0637 166.006C94.0637 168.246 96.6025 169.456 98.5737 170.952C100.249 172.265 102.035 173.43 103.911 174.437C105.345 175.154 108.258 175.22 108.619 174.3C106.216 172.465 102.723 169.72 100.813 167.625C99.8805 166.64 99.5461 165.87 99.4757 163.903Z" fill="#FFA8A7"/>
<path id="Vector_41" d="M76.3 89.4509C72.8328 97.0585 72.8328 102.946 73.4092 112.657C73.9196 121.567 74.7688 129.421 74.7688 129.421C74.6368 131 72.4412 134.085 72.1552 141.072C71.8912 147.601 72.5952 155.904 72.5952 155.904C72.5952 155.904 77.5276 158.637 81.1752 155.878C81.1752 155.878 84.6952 139.074 85.7248 130.899C86.6048 123.767 88.1888 114.654 88.1888 114.654L91.5196 130.851C90.8007 133.149 90.2796 135.504 89.962 137.891C89.4956 142.7 92.1884 152.142 92.1884 152.142C92.1884 152.142 97.2836 153.66 100.394 150.901C100.394 150.901 101.556 135.55 101.992 129.759C102.572 122.002 101.349 101.005 100.394 89.8865L76.3 89.4509Z" fill="#455A64"/>
<path id="Vector_42" d="M88.1978 114.64L89.5662 102.434C89.5662 102.434 95.6998 101.616 98.4806 99.0024C97.6847 100.248 96.6244 101.302 95.375 102.092C94.1256 102.881 92.7177 103.386 91.2514 103.57L89.2714 114.926L91.5198 130.85L88.1978 114.64Z" fill="#263238"/>
<path id="Vector_43" d="M113.037 86.45C113.29 84.2226 113.402 81.9815 113.371 79.74C113.235 77.804 112.887 77.4872 110.181 74.0596C106.529 69.4264 103.409 65.2596 100.109 61.1192C97.7511 58.1624 95.2695 57.7092 92.8583 57.8412C91.1687 57.9336 94.4687 66.0604 96.1275 70.8696L105.601 81.0688C105.894 81.4713 106.029 81.9679 105.979 82.4636L105.407 91.1404L108.245 94.942C108.245 94.942 112.544 91.2372 113.037 86.45Z" fill="#FFA8A7"/>
<path id="Vector_44" d="M83.7235 58.1052C81.8887 58.2328 78.5535 58.5452 78.5535 58.5452C76.6307 59.6188 76.1423 60.5032 75.7859 63.0552C75.6319 64.1464 76.5207 67.046 77.2819 71.1688L78.7251 78.8116L78.5667 82.6044C77.8187 84.9188 76.1247 87.792 74.6287 92.0292C81.9767 96.13 88.1367 96.284 93.7247 95.5492C97.9839 94.9992 100.241 93.9696 100.993 92.9488C100.835 88.7644 100.553 86.1772 100.465 81.8036C100.435 79.9688 100.545 78.112 100.619 76C103.475 73.6504 103.51 69.7432 101.939 67.2C98.3183 61.3348 94.7939 57.6432 92.4619 57.8324L83.7235 58.1052Z" fill="#064997"/>
<path id="Vector_45" opacity="0.6" d="M83.7235 58.1052C81.8887 58.2328 78.5535 58.5452 78.5535 58.5452C76.6307 59.6188 76.1423 60.5032 75.7859 63.0552C75.6319 64.1464 76.5207 67.046 77.2819 71.1688L78.7251 78.8116L78.5667 82.6044C77.8187 84.9188 76.1247 87.792 74.6287 92.0292C81.9767 96.13 88.1367 96.284 93.7247 95.5492C97.9839 94.9992 100.241 93.9696 100.993 92.9488C100.835 88.7644 100.553 86.1772 100.465 81.8036C100.435 79.9688 100.545 78.112 100.619 76C103.475 73.6504 103.51 69.7432 101.939 67.2C98.3183 61.3348 94.7939 57.6432 92.4619 57.8324L83.7235 58.1052Z" fill="white"/>
<path id="Vector_46" opacity="0.1" d="M94.93 76.0565C94.93 76.0565 91.5772 78.6613 87.7448 77.3017C86.6686 76.9626 85.6982 76.3515 84.9274 75.5275C84.1565 74.7035 83.6114 73.6945 83.3448 72.5981C83.3448 72.5981 82.94 76.9761 87.7668 78.4677C92.444 79.9065 94.93 76.0565 94.93 76.0565Z" fill="black"/>
<path id="Vector_47" d="M99.4803 46.0888C99.3351 52.4424 97.2803 54.0088 96.2419 54.4488C95.2035 54.8888 93.2147 54.6248 91.2787 54.3036V58.1404C91.2787 58.1404 93.5139 60.4812 93.3467 62.228C93.1795 63.9748 89.8267 64.1728 87.3275 62.4612C85.9485 61.514 84.7012 60.388 83.6183 59.1128C83.4103 58.8668 83.2965 58.5549 83.2971 58.2328V49.2568C83.2971 49.2568 82.2367 50.3788 80.3623 49.094C79.9578 48.8359 79.6115 48.4964 79.3454 48.0973C79.0792 47.6981 78.899 47.2479 78.8163 46.7753C78.7335 46.3027 78.75 45.8181 78.8646 45.3522C78.9793 44.8863 79.1896 44.4494 79.4823 44.0692C80.3007 43.1056 82.3775 43.0396 83.3719 44.5092C83.9351 45.6048 84.0099 46.7092 84.6391 46.2692C86.3111 45.0636 85.4135 42.3092 87.4331 40.9892C88.0958 40.6433 88.7842 40.3491 89.4923 40.1092C93.0959 38.864 96.2199 37.8168 96.9723 35.3528C98.3891 36.1624 99.6563 38.5956 99.4803 46.0888Z" fill="#FFA8A7"/>
<path id="Vector_48" d="M92.3731 51.7643C92.8348 51.7643 93.2091 51.39 93.2091 50.9283C93.2091 50.4666 92.8348 50.0923 92.3731 50.0923C91.9114 50.0923 91.5371 50.4666 91.5371 50.9283C91.5371 51.39 91.9114 51.7643 92.3731 51.7643Z" fill="#B16668"/>
<path id="Vector_49" d="M91.8196 45.1248C91.8194 45.2969 91.7687 45.4652 91.6738 45.6088C91.5789 45.7524 91.444 45.865 91.2857 45.9327C91.1275 46.0004 90.9528 46.0202 90.7834 45.9897C90.614 45.9592 90.4573 45.8796 90.3327 45.7609C90.208 45.6422 90.1209 45.4895 90.0822 45.3218C90.0434 45.1541 90.0547 44.9787 90.1146 44.8174C90.1745 44.656 90.2804 44.5158 90.4192 44.414C90.558 44.3122 90.7237 44.2534 90.8956 44.2448C91.0148 44.2388 91.134 44.2571 91.2459 44.2987C91.3578 44.3402 91.46 44.4041 91.5465 44.4864C91.6329 44.5687 91.7017 44.6678 91.7486 44.7775C91.7956 44.8872 91.8197 45.0054 91.8196 45.1248Z" fill="#263238"/>
<path id="Vector_50" d="M98.4858 45.2125C98.4948 45.3201 98.4823 45.4285 98.449 45.5312C98.4157 45.634 98.3623 45.7291 98.2918 45.811C98.2214 45.8929 98.1353 45.96 98.0387 46.0083C97.9421 46.0566 97.8368 46.0852 97.729 46.0925C97.6203 46.1025 97.5106 46.0893 97.4074 46.0537C97.3041 46.0181 97.2096 45.961 97.1301 45.8861C97.0506 45.8112 96.988 45.7202 96.9464 45.6193C96.9047 45.5183 96.885 45.4096 96.8886 45.3005C96.8773 45.192 96.8882 45.0824 96.9207 44.9783C96.9532 44.8742 97.0066 44.7779 97.0777 44.6952C97.1488 44.6125 97.236 44.5451 97.334 44.4973C97.432 44.4495 97.5387 44.4222 97.6476 44.4171C97.7565 44.412 97.8654 44.4292 97.9674 44.4677C98.0694 44.5061 98.1625 44.565 98.241 44.6407C98.3195 44.7164 98.3817 44.8073 98.4238 44.9079C98.4659 45.0085 98.487 45.1166 98.4858 45.2257V45.2125Z" fill="#263238"/>
<path id="Vector_51" d="M90.6889 47.3868C89.9299 47.3868 89.202 47.0857 88.665 46.5494C88.1279 46.0132 87.8256 45.2858 87.8245 44.5268C87.8245 42.582 89.8309 42.582 90.6889 42.582C91.5469 42.582 93.5489 42.582 93.5489 44.5268C93.5477 45.285 93.246 46.0118 92.7099 46.5479C92.1738 47.084 91.447 47.3857 90.6889 47.3868ZM90.6889 43.0308C88.9289 43.0308 88.2777 43.4708 88.2777 44.5268C88.2777 45.1687 88.5326 45.7842 88.9865 46.238C89.4403 46.6919 90.0558 46.9468 90.6977 46.9468C91.3395 46.9468 91.955 46.6919 92.4089 46.238C92.8627 45.7842 93.1177 45.1687 93.1177 44.5268C93.1001 43.4488 92.4225 43.0308 90.6889 43.0308Z" fill="#455A64"/>
<path id="Vector_52" d="M97.9535 47.3868C97.1946 47.3868 96.4667 47.0857 95.9296 46.5494C95.3926 46.0132 95.0903 45.2858 95.0891 44.5268C95.0891 42.582 97.0955 42.582 97.9535 42.582C98.8115 42.582 100.814 42.582 100.814 44.5268C100.812 45.285 100.511 46.0118 99.9746 46.5479C99.4384 47.084 98.7117 47.3857 97.9535 47.3868ZM97.9535 43.0308C96.2199 43.0308 95.5423 43.4708 95.5423 44.5268C95.5423 45.1687 95.7973 45.7842 96.2511 46.238C96.705 46.6919 97.3205 46.9468 97.9623 46.9468C98.6041 46.9468 99.2197 46.6919 99.6735 46.238C100.127 45.7842 100.382 45.1687 100.382 44.5268C100.365 43.4488 99.6871 43.0308 97.9535 43.0308Z" fill="#455A64"/>
<path id="Vector_53" d="M93.9929 43.6025L94.1337 48.9485L96.9453 48.0773L93.9929 43.6025Z" fill="#F28F8F"/>
<path id="Vector_54" d="M91.2735 54.3162C89.2319 54.0478 85.0299 52.8422 84.3743 51.179C84.6381 52.0195 85.1524 52.7594 85.8483 53.2998C87.1023 54.3778 91.2735 55.5878 91.2735 55.5878V54.3162Z" fill="#F28F8F"/>
<path id="Vector_55" d="M91.375 41.0066L89.5094 42.1462C89.3624 41.8901 89.3196 41.5872 89.3901 41.3004C89.4606 41.0136 89.6388 40.765 89.8878 40.6062C90.0109 40.5315 90.1478 40.4825 90.2903 40.4623C90.4329 40.442 90.578 40.4508 90.717 40.4883C90.8561 40.5257 90.986 40.5909 91.0991 40.68C91.2122 40.7691 91.3061 40.8802 91.375 41.0066Z" fill="#263238"/>
<path id="Vector_56" d="M98.9643 42.274L96.8875 41.548C96.9277 41.4104 96.9956 41.2824 97.087 41.172C97.1785 41.0616 97.2916 40.971 97.4194 40.9059C97.5471 40.8408 97.6868 40.8025 97.8299 40.7934C97.973 40.7843 98.1165 40.8045 98.2515 40.8528C98.53 40.9529 98.7594 41.1563 98.8921 41.4209C99.0248 41.6855 99.0506 41.9909 98.9643 42.274Z" fill="#263238"/>
<path id="Vector_57" d="M93.3236 44.7552C93.2937 44.7552 93.2642 44.7492 93.2367 44.7377C93.2091 44.7261 93.1842 44.7092 93.1633 44.6879C93.1424 44.6666 93.126 44.6413 93.115 44.6136C93.104 44.5859 93.0986 44.5562 93.0992 44.5264C93.0992 44.1612 93.8208 43.9236 94.472 43.9236C95.1232 43.9236 95.5412 44.1612 95.5412 44.5264C95.5275 44.5742 95.4986 44.6163 95.459 44.6462C95.4193 44.6761 95.3709 44.6923 95.3212 44.6923C95.2714 44.6923 95.2231 44.6761 95.1834 44.6462C95.1437 44.6163 95.1148 44.5742 95.1012 44.5264C95.1012 44.4824 94.8768 44.3724 94.4852 44.3724C94.1699 44.3657 93.8562 44.4194 93.5612 44.5308C93.5612 44.5614 93.555 44.5917 93.5429 44.6198C93.5308 44.6479 93.5131 44.6733 93.4908 44.6943C93.4686 44.7153 93.4423 44.7316 93.4135 44.742C93.3847 44.7525 93.3541 44.757 93.3236 44.7552Z" fill="#455A64"/>
<path id="Vector_58" d="M88.0574 44.5622H88.031L83.0018 44.1222C82.7668 43.8893 82.4868 43.7067 82.179 43.5854L88.0838 44.1311C88.143 44.1388 88.1968 44.1693 88.2338 44.2162C88.2708 44.263 88.288 44.3225 88.2818 44.3819C88.2714 44.4335 88.2433 44.4798 88.2023 44.5128C88.1613 44.5458 88.11 44.5633 88.0574 44.5622Z" fill="#455A64"/>
<path id="Vector_59" d="M67.4077 49.8063C69.0533 47.6063 70.1753 45.9475 71.6757 44.0863C72.5293 43.0171 73.0749 42.2515 73.8757 41.1559C74.4389 40.3991 74.7557 39.7611 75.3981 39.5279C76.0922 39.2436 76.7176 38.8146 77.2329 38.2695C77.5497 37.9191 77.8436 37.5488 78.1129 37.1607C79.056 35.8914 80.1762 34.7638 81.4393 33.8123C82.7593 32.8179 84.2333 32.0523 85.5929 31.1063C86.4025 30.5387 87.2693 29.5971 86.2837 28.7171C85.9814 28.4626 85.6197 28.2885 85.2321 28.2111C82.8341 27.6919 80.7485 28.5147 78.4033 29.1131C77.3846 29.3674 76.3884 29.7044 75.4245 30.1207C74.9504 30.3082 74.5058 30.5631 74.1045 30.8775C73.5434 31.4433 73.0835 32.1011 72.7449 32.8223C71.7197 34.6527 69.5197 36.2895 67.9797 37.7371C66.1801 39.4311 64.5697 40.9843 62.5149 42.8499C60.6669 44.5351 58.8585 46.0839 57.1645 47.9231C55.7609 49.4411 56.2845 50.6291 56.4693 51.0427C57.6133 53.3923 58.8937 54.2371 60.4293 55.6935C63.0693 58.2147 72.1993 65.4703 75.2221 67.8683C75.8716 68.3785 76.3816 69.0444 76.7049 69.8043L77.2857 71.1463C80.7353 71.7799 83.0365 66.6011 80.1809 60.3663C79.708 59.3581 78.9856 58.4873 78.0821 57.8363C74.4741 55.2095 67.4077 49.8063 67.4077 49.8063Z" fill="#FFA8A7"/>
<path id="Vector_60" d="M67.4078 49.8066C66.3098 51.1573 64.8466 52.1639 63.1926 52.7062C63.1926 52.7062 65.3926 53.2694 68.4066 50.5634L67.4078 49.8066Z" fill="#F28F8F"/>
<path id="Vector_61" d="M112.139 81.8609L111.576 81.3769C111.492 81.3215 111.396 81.2866 111.295 81.2752C111.195 81.2637 111.094 81.276 110.999 81.3109L104.888 82.9741C104.58 83.0768 104.298 83.2447 104.061 83.4665C103.824 83.6882 103.638 83.9585 103.515 84.2589L99.115 96.9441C99.062 97.0475 99.0412 97.1644 99.0553 97.2797C99.0695 97.395 99.1178 97.5034 99.1942 97.5909L99.775 98.0925C99.8595 98.1508 99.957 98.1877 100.059 98.1999C100.161 98.2122 100.264 98.1995 100.36 98.1629L106.481 96.4997C106.788 96.3971 107.07 96.2292 107.307 96.0074C107.544 95.7857 107.731 95.5153 107.853 95.2149C108.733 92.7201 111.373 85.0245 112.253 82.5297C112.359 82.2173 112.306 81.9797 112.139 81.8609Z" fill="#455A64"/>
<path id="Vector_62" d="M99.6913 97.4316L104.091 84.7464C104.214 84.4462 104.4 84.1762 104.637 83.9551C104.874 83.734 105.156 83.5672 105.464 83.466L111.571 81.8028C112.139 81.6488 112.451 81.9744 112.249 82.5288C111.369 85.0236 108.729 92.7192 107.849 95.214C107.726 95.5144 107.54 95.7848 107.303 96.0065C107.066 96.2283 106.784 96.3962 106.476 96.4988L100.369 98.1796C99.8057 98.3116 99.5021 97.986 99.6913 97.4316Z" fill="#064997"/>
<path id="Vector_63" d="M104.799 83.8186C104.481 84.0593 104.235 84.3817 104.086 84.7514L99.6862 97.4322C99.6358 97.533 99.6148 97.6458 99.6257 97.7579C99.6366 97.87 99.6789 97.9767 99.7478 98.0659L99.2022 97.5994C99.124 97.513 99.0741 97.4047 99.0592 97.2891C99.0442 97.1735 99.065 97.0561 99.1186 96.9527L103.519 84.2675C103.658 83.9226 103.884 83.6195 104.174 83.3875L104.799 83.8186Z" fill="#37474F"/>
<path id="Vector_64" d="M110.463 87.6417C110.023 88.9309 108.496 89.7933 105.97 90.3917C103.445 90.9901 102.05 93.6697 102.45 94.4837C102.851 95.2977 106.934 96.0589 108.566 95.8257C110.199 95.5925 111.835 93.2341 112.333 92.5037C112.83 91.7733 113.402 86.6781 112.878 85.9785C112.355 85.2789 111.25 85.3889 111.25 85.3889L110.463 87.6417Z" fill="#F28F8F"/>
</g>
</g>
</g>
</svg>
