<svg width="37" height="26" viewBox="0 0 37 26" fill="none" xmlns="http://www.w3.org/2000/svg">
<g opacity="0.5">
<path d="M17.6655 20.3477L27.2995 17.913V1.30029H9.09973V25.9999H17.0671C17.773 25.9999 18.4539 25.7388 18.9786 25.2667C19.5034 24.7946 19.8348 24.145 19.9091 23.4431C19.9834 22.7411 19.7953 22.0364 19.3811 21.4649C18.9668 20.8934 18.3557 20.4954 17.6655 20.3477Z" fill="#010F1E"/>
<path d="M8.44998 2.60107H3.90004C3.55639 2.6028 3.22741 2.74042 2.98502 2.98403C2.74264 3.22763 2.60657 3.55743 2.60657 3.90108C2.60657 4.24473 2.74264 4.57437 2.98502 4.81798C3.22741 5.06158 3.55639 5.19921 3.90004 5.20093H8.44998V2.60107Z" fill="#010F1E"/>
<path d="M7.27739 5.85003C6.84813 6.59352 6.18554 7.17447 5.39238 7.503C4.59921 7.83154 3.71981 7.88924 2.89055 7.66704C2.0613 7.44484 1.32853 6.95517 0.805907 6.27407C0.28328 5.59297 0 4.75854 0 3.90003C0 3.04152 0.28328 2.20694 0.805907 1.52584C1.32853 0.844733 2.0613 0.35507 2.89055 0.132868C3.71981 -0.089334 4.59921 -0.031628 5.39238 0.296905C6.18554 0.625438 6.84813 1.20654 7.27739 1.95002H3.89993C3.38276 1.95002 2.88677 2.15546 2.52107 2.52116C2.15538 2.88685 1.94993 3.38286 1.94993 3.90003C1.94993 4.4172 2.15538 4.91321 2.52107 5.2789C2.88677 5.6446 3.38276 5.85003 3.89993 5.85003H7.27739Z" fill="#010F1E"/>
<path d="M27.9493 2.60107H32.4993C32.8429 2.6028 33.1719 2.74042 33.4143 2.98403C33.6567 3.22763 33.7928 3.55743 33.7928 3.90108C33.7928 4.24473 33.6567 4.57437 33.4143 4.81798C33.1719 5.06158 32.8429 5.19921 32.4993 5.20093H27.9493V2.60107Z" fill="#010F1E"/>
<path d="M29.1226 5.85003C29.5518 6.59352 30.2144 7.17447 31.0076 7.503C31.8007 7.83154 32.6801 7.88924 33.5094 7.66704C34.3386 7.44484 35.0714 6.95517 35.594 6.27407C36.1167 5.59297 36.3999 4.75854 36.3999 3.90003C36.3999 3.04152 36.1167 2.20694 35.594 1.52584C35.0714 0.844733 34.3386 0.35507 33.5094 0.132868C32.6801 -0.089334 31.8007 -0.031628 31.0076 0.296905C30.2144 0.625438 29.5518 1.20654 29.1226 1.95002H32.5C33.0172 1.95002 33.5132 2.15546 33.8789 2.52116C34.2446 2.88685 34.45 3.38286 34.45 3.90003C34.45 4.4172 34.2446 4.91321 33.8789 5.2789C33.5132 5.6446 33.0172 5.85003 32.5 5.85003H29.1226Z" fill="#010F1E"/>
<path d="M27.2993 18.7803L19.1302 25.9997H27.2993V18.7803Z" fill="#010F1E"/>
<path d="M19.4493 20.5674L26.2372 18.8521L20.4838 23.9366C20.624 23.3337 20.6021 22.7045 20.4204 22.1127C20.2388 21.521 19.9037 20.9878 19.4493 20.5674Z" fill="#010F1E"/>
</g>
</svg>
