<svg width="24" height="24" viewBox="0 0 24 24" fill="none" xmlns="http://www.w3.org/2000/svg">
<g opacity="0.75">
<path d="M12 22C17.5 22 22 17.5 22 12C22 6.5 17.5 2 12 2C6.5 2 2 6.5 2 12C2 17.5 6.5 22 12 22Z" stroke="#010F1E" stroke-opacity="0.75" stroke-width="1.5" stroke-linecap="round" stroke-linejoin="round"/>
<path d="M9.75 9.84403C9.75 9.84403 9.78375 9.07059 10.5361 8.45043C10.9828 8.08223 11.5193 7.97559 12 7.96903C12.439 7.96363 12.8313 8.03793 13.0659 8.15231C13.467 8.34871 14.25 8.82684 14.25 9.84403C14.25 10.9144 13.5661 11.3996 12.7887 11.9342C12.0112 12.4688 11.8125 12.9931 11.8125 13.594" stroke="#010F1E" stroke-opacity="0.75" stroke-width="1.2" stroke-miterlimit="10" stroke-linecap="round"/>
<path d="M11.8125 16.125C12.2267 16.125 12.5625 15.7892 12.5625 15.375C12.5625 14.9608 12.2267 14.625 11.8125 14.625C11.3983 14.625 11.0625 14.9608 11.0625 15.375C11.0625 15.7892 11.3983 16.125 11.8125 16.125Z" fill="#010F1E" fill-opacity="0.75"/>
</g>
</svg>
