<svg width="33" height="32" viewBox="0 0 33 32" fill="none" xmlns="http://www.w3.org/2000/svg">
<g id="vuesax/bulk/home">
<g id="home">
<path id="Vector" opacity="0.4" d="M28.2733 10.68L19.54 3.69335C17.8333 2.33335 15.1667 2.32001 13.4733 3.68001L4.73999 10.68C3.48665 11.68 2.72665 13.68 2.99332 15.2533L4.67332 25.3067C5.05999 27.56 7.15332 29.3333 9.43332 29.3333H23.5667C25.82 29.3333 27.9533 27.52 28.34 25.2933L30.02 15.24C30.26 13.68 29.5 11.68 28.2733 10.68Z" fill="#064997"/>
<path id="Vector_2" d="M16.5 25C15.9533 25 15.5 24.5467 15.5 24V20C15.5 19.4533 15.9533 19 16.5 19C17.0467 19 17.5 19.4533 17.5 20V24C17.5 24.5467 17.0467 25 16.5 25Z" fill="#064997"/>
</g>
</g>
</svg>
