<svg width="33" height="32" viewBox="0 0 33 32" fill="none" xmlns="http://www.w3.org/2000/svg">
<g id="vuesax/bulk/home">
<g id="home">
<path id="Vector" opacity="0.4" d="M28.2733 10.6801L19.54 3.69344C17.8333 2.33344 15.1667 2.32011 13.4733 3.68011L4.73999 10.6801C3.48665 11.6801 2.72665 13.6801 2.99332 15.2534L4.67332 25.3068C5.05999 27.5601 7.15332 29.3334 9.43332 29.3334H23.5667C25.82 29.3334 27.9533 27.5201 28.34 25.2934L30.02 15.2401C30.26 13.6801 29.5 11.6801 28.2733 10.6801Z" fill="#010F1E"/>
<path id="Vector_2" d="M16.5 25C15.9533 25 15.5 24.5467 15.5 24V20C15.5 19.4533 15.9533 19 16.5 19C17.0467 19 17.5 19.4533 17.5 20V24C17.5 24.5467 17.0467 25 16.5 25Z" fill="#010F1E"/>
</g>
</g>
</svg>
