<svg width="12" height="12" viewBox="0 0 12 12" fill="none" xmlns="http://www.w3.org/2000/svg">
<g id="fluent:bed-24-filled" opacity="0.5">
<path id="Vector" d="M8.96368 5.53436C9.28976 5.53435 9.60357 5.65873 9.84109 5.88215C10.0786 6.10557 10.222 6.41118 10.2419 6.73666L10.2442 6.81489V9.84158C10.2442 9.93007 10.2106 10.0152 10.1502 10.0799C10.0897 10.1446 10.0071 10.1839 9.91877 10.1899C9.8305 10.1959 9.74322 10.1682 9.67458 10.1124C9.60594 10.0566 9.56106 9.97674 9.549 9.88908L9.54574 9.84158V8.79388H1.62976V9.84158C1.62976 9.92598 1.5992 10.0075 1.54373 10.0711C1.48826 10.1347 1.41163 10.1761 1.32802 10.1876L1.28053 10.1908C1.19614 10.1908 1.1146 10.1603 1.051 10.1048C0.987395 10.0493 0.94603 9.97269 0.934553 9.88908L0.931293 9.84158V6.81489C0.931277 6.4888 1.05566 6.175 1.27908 5.93747C1.5025 5.69995 1.80811 5.55661 2.13359 5.53669L2.21182 5.53436H8.96368ZM3.14311 2.27485H8.03239C8.35847 2.27483 8.67228 2.39922 8.9098 2.62263C9.14732 2.84605 9.29066 3.15167 9.31059 3.47714L9.31291 3.55537V5.06872H7.91598L7.91272 5.01424C7.90046 4.9103 7.85354 4.81352 7.77954 4.73951C7.70553 4.66551 7.60875 4.61859 7.50481 4.60633L7.45033 4.60307H6.51904C6.40499 4.60309 6.29491 4.64496 6.20968 4.72075C6.12445 4.79654 6.07 4.90097 6.05665 5.01424L6.05339 5.06872H5.1221L5.11884 5.01424C5.10659 4.9103 5.05967 4.81352 4.98566 4.73951C4.91166 4.66551 4.81488 4.61859 4.71094 4.60633L4.65646 4.60307H3.72517C3.61111 4.60309 3.50103 4.64496 3.4158 4.72075C3.33058 4.79654 3.27612 4.90097 3.26278 5.01424L3.25952 5.06872H1.86258V3.55537C1.86257 3.22929 1.98695 2.91548 2.21037 2.67796C2.43379 2.44043 2.73941 2.29709 3.06488 2.27717L3.14311 2.27485Z" fill="#010F1E"/>
</g>
</svg>
