<svg width="12" height="10" viewBox="0 0 12 10" fill="none" xmlns="http://www.w3.org/2000/svg">
<g id="jam:bathtub-f" opacity="0.5">
<path id="Vector" d="M4.98204 1.83206C5.30368 1.88016 5.59606 2.03058 5.80702 2.25648C6.01798 2.48237 6.13381 2.76906 6.13383 3.06539V3.89872H3.38383V3.06539C3.38383 2.63289 3.62583 2.25122 3.99341 2.02706C3.86141 1.9202 3.69823 1.85032 3.52354 1.82583C3.34885 1.80134 3.1701 1.82328 3.00881 1.88902C2.84753 1.95476 2.71059 2.06149 2.61449 2.19635C2.51839 2.33121 2.46722 2.48845 2.46716 2.64914V5.14914H9.8005C9.92205 5.14914 10.0386 5.19304 10.1246 5.27118C10.2105 5.34932 10.2588 5.4553 10.2588 5.56581C10.2588 5.67631 10.2105 5.78229 10.1246 5.86043C10.0386 5.93857 9.92205 5.98247 9.8005 5.98247V6.39914C9.80047 6.91618 9.62416 7.4205 9.29585 7.84269C8.96753 8.26488 8.50333 8.58418 7.96716 8.75664V8.95831C7.96716 9.06881 7.91887 9.17479 7.83292 9.25293C7.74697 9.33107 7.63039 9.37497 7.50883 9.37497C7.38727 9.37497 7.27069 9.33107 7.18474 9.25293C7.09879 9.17479 7.0505 9.06881 7.0505 8.95831V8.89914H4.3005V8.95831C4.3005 9.06881 4.25221 9.17479 4.16625 9.25293C4.0803 9.33107 3.96372 9.37497 3.84216 9.37497C3.72061 9.37497 3.60403 9.33107 3.51807 9.25293C3.43212 9.17479 3.38383 9.06881 3.38383 8.95831V8.75664C2.84766 8.58418 2.38347 8.26488 2.05515 7.84269C1.72683 7.4205 1.55052 6.91618 1.5505 6.39914V5.98247C1.42894 5.98247 1.31236 5.93857 1.22641 5.86043C1.14045 5.78229 1.09216 5.67631 1.09216 5.56581C1.09216 5.4553 1.14045 5.34932 1.22641 5.27118C1.31236 5.19304 1.42894 5.14914 1.5505 5.14914V2.64914C1.55048 2.28059 1.68483 1.92243 1.93254 1.63068C2.18025 1.33894 2.52735 1.13006 2.91953 1.03672C3.31172 0.943388 3.72688 0.970859 4.10006 1.11484C4.47325 1.25882 4.78341 1.51119 4.98204 1.83247V1.83206Z" fill="#010F1E"/>
</g>
</svg>
