<svg width="133" height="133" viewBox="0 0 133 133" fill="none" xmlns="http://www.w3.org/2000/svg">
<g id="wallet 1" clip-path="url(#clip0_1382_24571)">
<g id="Group">
<path id="Vector" d="M66.498 133C103.225 133 132.998 103.227 132.998 66.5C132.998 29.7731 103.225 0 66.498 0C29.7711 0 -0.00195312 29.7731 -0.00195312 66.5C-0.00195312 103.227 29.7711 133 66.498 133Z" fill="#E6E6DC"/>
<path id="Vector_2" d="M25.4046 118.688C26.5566 119.626 27.7398 120.525 28.952 121.383C30.7813 122.635 32.6719 123.795 34.6169 124.858C36.5631 125.922 38.5612 126.888 40.6039 127.753C42.6456 128.615 44.7292 129.374 46.8467 130.028C48.9653 130.683 51.1154 131.232 53.2888 131.672C55.4612 132.113 57.6545 132.445 59.8601 132.667C62.0664 132.889 64.2822 133 66.4996 133C68.0693 133 69.6387 132.945 71.2045 132.834C73.4152 132.677 75.6165 132.41 77.8004 132.034C79.9846 131.656 82.1485 131.17 84.2841 130.577C86.4222 129.984 88.5292 129.285 90.5974 128.482C91.1227 128.255 91.6451 128.02 92.1644 127.78C94.1607 126.945 96.115 126.014 98.0205 124.989C98.0517 124.971 98.083 124.953 98.1141 124.935C101 123.37 103.766 121.594 106.389 119.621C106.419 119.601 106.449 119.581 106.479 119.561C106.935 119.243 107.387 118.919 107.836 118.59C109.573 117.213 111.24 115.749 112.831 114.205C114.422 112.661 115.934 111.038 117.362 109.343C118.789 107.646 120.132 105.879 121.383 104.048C122.635 102.218 123.794 100.327 124.858 98.3824C125.92 96.4361 126.884 94.438 127.746 92.3954C128.61 90.3538 129.372 88.2703 130.028 86.1526C130.683 84.034 131.231 81.884 131.672 79.7105C132.113 77.5381 132.445 75.3451 132.667 73.1395C132.742 72.1198 132.793 71.0984 132.821 70.0764L109.741 46.9968C109.689 46.9448 109.623 46.9093 109.567 46.8636C109.29 46.637 108.973 46.4658 108.632 46.3588L92.74 42.1026L82.5322 31.8949C82.3027 31.6648 82.0299 31.4827 81.7296 31.3586C81.4293 31.2345 81.1076 31.171 80.7826 31.1719H51.1006C49.729 31.1719 48.6257 32.2732 48.6257 33.6447V39.8583L24.3655 46.3588C23.0418 46.7141 22.2667 48.0669 22.62 49.3928L31.4272 82.2645H30.706C30.0095 82.2629 29.3196 82.3989 28.6758 82.6646C28.032 82.9303 27.4469 83.3204 26.9543 83.8127C26.4618 84.3051 26.0714 84.89 25.8054 85.5337C25.5395 86.1774 25.4032 86.8674 25.4046 87.5639V118.688Z" fill="#D0CFBF"/>
<path id="Vector_3" d="M110.381 49.3894L91.8144 118.68C91.4609 119.999 90.105 120.782 88.7857 120.429L60.1134 112.746C58.7941 112.392 58.0109 111.036 58.3644 109.717L76.9307 40.4265C77.2842 39.1073 78.6406 38.3245 79.9598 38.678L108.632 46.3607C109.951 46.7142 110.734 48.0702 110.381 49.3894Z" fill="#3B9C00"/>
<path id="Vector_4" d="M86.1986 71.0801C83.9764 70.4896 81.6105 70.8053 79.621 71.9579C77.6314 73.1105 76.1809 75.0057 75.5877 77.2272C75.294 78.3243 75.2195 79.4684 75.3688 80.5943C75.5181 81.7202 75.8881 82.8055 76.4576 83.7881C77.0271 84.7707 77.785 85.6313 78.6877 86.3206C79.5904 87.0098 80.6202 87.5143 81.7181 87.8048C82.8141 88.1016 83.9579 88.1791 85.0839 88.0331C86.2099 87.8872 87.2961 87.5206 88.2802 86.9543C89.2643 86.3879 90.1271 85.6328 90.819 84.7325C91.5109 83.8322 92.0184 82.8044 92.3124 81.7077C92.9092 79.4877 92.6005 77.1217 91.4542 75.1291C90.3079 73.1365 88.4176 71.6802 86.1986 71.0801Z" fill="#CBE2A9"/>
<path id="Vector_5" d="M89.3301 80.8929C89.3084 80.9714 89.2712 81.0448 89.2208 81.1088C89.1704 81.1728 89.108 81.2262 89.0369 81.2658C88.9657 81.3054 88.8875 81.3305 88.8066 81.3396C88.7256 81.3488 88.6437 81.3418 88.5656 81.3191L88.0437 81.1798C87.4826 82.2833 86.2878 82.9463 85.097 82.6283C83.7068 82.2542 82.9753 80.7266 83.3619 79.2823C83.5946 78.4116 83.1685 77.6346 82.5014 77.4538C81.8322 77.2771 81.0779 77.7383 80.8431 78.609C80.6104 79.4818 81.0342 80.2591 81.7013 80.4378C82.5118 80.6415 82.1856 81.8594 81.3814 81.6329C80.2073 81.317 79.619 80.1574 79.6772 78.9375L79.0248 78.7628C78.2143 78.5591 78.5407 77.3394 79.3449 77.5679L80.0014 77.7445C80.5604 76.6597 81.6433 75.9469 82.8195 76.2607C84.0789 76.5995 85.0306 77.8131 84.5734 79.5192C84.5734 79.54 84.5526 79.5609 84.5526 79.5816V79.6024C84.3199 80.4753 84.7458 81.2525 85.4129 81.4312C86.0716 81.6078 86.8135 81.1589 87.0567 80.3089C87.0567 80.2881 87.0567 80.2633 87.0775 80.2404C87.2811 79.3822 86.876 78.6259 86.2173 78.4492C85.4068 78.2456 85.7329 77.0276 86.5372 77.2541C87.73 77.5742 88.4324 78.7462 88.3659 79.9827L88.8875 80.122C89.2262 80.2072 89.428 80.5563 89.3324 80.8909L89.3301 80.8929Z" fill="#015834"/>
<path id="Vector_6" d="M79.1556 97.362C78.2032 97.1095 77.1897 97.2452 76.3372 97.7392C75.4848 98.2332 74.8631 99.0451 74.6086 99.997C74.4828 100.467 74.4511 100.957 74.515 101.44C74.579 101.922 74.7375 102.387 74.9816 102.808C75.2256 103.229 75.5501 103.598 75.9369 103.893C76.3237 104.189 76.765 104.405 77.2355 104.529C77.7051 104.657 78.1953 104.69 78.6779 104.628C79.1605 104.565 79.6259 104.408 80.0477 104.166C80.4696 103.923 80.8394 103.599 81.136 103.214C81.4326 102.828 81.65 102.387 81.776 101.917C82.0315 100.966 81.8992 99.9517 81.408 99.0977C80.9167 98.2437 80.1066 97.6195 79.1556 97.362Z" fill="#CBE2A9"/>
<path id="Vector_7" d="M78.5156 99.7522C78.1981 99.6677 77.8601 99.7126 77.5757 99.877C77.2913 100.041 77.0839 100.312 76.9986 100.629C76.9569 100.786 76.9464 100.949 76.9679 101.11C76.9894 101.271 77.0425 101.426 77.1239 101.566C77.2054 101.707 77.3136 101.83 77.4425 101.928C77.5715 102.026 77.7187 102.098 77.8756 102.14C78.0321 102.182 78.1955 102.193 78.3563 102.172C78.5171 102.152 78.6721 102.099 78.8126 102.019C78.9532 101.938 79.0766 101.83 79.1754 101.701C79.2742 101.573 79.3466 101.426 79.3885 101.269C79.4731 100.952 79.4288 100.615 79.2652 100.331C79.1016 100.046 78.8321 99.8383 78.5156 99.7522Z" fill="#015834"/>
<path id="Vector_8" d="M90.6791 54.3553C89.727 54.1028 88.7136 54.2382 87.8612 54.7318C87.0088 55.2254 86.387 56.037 86.1322 56.9885C86.006 57.4587 85.974 57.9493 86.0378 58.4319C86.1016 58.9146 86.26 59.3797 86.5041 59.801C86.7481 60.2223 87.073 60.5913 87.4599 60.8867C87.8468 61.1822 88.2883 61.3985 88.759 61.523C89.2287 61.6503 89.7188 61.6836 90.2014 61.6211C90.684 61.5587 91.1495 61.4016 91.5713 61.1589C91.9931 60.9163 92.363 60.5929 92.6595 60.2071C92.9561 59.8213 93.1735 59.3806 93.2996 58.9106C93.5551 57.9593 93.4231 56.9457 92.9322 56.0917C92.4414 55.2378 91.6317 54.6132 90.6811 54.3553H90.6791Z" fill="#CBE2A9"/>
<path id="Vector_9" d="M90.0386 56.7451C89.8814 56.703 89.7175 56.6924 89.5561 56.7137C89.3948 56.735 89.2391 56.788 89.0982 56.8694C88.9574 56.9509 88.8339 57.0591 88.735 57.1883C88.636 57.3175 88.5636 57.4649 88.5216 57.6221C88.4796 57.7789 88.4688 57.9424 88.4902 58.1033C88.5115 58.2642 88.5647 58.4193 88.6462 58.5597C88.7277 58.7001 88.8359 58.8231 88.9651 58.9214C89.0942 59.0198 89.2416 59.0917 89.3986 59.133C89.5551 59.1754 89.7185 59.1865 89.8793 59.1657C90.0401 59.1449 90.1951 59.0926 90.3357 59.0117C90.4762 58.9308 90.5994 58.823 90.6982 58.6944C90.797 58.5658 90.8693 58.4188 90.9113 58.2621C90.9959 57.9452 90.9515 57.6078 90.788 57.3235C90.6244 57.0392 90.3551 56.8313 90.0386 56.7451Z" fill="#015834"/>
<path id="Vector_10" d="M90.3858 114.455C89.915 114.328 89.4238 114.296 88.9406 114.359C88.4573 114.423 87.9915 114.581 87.5694 114.825C87.1473 115.069 86.7775 115.393 86.4809 115.78C86.1843 116.167 85.9668 116.609 85.8409 117.079L64.3364 111.317C64.5909 110.366 64.4576 109.354 63.9658 108.502C63.4739 107.65 62.664 107.028 61.7139 106.774L78.3597 44.6525C78.8303 44.7785 79.3211 44.8106 79.8041 44.7469C80.2871 44.6832 80.7529 44.5248 81.1747 44.2811C81.5966 44.0374 81.9663 43.7129 82.2627 43.3263C82.5592 42.9396 82.7764 42.4986 82.9023 42.028L104.407 47.7905C104.152 48.7407 104.286 49.7531 104.777 50.605C105.269 51.457 106.079 52.0786 107.03 52.3333L90.3837 114.455H90.3858Z" fill="#8BBE3E"/>
<path id="Vector_11" d="M86.614 71.192C81.3376 69.7789 75.9034 72.9294 74.4862 78.2161C74.1501 79.47 74.0649 80.778 74.2353 82.0649C74.4057 83.3518 74.8282 84.5924 75.479 85.7156C76.1299 86.8388 76.996 87.8225 78.0277 88.6103C79.0595 89.3981 80.2365 89.9746 81.4915 90.3066C82.7442 90.6461 84.0518 90.7349 85.339 90.5682C86.6262 90.4014 87.8678 89.9823 88.9927 89.3348C90.1176 88.6873 91.1038 87.8243 91.8945 86.795C92.6852 85.7657 93.265 84.5904 93.6007 83.3366C95.018 78.0498 91.8862 72.6052 86.614 71.192Z" fill="#CBE2A9"/>
<path id="Vector_12" d="M90.1908 82.4057C90.1659 82.4952 90.1235 82.579 90.066 82.652C90.0085 82.725 89.9371 82.7859 89.856 82.8311C89.7748 82.8763 89.6855 82.9051 89.5932 82.9156C89.5008 82.926 89.4072 82.9179 89.3179 82.892L88.7215 82.7319C88.0815 83.9954 86.7161 84.7518 85.355 84.3882C83.7673 83.9621 82.9298 82.2145 83.3725 80.5645C83.6385 79.5691 83.1522 78.6817 82.3874 78.4759C81.6248 78.2723 80.7623 78.7981 80.4943 79.7956C80.2283 80.7931 80.7126 81.6804 81.4752 81.8841C82.4021 82.1189 82.03 83.5112 81.1094 83.2494C79.767 82.8899 79.0936 81.5639 79.1622 80.1695L78.4141 79.9701C77.4893 79.7374 77.8613 78.345 78.7819 78.6048L79.53 78.8065C80.1701 77.5679 81.4085 76.7532 82.751 77.1127C84.1911 77.4971 85.2802 78.8853 84.7586 80.8367C84.7586 80.8575 84.7378 80.8823 84.7378 80.9052V80.9323C84.4697 81.9298 84.9581 82.8172 85.7208 83.0208C86.4731 83.2224 87.3208 82.709 87.5993 81.7385C87.5993 81.7136 87.6201 81.6866 87.6201 81.6616C87.8528 80.6808 87.3873 79.8163 86.6371 79.6147C85.7081 79.3799 86.0822 77.9896 87.0029 78.2494C88.364 78.6152 89.1683 79.9535 89.0894 81.3666L89.6878 81.5267C89.7796 81.5498 89.8659 81.5911 89.9415 81.6482C90.017 81.7052 90.0801 81.7767 90.1274 81.8587C90.1747 81.9407 90.2051 82.0314 90.2167 82.1254C90.2283 82.2193 90.2208 82.3146 90.1949 82.4057H90.1908Z" fill="#015834"/>
<path id="Vector_13" d="M79.2515 98.6668C78.2991 98.4143 77.2856 98.55 76.4331 99.044C75.5807 99.5381 74.959 100.35 74.7046 101.302C74.5784 101.772 74.5462 102.262 74.6099 102.745C74.6736 103.227 74.8319 103.693 75.0757 104.114C75.3195 104.535 75.6441 104.904 76.0308 105.2C76.4175 105.495 76.8589 105.712 77.3294 105.837C77.7993 105.964 78.2896 105.998 78.7725 105.935C79.2555 105.873 79.7216 105.716 80.1437 105.473C80.5657 105.23 80.9356 104.906 81.2322 104.52C81.5288 104.134 81.7462 103.693 81.872 103.222C82.1275 102.271 81.9952 101.257 81.5039 100.403C81.0126 99.5487 80.2025 98.9243 79.2515 98.6668Z" fill="#CBE2A9"/>
<path id="Vector_14" d="M78.6094 101.057C78.2919 100.973 77.9539 101.018 77.6698 101.183C77.3857 101.348 77.1788 101.618 77.0944 101.936C77.0527 102.093 77.0421 102.256 77.0635 102.417C77.0849 102.577 77.1377 102.732 77.219 102.873C77.3002 103.013 77.4084 103.136 77.5371 103.234C77.6659 103.333 77.8127 103.405 77.9694 103.447C78.1262 103.489 78.2897 103.501 78.4508 103.48C78.612 103.459 78.7674 103.407 78.9082 103.326C79.049 103.244 79.1724 103.136 79.2712 103.007C79.3701 102.878 79.4426 102.731 79.4843 102.574C79.5689 102.257 79.5246 101.92 79.361 101.635C79.1975 101.351 78.9279 101.143 78.6114 101.057H78.6094Z" fill="#015834"/>
<path id="Vector_15" d="M90.7743 55.6602C89.8219 55.4077 88.8081 55.5434 87.9557 56.0374C87.1032 56.5315 86.4818 57.3433 86.2274 58.2952C86.1012 58.7654 86.0692 59.256 86.133 59.7386C86.1968 60.2212 86.3552 60.6867 86.5993 61.1079C86.8433 61.5292 87.1682 61.8982 87.5551 62.1937C87.9421 62.4892 88.3833 62.7052 88.854 62.8297C89.3238 62.9569 89.8142 62.9904 90.2969 62.9278C90.7796 62.8653 91.2451 62.708 91.667 62.4651C92.0888 62.2223 92.4585 61.8986 92.755 61.5126C93.0515 61.1265 93.269 60.6857 93.3948 60.2155C93.6503 59.264 93.5177 58.2499 93.0264 57.3959C92.5352 56.5419 91.7253 55.9177 90.7743 55.6602Z" fill="#CBE2A9"/>
<path id="Vector_16" d="M90.1348 58.05C89.9775 58.008 89.8132 57.9974 89.6518 58.0188C89.4904 58.0403 89.3348 58.0932 89.1939 58.1749C89.053 58.2565 88.9295 58.3651 88.8306 58.4945C88.7318 58.6239 88.6593 58.7716 88.6176 58.929C88.5758 59.0858 88.5656 59.2492 88.5871 59.41C88.6086 59.5708 88.6614 59.7258 88.7429 59.8661C88.8243 60.0064 88.9328 60.1294 89.0617 60.2279C89.1907 60.3263 89.3377 60.3984 89.4945 60.4399C89.6512 60.4823 89.8148 60.4934 89.9757 60.4724C90.1367 60.4515 90.2918 60.3988 90.4324 60.3177C90.5729 60.2366 90.6962 60.1286 90.7949 59.9998C90.8936 59.871 90.9657 59.7239 91.0074 59.567C91.092 59.2501 91.0477 58.9127 90.8842 58.6284C90.7206 58.3441 90.4513 58.1362 90.1348 58.05Z" fill="#015834"/>
<path id="Vector_17" d="M48.626 33.6448L48.626 105.38C48.626 106.745 49.733 107.853 51.0988 107.853H80.7829C82.1487 107.853 83.2557 106.745 83.2557 105.38V33.6448C83.2557 32.279 82.1487 31.172 80.7829 31.172H51.0988C49.733 31.172 48.626 32.279 48.626 33.6448Z" fill="#3B9C00"/>
<path id="Vector_18" d="M66.3709 60.8557C71.1506 60.8557 75.0284 64.7501 75.0284 69.5381C75.0284 70.6738 74.8042 71.7986 74.3688 72.8475C73.9334 73.8965 73.2954 74.8493 72.4911 75.6512C71.6869 76.4531 70.7324 77.0884 69.6821 77.5208C68.6319 77.9531 67.5066 78.174 66.3709 78.1707C65.2351 78.174 64.1099 77.9531 63.0596 77.5208C62.0094 77.0884 61.0549 76.4531 60.2507 75.6512C59.4464 74.8493 58.8083 73.8965 58.3729 72.8475C57.9376 71.7986 57.7134 70.6738 57.7134 69.5381C57.7117 67.2395 58.6223 65.0343 60.2451 63.4064C61.8679 61.7786 64.0703 60.8612 66.3689 60.8557H66.3709Z" fill="#CBE2A9"/>
<path id="Vector_19" d="M60.8057 69.5217C60.8057 69.8645 61.0924 70.1367 61.4333 70.1305H61.9736C62.2292 71.3441 63.212 72.2918 64.4464 72.2918C65.8845 72.2918 66.988 71.0054 66.988 69.5133C66.988 68.6093 67.5992 67.9692 68.2912 67.9692C68.9832 67.9692 69.5941 68.6093 69.5941 69.5133C69.5941 70.4152 68.9832 71.0574 68.2912 71.0574C67.4558 71.0366 67.4558 72.3042 68.2912 72.2938C69.509 72.2938 70.3754 71.3254 70.6352 70.1325H71.3104C72.1459 70.1533 72.1459 68.8837 71.3104 68.8941H70.6311C70.3713 67.7012 69.5089 66.7327 68.2932 66.7327C66.9902 66.7327 65.7557 67.6575 65.7557 69.426V69.5133C65.7557 70.4152 65.1407 71.0574 64.4508 71.0574C63.7691 71.0574 63.1706 70.4318 63.154 69.5465V69.4757C63.1789 68.5946 63.7668 67.9692 64.4485 67.9692C65.2839 67.9899 65.2839 66.7223 64.4485 66.7327C63.2141 66.7327 62.2312 67.6825 61.9756 68.8941H61.4353C61.3527 68.8935 61.2709 68.9094 61.1946 68.9407C61.1182 68.9721 61.0487 69.0181 60.9903 69.0765C60.932 69.1348 60.8857 69.2043 60.8544 69.2807C60.823 69.3571 60.8071 69.4391 60.8077 69.5217H60.8057Z" fill="#015834"/>
<path id="Vector_20" d="M66.3712 88.0646C67.356 88.0673 68.2994 88.4604 68.9948 89.1577C69.6901 89.855 70.0807 90.7997 70.0807 91.7845C70.0807 93.8377 68.4182 95.4834 66.3712 95.4834C65.8844 95.485 65.4021 95.3905 64.9519 95.2053C64.5017 95.0202 64.0922 94.7481 63.7474 94.4045C63.4026 94.0608 63.1292 93.6524 62.9425 93.2028C62.7558 92.7532 62.6597 92.2713 62.6597 91.7845C62.6597 89.7334 64.3222 88.0646 66.3712 88.0646Z" fill="#CBE2A9"/>
<path id="Vector_21" d="M66.3712 90.5398C67.0549 90.5398 67.6076 91.0945 67.6076 91.7782C67.6076 92.464 67.0549 93.0106 66.3712 93.0106C66.209 93.0111 66.0483 92.9797 65.8983 92.918C65.7483 92.8563 65.6119 92.7656 65.497 92.6511C65.3821 92.5366 65.2911 92.4006 65.2289 92.2508C65.1667 92.101 65.1348 91.9404 65.1348 91.7782C65.1348 91.0924 65.6896 90.5375 66.3712 90.5375V90.5398Z" fill="#015834"/>
<path id="Vector_22" d="M66.3712 43.5408C67.356 43.5435 68.2994 43.9368 68.9948 44.6341C69.6901 45.3314 70.0807 46.2759 70.0807 47.2607C70.0807 49.3139 68.4182 50.9598 66.3712 50.9598C65.8844 50.9615 65.4021 50.867 64.9519 50.6818C64.5017 50.4966 64.0922 50.2243 63.7474 49.8807C63.4026 49.537 63.1292 49.1289 62.9425 48.6793C62.7558 48.2297 62.6597 47.7475 62.6597 47.2607C62.6597 45.2096 64.3222 43.5408 66.3712 43.5408Z" fill="#CBE2A9"/>
<path id="Vector_23" d="M66.3712 46.0138C67.0549 46.0138 67.6076 46.5706 67.6076 47.2543C67.6076 47.9401 67.0549 48.4866 66.3712 48.4866C66.209 48.4872 66.0483 48.4557 65.8983 48.394C65.7483 48.3324 65.6119 48.2417 65.497 48.1272C65.3821 48.0127 65.2911 47.8767 65.2289 47.7269C65.1667 47.5771 65.1348 47.4165 65.1348 47.2543C65.1348 46.5685 65.6896 46.0138 66.3712 46.0138Z" fill="#015834"/>
<path id="Vector_24" d="M51.1007 101.668C51.588 101.668 52.0706 101.764 52.5207 101.951C52.9709 102.137 53.38 102.411 53.7244 102.755C54.0689 103.1 54.3421 103.509 54.5284 103.959C54.7146 104.41 54.8105 104.892 54.8102 105.38H77.0711C77.0709 104.892 77.1665 104.409 77.353 103.959C77.5394 103.508 77.8129 103.099 78.1576 102.755C78.5023 102.41 78.9114 102.136 79.3618 101.95C79.8123 101.763 80.2952 101.668 80.7827 101.668V37.3563C80.2954 37.3565 79.8126 37.2607 79.3624 37.0744C78.9121 36.8881 78.5028 36.615 78.1581 36.2705C77.8135 35.926 77.5403 35.517 77.3537 35.0668C77.1672 34.6166 77.0711 34.134 77.0711 33.6467H54.8102C54.8102 34.134 54.7141 34.6166 54.5276 35.0668C54.341 35.517 54.0676 35.926 53.7229 36.2705C53.3783 36.615 52.969 36.8881 52.5187 37.0744C52.0684 37.2607 51.5859 37.3565 51.0986 37.3563V101.67L51.1007 101.668Z" fill="#8BBE3E"/>
<path id="Vector_25" d="M65.9387 60.8557C71.4021 60.8557 75.8346 65.305 75.8346 70.7788C75.8344 72.0767 75.5781 73.3617 75.0805 74.5604C74.5828 75.759 73.8537 76.8477 72.9346 77.7641C72.0155 78.6804 70.9247 79.4064 69.7246 79.9005C68.5245 80.3947 67.2386 80.6471 65.9407 80.6436C64.643 80.6471 63.3574 80.3947 62.1574 79.9005C60.9574 79.4064 59.8668 78.6802 58.9479 77.7638C58.029 76.8474 57.2999 75.7587 56.8025 74.5601C56.3051 73.3615 56.0488 72.0766 56.0488 70.7788C56.0488 65.305 60.4815 60.8557 65.9407 60.8557H65.9387Z" fill="#CBE2A9"/>
<path id="Vector_26" d="M59.5801 70.7601C59.5801 71.1508 59.9083 71.4624 60.299 71.4562H60.9162C61.2071 72.8423 62.3293 73.9293 63.7424 73.9293C65.3841 73.9293 66.6455 72.4558 66.6455 70.7497C66.6455 69.7189 67.3459 68.9854 68.1356 68.9854C68.9253 68.9854 69.6237 69.7189 69.6237 70.7517C69.6237 71.7825 68.9253 72.514 68.1356 72.514C67.1797 72.4932 67.1797 73.9418 68.1356 73.9273C69.5279 73.9273 70.5173 72.8194 70.8144 71.4562H71.5874C72.5433 71.477 72.5433 70.0287 71.5874 70.0432H70.8122C70.5129 68.68 69.5278 67.5724 68.1397 67.5724C66.6476 67.5724 65.2366 68.6301 65.2366 70.65V70.7517C65.2366 71.7846 64.5364 72.5183 63.7467 72.5183C62.9674 72.5183 62.2837 71.8013 62.265 70.7913V70.7124C62.2941 69.7045 62.9651 68.9874 63.7444 68.9874C64.7004 69.0082 64.7004 67.5619 63.7444 67.5744C62.3334 67.5744 61.2112 68.6612 60.9182 70.0473H60.301C60.2066 70.0464 60.1131 70.0645 60.0258 70.1003C59.9384 70.136 59.8591 70.1888 59.7924 70.2555C59.7257 70.3223 59.6726 70.4016 59.6369 70.4889C59.6012 70.5763 59.5833 70.6698 59.5841 70.7642L59.5801 70.7601Z" fill="#015834"/>
<path id="Vector_27" d="M65.9392 89.301C66.9247 89.3027 67.8692 89.6954 68.5655 90.3929C69.2618 91.0903 69.6528 92.0355 69.6528 93.021C69.6528 95.0762 67.9902 96.7221 65.9412 96.7221C65.4546 96.7235 64.9726 96.6288 64.5226 96.4436C64.0726 96.2583 63.6635 95.9858 63.3189 95.6422C62.9744 95.2986 62.7011 94.8905 62.5145 94.441C62.328 93.9916 62.2319 93.5096 62.2319 93.023C62.2319 90.9698 63.8943 89.301 65.9412 89.301H65.9392Z" fill="#CBE2A9"/>
<path id="Vector_28" d="M65.9405 91.7742C66.6242 91.7742 67.1772 92.3309 67.1772 93.0147C67.1772 93.7004 66.6242 94.249 65.9405 94.249C65.7782 94.2496 65.6173 94.218 65.4672 94.1562C65.317 94.0944 65.1807 94.0035 65.0658 93.8888C64.9509 93.7741 64.8598 93.638 64.7977 93.488C64.7356 93.338 64.7038 93.177 64.7041 93.0147C64.7041 92.3309 65.2589 91.7742 65.9405 91.7742Z" fill="#015834"/>
<path id="Vector_29" d="M65.9392 44.7775C66.9247 44.7791 67.8692 45.1716 68.5655 45.869C69.2618 46.5665 69.6528 47.5117 69.6528 48.4971C69.6528 50.5503 67.9902 52.1963 65.9412 52.1963C65.4546 52.1976 64.9726 52.103 64.5226 51.9177C64.0726 51.7324 63.6635 51.4602 63.3189 51.1166C62.9744 50.773 62.7011 50.3647 62.5145 49.9152C62.328 49.4657 62.2319 48.9838 62.2319 48.4971C62.2319 46.446 63.8943 44.7775 65.9412 44.7775H65.9392Z" fill="#CBE2A9"/>
<path id="Vector_30" d="M65.9405 47.2523C66.2685 47.2523 66.5831 47.3826 66.815 47.6145C67.0468 47.8464 67.1772 48.1608 67.1772 48.4887C67.1772 48.8166 67.0468 49.1312 66.815 49.3631C66.5831 49.595 66.2685 49.7254 65.9405 49.7254C65.7782 49.7259 65.6173 49.6943 65.4672 49.6325C65.317 49.5707 65.1807 49.4799 65.0658 49.3652C64.9509 49.2504 64.8598 49.1141 64.7977 48.9641C64.7356 48.8141 64.7038 48.6533 64.7041 48.491C64.7041 47.8052 65.2589 47.2502 65.9405 47.2502V47.2523Z" fill="#015834"/>
<path id="Vector_31" d="M22.6174 49.3909L41.1837 118.681C41.5372 120.001 42.8933 120.783 44.2126 120.43L72.8849 112.747C74.2042 112.394 74.9872 111.038 74.6337 109.719L56.0674 40.428C55.7139 39.1088 54.3578 38.326 53.0385 38.6795L24.3662 46.3622C23.0469 46.7157 22.2639 48.0717 22.6174 49.3909Z" fill="#3B9C00"/>
<path id="Vector_32" d="M46.7995 71.0801C49.0217 70.4896 51.3875 70.8053 53.3771 71.9579C55.3667 73.1105 56.8172 75.0057 57.4103 77.2272C57.704 78.3243 57.7783 79.4684 57.629 80.5943C57.4797 81.7202 57.1097 82.8055 56.5402 83.7881C55.9707 84.7707 55.2131 85.6313 54.3104 86.3206C53.4077 87.0098 52.3779 87.5143 51.28 87.8048C50.184 88.1016 49.0402 88.1791 47.9142 88.0331C46.7881 87.8872 45.702 87.5206 44.7178 86.9543C43.7337 86.3879 42.8709 85.6328 42.179 84.7325C41.4871 83.8322 40.9796 82.8044 40.6856 81.7077C40.0889 79.4877 40.3975 77.1217 41.5438 75.1291C42.6901 73.1365 44.5804 71.6802 46.7995 71.0801Z" fill="#CBE2A9"/>
<path id="Vector_33" d="M43.6677 80.8929C43.757 81.2233 44.1042 81.4126 44.4325 81.3191L44.9564 81.1798C45.5154 82.2833 46.7103 82.9463 47.9011 82.6283C49.2913 82.2542 50.0227 80.7266 49.6362 79.2823C49.4035 78.4116 49.8293 77.6346 50.4964 77.4538C51.1656 77.2771 51.9201 77.7383 52.155 78.609C52.3877 79.4818 51.9636 80.2591 51.2965 80.4378C50.4861 80.6415 50.8124 81.8594 51.6167 81.6329C52.7908 81.317 53.3788 80.1574 53.3206 78.9375L53.9733 78.7628C54.7838 78.5591 54.4574 77.3394 53.6532 77.5679L52.9964 77.7445C52.4374 76.6597 51.3548 75.9469 50.1786 76.2607C48.9192 76.5995 47.9675 77.8131 48.4246 79.5192C48.4246 79.54 48.4454 79.5609 48.4454 79.5816V79.6024C48.6782 80.4753 48.252 81.2525 47.585 81.4312C46.9262 81.6078 46.1845 81.1589 45.9414 80.3089C45.9414 80.2881 45.9414 80.2633 45.9206 80.2404C45.7169 79.3822 46.122 78.6259 46.7808 78.4492C47.5913 78.2456 47.2652 77.0276 46.4609 77.2541C45.2681 77.5742 44.5657 78.7462 44.6322 79.9827L44.1126 80.122C44.032 80.1417 43.9561 80.1775 43.8897 80.2272C43.8232 80.277 43.7672 80.3396 43.7255 80.4114C43.6838 80.4832 43.6572 80.5627 43.6469 80.6451C43.6366 80.7274 43.6429 80.811 43.6657 80.8909L43.6677 80.8929Z" fill="#015834"/>
<path id="Vector_34" d="M53.8442 97.3621C54.7963 97.1103 55.8094 97.2462 56.6613 97.7401C57.5133 98.2341 58.1347 99.0457 58.3891 99.9971C58.515 100.467 58.5467 100.958 58.4827 101.44C58.4188 101.922 58.2602 102.387 58.0162 102.808C57.7722 103.229 57.4474 103.598 57.0606 103.894C56.6739 104.189 56.2327 104.405 55.7623 104.53C55.2926 104.657 54.8025 104.69 54.3199 104.628C53.8373 104.566 53.3716 104.408 52.9498 104.166C52.528 103.923 52.1583 103.6 51.8618 103.214C51.5652 102.828 51.3475 102.387 51.2215 101.917C50.966 100.966 51.0985 99.9518 51.5898 99.0978C52.0811 98.2438 52.8912 97.6196 53.8422 97.3621H53.8442Z" fill="#CBE2A9"/>
<path id="Vector_35" d="M54.4822 99.7521C54.6394 99.71 54.8034 99.6993 54.9647 99.7206C55.1261 99.7419 55.2815 99.7947 55.4224 99.8761C55.5633 99.9576 55.6867 100.066 55.7856 100.195C55.8846 100.324 55.9573 100.472 55.9992 100.629C56.0413 100.786 56.0519 100.949 56.0307 101.11C56.0095 101.271 55.9567 101.426 55.8754 101.566C55.7942 101.706 55.686 101.829 55.5571 101.928C55.4282 102.026 55.2811 102.098 55.1243 102.14C54.9677 102.182 54.8041 102.194 54.6431 102.173C54.482 102.153 54.3265 102.1 54.1857 102.019C54.0449 101.939 53.9216 101.83 53.8227 101.702C53.7238 101.573 53.6513 101.426 53.6093 101.269C53.5242 100.952 53.5682 100.614 53.7319 100.33C53.8955 100.046 54.1655 99.8377 54.4822 99.7521Z" fill="#015834"/>
<path id="Vector_36" d="M42.3192 54.3553C43.2713 54.1028 44.2847 54.2382 45.1371 54.7318C45.9895 55.2254 46.6113 56.037 46.8661 56.9885C46.9923 57.4587 47.0243 57.9493 46.9605 58.4319C46.8967 58.9146 46.7383 59.3797 46.4942 59.801C46.2502 60.2223 45.9253 60.5913 45.5384 60.8867C45.1515 61.1822 44.71 61.3985 44.2393 61.523C43.7696 61.6503 43.2795 61.6836 42.7969 61.6211C42.3143 61.5587 41.8488 61.4016 41.427 61.1589C41.0052 60.9163 40.6353 60.5929 40.3388 60.2071C40.0422 59.8213 39.8248 59.3806 39.6987 58.9106C39.4432 57.9593 39.5752 56.9457 40.0661 56.0917C40.5569 55.2378 41.3666 54.6132 42.3172 54.3553H42.3192Z" fill="#CBE2A9"/>
<path id="Vector_37" d="M42.9593 56.7451C43.1165 56.703 43.2805 56.6924 43.4418 56.7137C43.6031 56.735 43.7586 56.788 43.8994 56.8694C44.0403 56.9509 44.164 57.0591 44.263 57.1883C44.3619 57.3175 44.4343 57.4649 44.4763 57.6221C44.518 57.7789 44.5285 57.9425 44.507 58.1033C44.4855 58.2641 44.4324 58.4191 44.351 58.5594C44.2695 58.6997 44.1613 58.8225 44.0324 58.9209C43.9034 59.0193 43.7562 59.0915 43.5993 59.133C43.4428 59.1754 43.2794 59.1865 43.1186 59.1657C42.9578 59.1449 42.8028 59.0926 42.6623 59.0117C42.5217 58.9308 42.3985 58.823 42.2998 58.6944C42.201 58.5658 42.1283 58.4188 42.0864 58.2621C42.0018 57.9452 42.0461 57.6078 42.2097 57.3235C42.3733 57.0392 42.6429 56.8313 42.9593 56.7451Z" fill="#015834"/>
<path id="Vector_38" d="M42.612 114.455C43.0828 114.328 43.5737 114.296 44.057 114.359C44.5402 114.423 45.0063 114.581 45.4284 114.825C45.8504 115.069 46.2203 115.393 46.5169 115.78C46.8135 116.167 47.031 116.609 47.1569 117.079L68.6614 111.317C68.4069 110.366 68.5402 109.354 69.032 108.502C69.5238 107.65 70.3338 107.028 71.2839 106.774L54.6381 44.6525C54.1675 44.7785 53.6767 44.8106 53.1937 44.7469C52.7107 44.6832 52.2449 44.5248 51.8231 44.2811C51.4012 44.0374 51.0315 43.7129 50.735 43.3263C50.4386 42.9396 50.2212 42.4986 50.0953 42.028L28.591 47.7905C28.8456 48.7407 28.7122 49.7531 28.2204 50.605C27.7286 51.457 26.9184 52.0786 25.9683 52.3333L42.6141 114.455H42.612Z" fill="#8BBE3E"/>
<path id="Vector_39" d="M46.3836 71.192C51.6599 69.7789 57.0944 72.9294 58.5116 78.2161C58.8477 79.47 58.9329 80.778 58.7625 82.0649C58.5921 83.3518 58.1696 84.5924 57.5187 85.7156C56.8679 86.8388 56.0018 87.8225 54.9701 88.6103C53.9383 89.3981 52.7613 89.9746 51.5063 90.3066C50.2536 90.6461 48.946 90.7349 47.6588 90.5682C46.3716 90.4014 45.13 89.9823 44.0051 89.3348C42.8802 88.6873 41.894 87.8243 41.1033 86.795C40.3126 85.7657 39.7328 84.5904 39.3971 83.3366C37.9798 78.0498 41.1114 72.6052 46.3836 71.192Z" fill="#CBE2A9"/>
<path id="Vector_40" d="M42.8055 82.4057C42.9094 82.7818 43.3041 82.9979 43.6782 82.892L44.2768 82.7319C44.9169 83.9954 46.2822 84.7518 47.6434 84.3882C49.2311 83.9621 50.0685 82.2145 49.6259 80.5645C49.3599 79.5691 49.8462 78.6817 50.6109 78.4759C51.3736 78.2723 52.236 78.7981 52.5041 79.7956C52.7701 80.7931 52.2858 81.6804 51.5231 81.8841C50.5963 82.1189 50.9683 83.5112 51.8889 83.2494C53.2314 82.8899 53.9047 81.5639 53.8362 80.1695L54.5843 79.9701C55.509 79.7374 55.137 78.345 54.2164 78.6048L53.4683 78.8065C52.8283 77.5679 51.5896 76.7532 50.2471 77.1127C48.807 77.4971 47.7182 78.8853 48.2398 80.8367C48.2398 80.8575 48.2606 80.8823 48.2606 80.9052V80.9323C48.5287 81.9298 48.0403 82.8172 47.2776 83.0208C46.5253 83.2224 45.6773 82.709 45.3989 81.7385C45.3989 81.7136 45.3783 81.6866 45.3783 81.6616C45.1456 80.6808 45.6109 79.8163 46.3611 79.6147C47.29 79.3799 46.9161 77.9896 45.9955 78.2494C44.6343 78.6152 43.83 79.9535 43.909 81.3666L43.3103 81.5267C43.2185 81.5498 43.1324 81.5911 43.0569 81.6482C42.9814 81.7052 42.918 81.7767 42.8707 81.8587C42.8234 81.9407 42.7933 82.0314 42.7817 82.1254C42.7701 82.2193 42.7775 82.3146 42.8035 82.4057H42.8055Z" fill="#015834"/>
<path id="Vector_41" d="M53.7468 98.6671C54.6995 98.4139 55.7135 98.5494 56.5664 99.0435C57.4194 99.5376 58.0414 100.35 58.2958 101.302C58.4219 101.772 58.4539 102.263 58.3901 102.746C58.3263 103.228 58.1679 103.694 57.9239 104.115C57.6798 104.536 57.3549 104.905 56.968 105.201C56.5811 105.496 56.1396 105.712 55.6689 105.837C55.199 105.964 54.7084 105.998 54.2255 105.935C53.7426 105.873 53.2767 105.716 52.8546 105.473C52.4326 105.23 52.0627 104.906 51.7661 104.52C51.4695 104.134 51.2521 103.693 51.1263 103.222C50.8708 102.271 51.0031 101.257 51.4944 100.403C51.9857 99.549 52.7958 98.9245 53.7468 98.6671Z" fill="#CBE2A9"/>
<path id="Vector_42" d="M54.3886 101.057C54.5459 101.015 54.7099 101.004 54.8713 101.026C55.0328 101.047 55.1886 101.1 55.3295 101.182C55.4704 101.263 55.5939 101.372 55.6927 101.501C55.7916 101.631 55.8638 101.778 55.9056 101.936C55.9473 102.093 55.9578 102.256 55.9363 102.417C55.9148 102.578 55.8617 102.733 55.7803 102.873C55.6988 103.013 55.5906 103.136 55.4616 103.235C55.3327 103.333 55.1855 103.405 55.0286 103.447C54.8718 103.489 54.7083 103.501 54.5471 103.48C54.386 103.459 54.2303 103.407 54.0895 103.325C53.9487 103.244 53.8253 103.136 53.7265 103.007C53.6277 102.878 53.5554 102.731 53.5137 102.574C53.4291 102.257 53.4734 101.919 53.6369 101.635C53.8005 101.351 54.0701 101.143 54.3866 101.057H54.3886Z" fill="#015834"/>
<path id="Vector_43" d="M42.2229 55.6602C43.1752 55.4077 44.1888 55.5434 45.0412 56.0374C45.8937 56.5315 46.5154 57.3433 46.7698 58.2952C46.8959 58.7654 46.928 59.256 46.8642 59.7386C46.8003 60.2212 46.6419 60.6867 46.3979 61.1079C46.1539 61.5292 45.829 61.8982 45.4421 62.1937C45.0551 62.4892 44.6136 62.7052 44.143 62.8297C43.6732 62.9569 43.183 62.9904 42.7003 62.9278C42.2176 62.8653 41.752 62.708 41.3302 62.4651C40.9084 62.2223 40.5384 61.8986 40.2419 61.5126C39.9454 61.1265 39.7282 60.6857 39.6024 60.2155C39.3469 59.264 39.4792 58.2499 39.9705 57.3959C40.4618 56.5419 41.2719 55.9177 42.2229 55.6602Z" fill="#CBE2A9"/>
<path id="Vector_44" d="M42.8633 58.0502C43.1811 57.9659 43.5193 58.011 43.8037 58.1758C44.0882 58.3406 44.2955 58.6116 44.3803 58.9292C44.4221 59.0859 44.4326 59.2492 44.4113 59.4099C44.3899 59.5707 44.337 59.7255 44.2558 59.8658C44.1745 60.0061 44.0667 60.129 43.9379 60.2276C43.8092 60.3261 43.6623 60.3984 43.5056 60.4401C43.3489 60.4828 43.1851 60.4939 43.0239 60.4731C42.8628 60.4523 42.7073 60.4 42.5665 60.3189C42.4257 60.2378 42.3024 60.1295 42.2035 60.0005C42.1047 59.8715 42.0324 59.7243 41.9907 59.5672C41.9055 59.2503 41.9496 58.9125 42.1132 58.6281C42.2769 58.3437 42.5466 58.1359 42.8633 58.0502Z" fill="#015834"/>
<path id="Vector_45" d="M30.7041 82.2644C30.0078 82.263 29.318 82.3991 28.6744 82.665C28.0309 82.9308 27.4464 83.321 26.954 83.8134C26.4617 84.3057 26.0712 84.8905 25.8054 85.5341C25.5395 86.1776 25.4034 86.8674 25.4048 87.5637V118.69C37.1101 127.933 51.583 132.973 66.4977 133C80.93 132.977 94.9632 128.26 106.479 119.561V87.5678C106.48 86.8713 106.344 86.1816 106.078 85.5379C105.812 84.8942 105.421 84.3093 104.929 83.8169C104.436 83.3245 103.851 82.9342 103.208 82.6685C102.564 82.4028 101.874 82.2668 101.177 82.2685H30.7041V82.2644Z" fill="#4B414C"/>
<path id="Vector_46" opacity="0.15" d="M34.1998 124.602C44.077 130.101 55.1931 132.992 66.498 133C77.7682 132.975 88.8469 130.086 98.6942 124.604H34.1978L34.1998 124.602Z" fill="#1F2128"/>
<path id="Vector_47" fill-rule="evenodd" clip-rule="evenodd" d="M76.3134 106.069L72.5435 109.841V117.383L76.3134 121.152H104.254C105.006 120.637 105.747 120.106 106.477 119.561V106.069H76.3134Z" fill="#EC4A2C"/>
<path id="Vector_48" d="M79.139 116.439C80.7011 116.439 81.9673 115.173 81.9673 113.611C81.9673 112.049 80.7011 110.783 79.139 110.783C77.577 110.783 76.3105 112.049 76.3105 113.611C76.3105 115.173 77.577 116.439 79.139 116.439Z" fill="#FFCD00"/>
<path id="Vector_49" d="M31.7226 85.4897C29.8024 85.4897 28.2168 87.0754 28.2168 88.9956V98.1394C28.2168 98.4673 28.3472 98.7817 28.579 99.0135C28.8109 99.2454 29.1253 99.3758 29.4532 99.3758C29.7812 99.3758 30.0958 99.2454 30.3276 99.0135C30.5595 98.7817 30.6896 98.4673 30.6896 98.1394V88.9956C30.6896 88.4012 31.1303 87.9626 31.7246 87.9626H82.9025C83.2305 87.9626 83.5451 87.8325 83.777 87.6006C84.0088 87.3687 84.1392 87.0541 84.1392 86.7262C84.1392 86.3982 84.0088 86.0839 83.777 85.852C83.5451 85.6201 83.2305 85.4897 82.9025 85.4897H31.7226Z" fill="#85797D"/>
</g>
</g>
<defs>
<clipPath id="clip0_1382_24571">
<rect width="133" height="133" fill="white"/>
</clipPath>
</defs>
</svg>
