<svg width="49" height="48" viewBox="0 0 49 48" fill="none" xmlns="http://www.w3.org/2000/svg">
<circle cx="24.5" cy="24" r="24" fill="#FBFDFF"/>
<g clip-path="url(#clip0_1262_4371)">
<path d="M24.7773 29.6484C24.001 28.2761 23.6983 26.6862 23.916 25.1245C24.1338 23.5629 24.8599 22.1165 25.9821 21.0089C27.1043 19.9013 28.5601 19.1942 30.1245 18.9968C31.6888 18.7995 33.2746 19.123 34.6367 19.9173C35.9988 20.7115 37.0613 21.9324 37.66 23.391C38.2588 24.8496 38.3603 26.4649 37.949 27.9871C37.5378 29.5092 36.6365 30.8535 35.3847 31.8122C34.1328 32.7708 32.6001 33.2904 31.0233 33.2906C29.7523 33.294 28.5035 32.9582 27.4055 32.318C26.3076 31.6778 25.4003 30.7562 24.7773 29.6484Z" fill="#4399FD" fill-opacity="0.4"/>
<path d="M27.6006 18.5075C28.4011 18.5063 29.1917 18.6841 29.9147 19.0278C28.7692 19.2075 27.6842 19.6622 26.7527 20.3528C25.8212 21.0434 25.071 21.9494 24.5661 22.9933C24.0612 24.0372 23.8167 25.1879 23.8536 26.3469C23.8905 27.5059 24.2077 28.6387 24.778 29.6483H14.383C13.9114 29.648 13.4445 29.5546 13.0091 29.3734C12.5738 29.1922 12.1785 28.9268 11.846 28.5924C11.5134 28.258 11.2503 27.8612 11.0715 27.4248C10.8928 26.9884 10.802 26.521 10.8043 26.0495C10.8042 26.0448 10.8044 26.0401 10.8049 26.0354L10.8105 25.8464C10.8145 23.5874 12.3551 21.6625 14.4707 21.176V21.1743C14.471 19.6915 14.9809 18.2538 15.915 17.1022C16.849 15.9506 18.1504 15.1549 19.6012 14.8485C21.052 14.5422 22.5641 14.7437 23.884 15.4193C25.2039 16.095 26.2515 17.2037 26.8513 18.5598C27.0996 18.5249 27.3499 18.5074 27.6006 18.5075Z" fill="#4399FD"/>
<path d="M31.0238 18.3799C30.6817 18.3803 30.3399 18.4033 30.0007 18.4486C29.2447 18.1145 28.427 17.9429 27.6005 17.945C27.4628 17.945 27.3248 17.9498 27.1874 17.9594C26.5958 16.8112 25.6995 15.8481 24.5968 15.1755C23.4941 14.503 22.2276 14.147 20.936 14.1465C17.2055 14.1465 14.1446 17.068 13.9211 20.7446C12.928 21.0676 12.053 21.6779 11.4068 22.4983C10.6598 23.4514 10.252 24.6264 10.248 25.8373L10.243 26.0061C10.242 26.0226 10.2418 26.0363 10.2418 26.0465C10.2395 26.5909 10.345 27.1304 10.5523 27.6339C10.7595 28.1374 11.0645 28.5948 11.4495 28.9798C11.8345 29.3647 12.2919 29.6697 12.7954 29.8769C13.2989 30.0842 13.8384 30.1897 14.3828 30.1873H24.4593C25.8685 32.4935 28.3533 33.8413 31.0237 33.8413C35.2897 33.8413 38.7603 30.3766 38.7603 26.1106C38.7603 21.8446 35.2898 18.3799 31.0238 18.3799ZM12.2447 28.1841C11.9646 27.9052 11.7427 27.5734 11.592 27.208C11.4412 26.8425 11.3647 26.4508 11.3667 26.0555C11.3667 26.0525 11.367 26.0524 11.3671 26.0494L11.3727 25.8618C11.3727 25.8566 11.3727 25.852 11.3727 25.8468C11.3741 24.8851 11.6971 23.9515 12.2901 23.1945C12.8697 22.4568 13.683 21.9382 14.5964 21.724C14.7205 21.6952 14.8312 21.6251 14.9105 21.5253C14.9897 21.4254 15.0328 21.3017 15.0328 21.1742C15.0331 19.8204 15.4987 18.5078 16.3515 17.4564C17.2043 16.405 18.3926 15.6785 19.7172 15.3988C21.0418 15.1192 22.4223 15.3032 23.6274 15.9201C24.8325 16.537 25.789 17.5493 26.3366 18.7874C26.3862 18.8993 26.4709 18.992 26.5779 19.0514C26.6848 19.1108 26.8083 19.1338 26.9295 19.1168C27.1517 19.0857 27.3758 19.07 27.6002 19.07C27.6729 19.07 27.7451 19.0721 27.8171 19.0752C26.468 19.6898 25.3238 20.679 24.5207 21.9252C23.7176 23.1714 23.2895 24.6221 23.2872 26.1047C23.284 27.1203 23.4853 28.1262 23.8792 29.0623H14.3828C13.9859 29.0655 13.5924 28.9895 13.2253 28.8387C12.8581 28.6879 12.5247 28.4654 12.2447 28.1841ZM31.0238 32.7281C29.7162 32.7281 28.4379 32.3403 27.3506 31.6138C26.2633 30.8874 25.4159 29.8548 24.9155 28.6466C24.4151 27.4385 24.2841 26.1091 24.5393 24.8266C24.7944 23.5441 25.4241 22.366 26.3487 21.4414C27.2734 20.5167 28.4514 19.887 29.734 19.6319C31.0165 19.3768 32.3459 19.5077 33.554 20.0081C34.7621 20.5086 35.7947 21.356 36.5212 22.4433C37.2477 23.5305 37.6355 24.8088 37.6355 26.1165C37.6308 27.8686 36.9327 29.5475 35.6938 30.7865C34.4549 32.0254 32.7759 32.7234 31.0238 32.7281Z" fill="#064997"/>
<path d="M31.3886 23.1126C31.2836 23.011 31.1433 22.9541 30.9971 22.9541C30.851 22.9541 30.7106 23.011 30.6057 23.1126L28.4598 25.1923C28.4067 25.2437 28.3643 25.305 28.3349 25.3728C28.3056 25.4406 28.2899 25.5135 28.2887 25.5874C28.2876 25.6612 28.301 25.7346 28.3282 25.8033C28.3554 25.872 28.3958 25.9346 28.4472 25.9877C28.4972 26.0407 28.5573 26.0831 28.6239 26.1125C28.6906 26.1418 28.7624 26.1576 28.8353 26.1587C28.9081 26.1599 28.9804 26.1465 29.0479 26.1193C29.1155 26.092 29.1769 26.0516 29.2286 26.0002L30.4065 24.845V28.7163C30.4065 28.8655 30.4658 29.0086 30.5713 29.1141C30.6768 29.2196 30.8198 29.2788 30.969 29.2788C31.1182 29.2788 31.2613 29.2196 31.3668 29.1141C31.4723 29.0086 31.5315 28.8655 31.5315 28.7163V24.845L32.7376 26.0001C32.8451 26.1021 32.9878 26.1589 33.136 26.1586C33.2119 26.1588 33.2871 26.1437 33.3571 26.1143C33.4271 26.0849 33.4905 26.0418 33.5436 25.9876C33.5951 25.9346 33.6357 25.8721 33.663 25.8035C33.6904 25.7348 33.7039 25.6615 33.7029 25.5876C33.7019 25.5138 33.6864 25.4408 33.6572 25.373C33.628 25.3051 33.5857 25.2437 33.5328 25.1922L31.3886 23.1126Z" fill="#064997"/>
</g>
<defs>
<clipPath id="clip0_1262_4371">
<rect width="28.8" height="28.8" fill="white" transform="translate(10.1 9.6001)"/>
</clipPath>
</defs>
</svg>
