<svg width="16" height="26" viewBox="0 0 16 26" fill="none" xmlns="http://www.w3.org/2000/svg">
<g opacity="0.5">
<path d="M0 22.9432H15.386V11.8071H0V22.9432ZM3.94924 15.0748H11.4418V19.6705H3.94924V15.0748Z" fill="#010F1E"/>
<path d="M3.12227 23.5352H1.54858V25.0587H3.12227V23.5352Z" fill="#010F1E"/>
<path d="M13.8374 23.5352H12.2637V25.0587H13.8374V23.5352Z" fill="#010F1E"/>
<path d="M0 7.81299V11.1207H15.386V7.81299H0ZM2.33546 10.1535H0.887076V8.78526H2.33546V10.1535ZM5.14704 10.1535H3.69865V8.78526H5.14704V10.1535ZM7.95361 10.1535H6.50522V8.78526H7.95361V10.1535Z" fill="#010F1E"/>
<path d="M1.57874 5.23718L3.39299 5.6732C3.78891 6.25957 4.30011 6.76074 4.89651 7.14163H10.4896C11.086 6.76074 11.5972 6.25957 11.9931 5.6732L13.8074 5.23718C14.088 5.16701 14.2634 4.88636 14.1933 4.6057C14.1231 4.32504 13.8424 4.14963 13.5618 4.2198L12.6045 4.45034C12.7248 4.10453 12.805 3.73867 12.8451 3.36279H2.54099C2.58109 3.73867 2.66629 4.10453 2.78156 4.45034L1.82432 4.2198C1.54366 4.14963 1.25799 4.32504 1.19284 4.6057C1.12268 4.88636 1.29809 5.17203 1.57874 5.23718Z" fill="#010F1E"/>
<path d="M8.52991 0.977287C8.52991 0.967263 8.52991 0.952228 8.52991 0.942205C8.52991 0.420985 8.15403 0 7.69295 0C7.23187 0 6.85599 0.420985 6.85599 0.947216C6.85599 0.957239 6.85599 0.972275 6.85599 0.982299C4.88638 1.14267 3.25757 1.86436 2.54089 2.84165H12.84C12.1283 1.86436 10.4995 1.14267 8.52991 0.977287Z" fill="#010F1E"/>
</g>
</svg>
