<svg width="18" height="19" viewBox="0 0 18 19" fill="none" xmlns="http://www.w3.org/2000/svg">
<g opacity="0.5">
<path d="M4.80004 5.75C4.54504 6.1625 4.50004 6.4775 4.50004 6.785C4.50004 7.3625 5.25004 8.75 5.25004 9.5C5.25004 10.2125 4.95004 10.625 4.95004 10.625H3.82504C3.82504 10.625 4.12504 10.2125 4.12504 9.5C4.12504 8.75 3.37504 7.3625 3.37504 6.785C3.37504 6.4775 3.42004 6.1625 3.67504 5.75H4.80004ZM8.55004 5.75C8.29504 6.1625 8.25004 6.4775 8.25004 6.785C8.25004 7.3625 9.00004 8.75 9.00004 9.5C9.00004 10.2125 8.70004 10.625 8.70004 10.625H9.82504C9.82504 10.625 10.125 10.2125 10.125 9.5C10.125 8.75 9.37504 7.3625 9.37504 6.785C9.37504 6.4775 9.42004 6.1625 9.67504 5.75H8.55004ZM6.11254 5.75C5.85754 6.1625 5.81254 6.4775 5.81254 6.785C5.81254 7.3625 6.56254 8.7575 6.56254 9.5C6.56254 10.2125 6.26254 10.625 6.26254 10.625H7.38754C7.38754 10.625 7.68754 10.2125 7.68754 9.5C7.68754 8.75 6.93754 7.3625 6.93754 6.785C6.93754 6.4775 6.98254 6.1625 7.23754 5.75H6.11254ZM16.1025 5.375C16.1025 5.375 16.2 4.58 16.2 4.25C16.2 3.0125 15.1875 2 13.95 2C12.795 2 11.8425 2.87 11.715 3.9875L10.8975 11.75H3.00754C2.55754 11.75 2.19004 12.1475 2.25754 12.5975C2.64754 15.095 4.79254 17 7.31254 17C9.92254 17 12.0675 14.9525 12.345 12.3275L13.2075 4.175C13.245 3.7925 13.56 3.5 13.95 3.5C14.3625 3.5 14.7 3.8375 14.7 4.25C14.7 4.475 14.625 5.1875 14.625 5.1875L16.1025 5.375Z" fill="#010F1E"/>
</g>
</svg>
