<svg width="34" height="36" viewBox="0 0 34 36" fill="none" xmlns="http://www.w3.org/2000/svg">
<g id="Group">
<path id="Vector" d="M22.2293 25.9196C22.293 25.7939 22.3768 25.6567 22.4789 25.5098C22.7649 25.3399 23.0381 25.1371 23.25 24.9409C25.8176 22.978 27.291 19.9976 27.291 16.7643C27.291 11.025 22.6253 6.35486 16.8906 6.35486C11.1526 6.35486 6.48389 11.0244 6.48389 16.7643C6.48389 20.0022 7.94532 22.982 10.4842 24.9326L10.7154 25.1172C10.7948 25.2015 11.0968 25.5338 11.3019 25.9397C11.3426 26.0127 11.3754 26.0896 11.4003 26.1663C11.4215 26.2325 11.4543 26.4431 11.4751 26.845H11.032C10.6962 26.845 10.4248 27.1123 10.4248 27.4419V30.9573C10.4248 31.2869 10.6962 31.5541 11.032 31.5541H12.7355C12.7409 31.5541 12.7453 31.5571 12.7501 31.5571C12.7664 31.5571 12.7835 31.5552 12.7992 31.5541H20.9779C20.9936 31.5552 21.0093 31.5571 21.0253 31.5571C21.0307 31.5571 21.035 31.5541 21.0399 31.5541H22.7435C23.0793 31.5541 23.3506 31.2869 23.3506 30.9573V27.4419C23.3506 27.1123 23.0793 26.845 22.7435 26.845H22.0385C22.0512 26.5474 22.0797 26.2913 22.1211 26.1639C22.1455 26.088 22.1778 26.0121 22.2293 25.9191L22.2293 25.9196ZM16.2775 26.8455V20.0475C16.2775 19.8908 16.2143 19.7409 16.1032 19.6293L12.4986 16.0265C12.3851 15.9124 12.3219 15.7587 12.3249 15.5956C12.3249 15.434 12.3856 15.2915 12.5021 15.179C12.7141 14.9738 13.1529 14.9743 13.3614 15.1844L16.4518 18.2759C16.5659 18.3901 16.7215 18.4546 16.8847 18.4546C17.0481 18.4546 17.2034 18.3903 17.3175 18.2759L20.216 15.3793C20.4315 15.1679 20.8627 15.16 21.0812 15.3725C21.3205 15.6013 21.3235 15.9802 21.0915 16.2152L17.6666 19.6293C17.5544 19.741 17.4918 19.8917 17.4918 20.0483V26.8464H16.2775L16.2775 26.8455Z" fill="#064997"/>
<path id="Vector_2" d="M20.3761 32.1514H13.3999C13.179 32.1514 12.9754 32.2698 12.8681 32.4598C12.7613 32.6498 12.7686 32.8824 12.8862 33.0664C13.7484 34.4105 15.2448 35.2131 16.8909 35.2131C18.5326 35.2131 20.0274 34.4106 20.8888 33.0662C21.0067 32.8822 21.0137 32.6496 20.907 32.4596C20.8002 32.2696 20.5969 32.1514 20.3757 32.1514L20.3761 32.1514Z" fill="#064997"/>
<path id="Vector_3" d="M16.8886 4.50839C17.2245 4.50839 17.4958 4.24114 17.4958 3.91155V0.596719C17.4958 0.26713 17.2245 -0.00012207 16.8886 -0.00012207C16.5528 -0.00012207 16.2815 0.26713 16.2815 0.596719V3.91155C16.2815 4.24087 16.5534 4.50839 16.8886 4.50839Z" fill="#064997"/>
<path id="Vector_4" d="M25.5941 7.83389C25.7689 7.83389 25.9426 7.76044 26.0622 7.61787L28.1974 5.07872C28.4118 4.8242 28.3747 4.448 28.1161 4.23851C27.857 4.02845 27.4743 4.06477 27.2618 4.31792L25.1265 6.85707C24.9121 7.11077 24.9493 7.48779 25.2079 7.69728C25.3214 7.78889 25.4586 7.83389 25.5941 7.83389H25.5941Z" fill="#064997"/>
<path id="Vector_5" d="M33.2864 13.7778L30.0163 14.3527C29.6859 14.4109 29.4663 14.7205 29.5252 15.0454C29.578 15.3344 29.8336 15.5371 30.122 15.5371C30.1578 15.5371 30.193 15.5347 30.2293 15.5279L33.4995 14.953C33.8299 14.8953 34.0494 14.5852 33.9906 14.2602C33.9318 13.9361 33.6174 13.72 33.2865 13.7778L33.2864 13.7778Z" fill="#064997"/>
<path id="Vector_6" d="M30.9112 25.2786L28.0376 23.6193C27.7481 23.4529 27.3757 23.5469 27.2063 23.8318C27.0369 24.1158 27.1334 24.4815 27.4218 24.6485L30.2954 26.3078C30.3919 26.3636 30.4981 26.3897 30.6025 26.3897C30.8107 26.3897 31.0134 26.2845 31.1264 26.0953C31.2966 25.8115 31.2001 25.4456 30.9112 25.2786H30.9112Z" fill="#064997"/>
<path id="Vector_7" d="M5.64038 23.6209L2.76435 25.2772C2.47487 25.4437 2.37811 25.809 2.54751 26.0939C2.66108 26.2839 2.86382 26.3891 3.07198 26.3891C3.17633 26.3891 3.28204 26.3631 3.37854 26.3072L6.25456 24.6509C6.54404 24.4845 6.6408 24.1191 6.4714 23.8342C6.30173 23.5493 5.93012 23.4534 5.64035 23.6209H5.64038Z" fill="#064997"/>
<path id="Vector_8" d="M3.87863 15.5394C4.16701 15.5394 4.42261 15.3372 4.47547 15.0483C4.5351 14.7235 4.31528 14.4137 3.98488 14.3549L0.714732 13.7771C0.384331 13.7174 0.0693763 13.9348 0.00975882 14.2584C-0.0498711 14.5831 0.169946 14.8929 0.500347 14.9518L3.77049 15.5304C3.80709 15.5364 3.84286 15.5394 3.87864 15.5394H3.87863Z" fill="#064997"/>
<path id="Vector_9" d="M7.60957 7.33503C7.72911 7.47841 7.90284 7.55241 8.07821 7.55241C8.21427 7.55241 8.35088 7.50741 8.46363 7.4158C8.72275 7.20628 8.75934 6.8298 8.5463 6.57559L6.41535 4.03345C6.20285 3.7803 5.81905 3.74262 5.56105 3.95268C5.30193 4.16219 5.26535 4.53867 5.47839 4.79289L7.60957 7.33503Z" fill="#064997"/>
</g>
</svg>
