<svg width="24" height="25" viewBox="0 0 24 25" fill="none" xmlns="http://www.w3.org/2000/svg">
<g id="Group">
<path id="Vector" d="M15.6914 18.2968C15.7363 18.208 15.7954 18.1112 15.8676 18.0075C16.0694 17.8875 16.2623 17.7444 16.4119 17.6059C18.2243 16.2203 19.2643 14.1165 19.2643 11.8342C19.2643 7.78287 15.9709 4.48633 11.9228 4.48633C7.87251 4.48633 4.57695 7.78248 4.57695 11.8342C4.57695 14.1197 5.60855 16.2232 7.4007 17.6L7.5639 17.7303C7.61995 17.7898 7.83309 18.0244 7.97792 18.311C8.00662 18.3624 8.02977 18.4168 8.04737 18.4709C8.0623 18.5176 8.08545 18.6662 8.10018 18.95H7.78736C7.55031 18.95 7.3588 19.1386 7.3588 19.3713V21.8528C7.3588 22.0854 7.55031 22.2741 7.78736 22.2741H8.98985C8.99368 22.2741 8.99674 22.2762 9.00018 22.2762C9.01166 22.2762 9.02372 22.2748 9.03481 22.2741H14.808C14.8191 22.2748 14.8302 22.2762 14.8415 22.2762C14.8453 22.2762 14.8484 22.2741 14.8518 22.2741H16.0543C16.2913 22.2741 16.4829 22.0854 16.4829 21.8528V19.3713C16.4829 19.1386 16.2913 18.95 16.0543 18.95H15.5567C15.5657 18.7399 15.5857 18.5591 15.615 18.4692C15.6322 18.4156 15.655 18.362 15.6914 18.2964L15.6914 18.2968ZM11.4901 18.9503V14.1517C11.4901 14.0411 11.4455 13.9353 11.3671 13.8565L8.82264 11.3134C8.74248 11.2328 8.6979 11.1244 8.7 11.0092C8.7 10.8952 8.74286 10.7945 8.82513 10.7151C8.97475 10.5703 9.2845 10.5707 9.43164 10.7189L11.6131 12.9012C11.6937 12.9818 11.8035 13.0273 11.9187 13.0273C12.034 13.0273 12.1437 12.982 12.2242 12.9012L14.2702 10.8565C14.4223 10.7073 14.7267 10.7017 14.8809 10.8517C15.0499 11.0132 15.052 11.2807 14.8882 11.4466L12.4707 13.8565C12.3914 13.9353 12.3472 14.0417 12.3472 14.1523V18.9509H11.4901L11.4901 18.9503Z" fill="#064997"/>
<path id="Vector_2" d="M14.3831 22.6953H9.45871C9.30278 22.6953 9.15909 22.7789 9.08333 22.913C9.00794 23.0472 9.01311 23.2113 9.09614 23.3412C9.70476 24.29 10.761 24.8565 11.923 24.8565C13.0818 24.8565 14.137 24.2901 14.745 23.3411C14.8282 23.2112 14.8332 23.047 14.7578 22.9129C14.6824 22.7788 14.539 22.6954 14.3828 22.6954L14.3831 22.6953Z" fill="#064997"/>
<path id="Vector_3" d="M11.9215 3.18248C12.1585 3.18248 12.35 2.99383 12.35 2.76118V0.421299C12.35 0.188648 12.1585 0 11.9215 0C11.6844 0 11.4929 0.188648 11.4929 0.421299V2.76118C11.4929 2.99364 11.6848 3.18248 11.9215 3.18248Z" fill="#064997"/>
<path id="Vector_4" d="M18.0663 5.53041C18.1897 5.53041 18.3123 5.47856 18.3967 5.37792L19.9039 3.58558C20.0553 3.40592 20.0291 3.14037 19.8465 2.99249C19.6636 2.84422 19.3935 2.86985 19.2435 3.04855L17.7363 4.84089C17.5849 5.01997 17.6111 5.2861 17.7937 5.43398C17.8738 5.49865 17.9706 5.53041 18.0663 5.53041H18.0663Z" fill="#064997"/>
<path id="Vector_5" d="M23.4962 9.72583L21.1879 10.1316C20.9547 10.1728 20.7997 10.3913 20.8412 10.6207C20.8785 10.8246 21.0589 10.9677 21.2625 10.9677C21.2878 10.9677 21.3126 10.966 21.3383 10.9612L23.6466 10.5554C23.8798 10.5147 24.0348 10.2958 23.9933 10.0664C23.9518 9.83756 23.7298 9.68507 23.4962 9.72583L23.4962 9.72583Z" fill="#064997"/>
<path id="Vector_6" d="M21.8197 17.844L19.7912 16.6728C19.5869 16.5553 19.324 16.6217 19.2045 16.8228C19.0849 17.0233 19.153 17.2814 19.3566 17.3992L21.385 18.5705C21.4531 18.6099 21.5281 18.6283 21.6018 18.6283C21.7487 18.6283 21.8918 18.5541 21.9716 18.4205C22.0917 18.2202 22.0236 17.9619 21.8197 17.844H21.8197Z" fill="#064997"/>
<path id="Vector_7" d="M3.98146 16.6744L1.95133 17.8436C1.74699 17.9611 1.67869 18.219 1.79827 18.4201C1.87843 18.5542 2.02154 18.6284 2.16848 18.6284C2.24214 18.6284 2.31676 18.6101 2.38487 18.5706L4.41501 17.4015C4.61935 17.284 4.68765 17.0261 4.56807 16.825C4.4483 16.6239 4.18599 16.5562 3.98145 16.6744H3.98146Z" fill="#064997"/>
<path id="Vector_8" d="M2.73785 10.9692C2.94142 10.9692 3.12184 10.8265 3.15915 10.6225C3.20124 10.3933 3.04608 10.1746 2.81286 10.1331L0.504517 9.72522C0.271293 9.68312 0.0489715 9.83656 0.00688858 10.065C-0.0352031 10.2942 0.119962 10.5129 0.353186 10.5544L2.66153 10.9629C2.68735 10.9671 2.71261 10.9692 2.73786 10.9692H2.73785Z" fill="#064997"/>
<path id="Vector_9" d="M5.37146 5.17798C5.45584 5.27919 5.57848 5.33143 5.70226 5.33143C5.79831 5.33143 5.89474 5.29967 5.97433 5.235C6.15724 5.0871 6.18306 4.82135 6.03268 4.64191L4.52848 2.84746C4.37848 2.66876 4.10757 2.64217 3.92545 2.79044C3.74254 2.93833 3.71672 3.20408 3.8671 3.38353L5.37146 5.17798Z" fill="#064997"/>
</g>
</svg>
