<svg width="153" height="45" viewBox="0 0 153 45" fill="none" xmlns="http://www.w3.org/2000/svg">
<path d="M103.632 7.09618C114.033 10.9819 82.5545 21.265 71.9178 24.3265C52.0965 30.057 56.414 31.1957 63.6753 29.1939C66.2658 28.4874 73.8803 26.4857 80.5528 24.7587C100.845 19.4992 106.262 17.497 109.833 14.1215C117.919 6.46779 94.9183 -2.36346 74.6653 0.580289C47.8183 4.50529 10.4524 19.1852 2.20994 25.3474C-1.7543 28.3304 -1.16561 30.4495 10.4916 25.504C52.4498 7.56679 86.715 0.776931 103.632 7.09618Z" fill="white"/>
<path d="M149.476 9.9219C147.003 10.8639 141.979 12.9049 136.484 15.2992C81.6911 39.1631 38.6339 48.662 40.9104 36.573C41.9309 31.0388 56.5319 19.4208 66.9331 15.7705C70.5834 14.4753 68.1499 13.1012 64.9314 13.8469C58.5336 15.3384 44.9531 22.6785 40.0469 27.8988C33.5707 34.846 35.0229 41.126 43.7364 43.9128C53.5881 47.0528 86.0086 41.0079 107.439 31.9804C113.327 29.5076 143.078 15.5743 150.967 11.6493C155.128 9.64755 151.399 9.2154 149.476 9.9219Z" fill="white"/>
</svg>
