<svg width="33" height="32" viewBox="0 0 33 32" fill="none" xmlns="http://www.w3.org/2000/svg">
<g id="vuesax/bulk/message">
<g id="message">
<path id="Vector" opacity="0.4" d="M3.16667 17.2934V9.32002C3.16667 5.64002 6.15333 2.66669 9.83333 2.66669H23.1667C26.8467 2.66669 29.8333 5.64002 29.8333 9.32002V18.6267C29.8333 22.2934 26.8467 25.2667 23.1667 25.2667H21.1667C20.7533 25.2667 20.3533 25.4667 20.1 25.8L18.1 28.4534C17.22 29.6267 15.78 29.6267 14.9 28.4534L12.9 25.8C12.6867 25.5067 12.2067 25.2667 11.8333 25.2667H9.83333C6.15333 25.2667 3.16667 22.2934 3.16667 18.6267V17.2934Z" fill="#010F1E"/>
<path id="Vector_2" d="M16.5 16C15.7533 16 15.1667 15.4 15.1667 14.6666C15.1667 13.9333 15.7667 13.3333 16.5 13.3333C17.2333 13.3333 17.8333 13.9333 17.8333 14.6666C17.8333 15.4 17.2467 16 16.5 16Z" fill="#010F1E"/>
<path id="Vector_3" d="M21.8333 16C21.0867 16 20.5 15.4 20.5 14.6666C20.5 13.9333 21.1 13.3333 21.8333 13.3333C22.5667 13.3333 23.1667 13.9333 23.1667 14.6666C23.1667 15.4 22.58 16 21.8333 16Z" fill="#010F1E"/>
<path id="Vector_4" d="M11.1667 16C10.42 16 9.83334 15.4 9.83334 14.6666C9.83334 13.9333 10.4333 13.3333 11.1667 13.3333C11.9 13.3333 12.5 13.9333 12.5 14.6666C12.5 15.4 11.9133 16 11.1667 16Z" fill="#010F1E"/>
</g>
</g>
</svg>
