<svg width="33" height="32" viewBox="0 0 33 32" fill="none" xmlns="http://www.w3.org/2000/svg">
<g id="vuesax/bulk/message-notif">
<g id="message-notif">
<path id="Vector" d="M27.1667 8.99999C29.1917 8.99999 30.8333 7.35837 30.8333 5.33332C30.8333 3.30828 29.1917 1.66666 27.1667 1.66666C25.1416 1.66666 23.5 3.30828 23.5 5.33332C23.5 7.35837 25.1416 8.99999 27.1667 8.99999Z" fill="#EB0B0B"/>
<path id="Vector_2" opacity="0.4" d="M27.1667 10.6667C24.22 10.6667 21.8333 8.27999 21.8333 5.33332C21.8333 4.35999 22.1133 3.45332 22.58 2.66666H9.83333C6.15333 2.66666 3.16667 5.63999 3.16667 9.30666V17.28V18.6133C3.16667 22.28 6.15333 25.2533 9.83333 25.2533H11.8333C12.1933 25.2533 12.6733 25.4933 12.9 25.7867L14.9 28.44C15.78 29.6133 17.22 29.6133 18.1 28.44L20.1 25.7867C20.3533 25.4533 20.7533 25.2533 21.1667 25.2533H23.1667C26.8467 25.2533 29.8333 22.28 29.8333 18.6133V9.91999C29.0467 10.3867 28.14 10.6667 27.1667 10.6667Z" fill="#010F1E"/>
<path id="Vector_3" d="M16.5 16C15.7533 16 15.1667 15.4 15.1667 14.6667C15.1667 13.9333 15.7667 13.3333 16.5 13.3333C17.2333 13.3333 17.8333 13.9333 17.8333 14.6667C17.8333 15.4 17.2467 16 16.5 16Z" fill="#010F1E"/>
<path id="Vector_4" d="M21.8333 16C21.0867 16 20.5 15.4 20.5 14.6667C20.5 13.9333 21.1 13.3333 21.8333 13.3333C22.5667 13.3333 23.1667 13.9333 23.1667 14.6667C23.1667 15.4 22.58 16 21.8333 16Z" fill="#010F1E"/>
<path id="Vector_5" d="M11.1667 16C10.42 16 9.83333 15.4 9.83333 14.6667C9.83333 13.9333 10.4333 13.3333 11.1667 13.3333C11.9 13.3333 12.5 13.9333 12.5 14.6667C12.5 15.4 11.9133 16 11.1667 16Z" fill="#010F1E"/>
</g>
</g>
</svg>
