<svg width="33" height="32" viewBox="0 0 33 32" fill="none" xmlns="http://www.w3.org/2000/svg">
<g id="vuesax/bulk/message-notif">
<g id="message-notif">
<path id="Vector" d="M27.1667 8.99984C29.1917 8.99984 30.8333 7.35821 30.8333 5.33317C30.8333 3.30813 29.1917 1.6665 27.1667 1.6665C25.1416 1.6665 23.5 3.30813 23.5 5.33317C23.5 7.35821 25.1416 8.99984 27.1667 8.99984Z" fill="#EB0B0B"/>
<path id="Vector_2" opacity="0.4" d="M27.1667 10.6665C24.22 10.6665 21.8333 8.27984 21.8333 5.33317C21.8333 4.35984 22.1133 3.45317 22.58 2.6665H9.83333C6.15333 2.6665 3.16667 5.63984 3.16667 9.3065V17.2798V18.6132C3.16667 22.2798 6.15333 25.2532 9.83333 25.2532H11.8333C12.1933 25.2532 12.6733 25.4932 12.9 25.7865L14.9 28.4398C15.78 29.6132 17.22 29.6132 18.1 28.4398L20.1 25.7865C20.3533 25.4532 20.7533 25.2532 21.1667 25.2532H23.1667C26.8467 25.2532 29.8333 22.2798 29.8333 18.6132V9.91984C29.0467 10.3865 28.14 10.6665 27.1667 10.6665Z" fill="#064997"/>
<path id="Vector_3" d="M16.5 16.0002C15.7533 16.0002 15.1667 15.4002 15.1667 14.6668C15.1667 13.9335 15.7667 13.3335 16.5 13.3335C17.2333 13.3335 17.8333 13.9335 17.8333 14.6668C17.8333 15.4002 17.2467 16.0002 16.5 16.0002Z" fill="#064997"/>
<path id="Vector_4" d="M21.8333 16.0002C21.0867 16.0002 20.5 15.4002 20.5 14.6668C20.5 13.9335 21.1 13.3335 21.8333 13.3335C22.5667 13.3335 23.1667 13.9335 23.1667 14.6668C23.1667 15.4002 22.58 16.0002 21.8333 16.0002Z" fill="#064997"/>
<path id="Vector_5" d="M11.1667 16.0002C10.42 16.0002 9.83333 15.4002 9.83333 14.6668C9.83333 13.9335 10.4333 13.3335 11.1667 13.3335C11.9 13.3335 12.5 13.9335 12.5 14.6668C12.5 15.4002 11.9133 16.0002 11.1667 16.0002Z" fill="#064997"/>
</g>
</g>
</svg>
