<svg width="34" height="34" viewBox="0 0 34 34" fill="none" xmlns="http://www.w3.org/2000/svg">
<path d="M16.9999 2.83325C9.19409 2.83325 2.83325 9.19409 2.83325 16.9999C2.83325 24.8058 9.19409 31.1666 16.9999 31.1666C24.8058 31.1666 31.1666 24.8058 31.1666 16.9999C31.1666 9.19409 24.8058 2.83325 16.9999 2.83325ZM15.9374 11.3333C15.9374 10.7524 16.4191 10.2708 16.9999 10.2708C17.5808 10.2708 18.0624 10.7524 18.0624 11.3333V18.4166C18.0624 18.9974 17.5808 19.4791 16.9999 19.4791C16.4191 19.4791 15.9374 18.9974 15.9374 18.4166V11.3333ZM18.3033 23.2049C18.2324 23.3891 18.1333 23.5308 18.0058 23.6724C17.8641 23.7999 17.7083 23.8991 17.5383 23.9699C17.3683 24.0408 17.1841 24.0833 16.9999 24.0833C16.8158 24.0833 16.6316 24.0408 16.4616 23.9699C16.2916 23.8991 16.1358 23.7999 15.9941 23.6724C15.8666 23.5308 15.7674 23.3891 15.6966 23.2049C15.6258 23.0349 15.5833 22.8508 15.5833 22.6666C15.5833 22.4824 15.6258 22.2983 15.6966 22.1283C15.7674 21.9583 15.8666 21.8024 15.9941 21.6608C16.1358 21.5333 16.2916 21.4341 16.4616 21.3633C16.8016 21.2216 17.1983 21.2216 17.5383 21.3633C17.7083 21.4341 17.8641 21.5333 18.0058 21.6608C18.1333 21.8024 18.2324 21.9583 18.3033 22.1283C18.3741 22.2983 18.4166 22.4824 18.4166 22.6666C18.4166 22.8508 18.3741 23.0349 18.3033 23.2049Z" fill="#064997"/>
</svg>
