<svg width="26" height="26" viewBox="0 0 26 26" fill="none" xmlns="http://www.w3.org/2000/svg">
<g id="vuesax/linear/notification-bing">
<g id="notification-bing">
<path id="Vector" d="M12.7712 2.125C8.86125 2.125 5.695 5.29125 5.695 9.20125V11.4325C5.695 12.155 5.3975 13.2387 5.02562 13.855L3.67625 16.1075C2.8475 17.4994 3.42125 19.0506 4.95125 19.5606C10.03 21.25 15.5231 21.25 20.6019 19.5606C22.0362 19.0825 22.6525 17.4037 21.8769 16.1075L20.5275 13.855C20.1556 13.2387 19.8581 12.1444 19.8581 11.4325V9.20125C19.8475 5.3125 16.66 2.125 12.7712 2.125Z" stroke="#010F1E" stroke-width="1.59375" stroke-miterlimit="10" stroke-linecap="round"/>
<path id="Vector_2" d="M16.2881 19.9963C16.2881 21.9407 14.6944 23.5344 12.75 23.5344C11.7831 23.5344 10.8906 23.1307 10.2531 22.4932C9.61564 21.8557 9.21189 20.9632 9.21189 19.9963" stroke="#010F1E" stroke-width="1.59375" stroke-miterlimit="10"/>
</g>
</g>
</svg>
