<svg width="26" height="30" viewBox="0 0 26 30" fill="none" xmlns="http://www.w3.org/2000/svg">
<path d="M13.0212 6.5C9.11125 6.5 5.945 9.66625 5.945 13.5762V15.8075C5.945 16.53 5.6475 17.6137 5.27562 18.23L3.92625 20.4825C3.0975 21.8744 3.67125 23.4256 5.20125 23.9356C10.28 25.625 15.7731 25.625 20.8519 23.9356C22.2862 23.4575 22.9025 21.7787 22.1269 20.4825L20.7775 18.23C20.4056 17.6137 20.1081 16.5194 20.1081 15.8075V13.5762C20.0975 9.6875 16.91 6.5 13.0212 6.5Z" stroke="#010F1E" stroke-width="1.59375" stroke-miterlimit="10" stroke-linecap="round"/>
<path d="M16.5381 24.3712C16.5381 26.3156 14.9444 27.9094 13 27.9094C12.0331 27.9094 11.1406 27.5056 10.5031 26.8681C9.86565 26.2306 9.4619 25.3381 9.4619 24.3712" stroke="#010F1E" stroke-width="1.59375" stroke-miterlimit="10"/>
<path d="M17.1767 13.6078C20.3333 13.6078 22.8922 11.0488 22.8922 7.89224C22.8922 4.73565 20.3333 2.17673 17.1767 2.17673C14.0201 2.17673 11.4612 4.73565 11.4612 7.89224C11.4612 11.0488 14.0201 13.6078 17.1767 13.6078Z" fill="#EB0B0B" stroke="#FBFDFF" stroke-width="3" stroke-linecap="round" stroke-linejoin="round"/>
</svg>
