<svg width="29" height="26" viewBox="0 0 29 26" fill="none" xmlns="http://www.w3.org/2000/svg">
<g id="Group">
<path id="Vector" d="M29 23.2297C28.1328 23.3486 27.3249 23.7374 26.6908 24.3409C26.1183 24.9203 25.3367 25.2449 24.5223 25.2414C23.7153 25.2514 22.9342 24.9565 22.3355 24.4154C21.546 23.7453 20.5441 23.3773 19.5085 23.3773C18.473 23.3773 17.4711 23.7453 16.6816 24.4154C16.0779 24.9477 15.3009 25.2414 14.4961 25.2414C13.6915 25.2414 12.9142 24.9477 12.3108 24.4154C11.5213 23.7451 10.5196 23.3773 9.48415 23.3773C8.44894 23.3773 7.44705 23.7451 6.65776 24.4154C6.0596 24.9563 5.27922 25.2514 4.47268 25.2414C3.65995 25.2438 2.88055 24.9194 2.30945 24.3413C1.67532 23.7381 0.867379 23.3498 0.000207901 23.2313V20.9906C0.613721 21.1136 1.1788 21.4102 1.62855 21.8451C2.39096 22.584 3.41298 22.9942 4.47483 22.9868C5.51244 22.999 6.5182 22.6293 7.30122 21.9482C7.90466 21.4162 8.68167 21.1225 9.4863 21.1225C10.2911 21.1225 11.0679 21.4162 11.6716 21.9482C12.461 22.6185 13.4627 22.9863 14.4982 22.9863C15.5337 22.9863 16.5356 22.6185 17.3248 21.9482C17.9285 21.416 18.7058 21.1223 19.5106 21.1223C20.3154 21.1223 21.0927 21.416 21.6964 21.9482C22.4796 22.6284 23.4851 22.9976 24.5223 22.9858C25.5839 22.9925 26.6056 22.5828 27.3685 21.8446C27.8181 21.4068 28.3846 21.1083 29 20.9854V23.2297Z" fill="#064997"/>
<path id="Vector_2" d="M27.3888 12.8891C27.5312 12.8891 27.6679 12.8326 27.7686 12.7319C27.8693 12.6312 27.9258 12.4945 27.9258 12.3521V6.44475C27.9258 6.14818 27.6854 5.90771 27.3888 5.90771C27.0922 5.90771 26.8518 6.14818 26.8518 6.44475V12.3521C26.8518 12.4945 26.9083 12.6312 27.009 12.7319C27.1097 12.8326 27.2464 12.8891 27.3888 12.8891Z" fill="#064997"/>
<path id="Vector_3" d="M27.3888 15.5745C27.5312 15.5745 27.6679 15.5179 27.7686 15.4172C27.8693 15.3165 27.9258 15.1799 27.9258 15.0374V14.5004C27.9258 14.2038 27.6854 13.9634 27.3888 13.9634C27.0922 13.9634 26.8518 14.2038 26.8518 14.5004V15.0374C26.8518 15.1799 26.9083 15.3165 27.009 15.4172C27.1097 15.5179 27.2464 15.5745 27.3888 15.5745Z" fill="#064997"/>
<path id="Vector_4" d="M29 16.1327C28.2222 16.1917 27.467 16.4204 26.7873 16.8028C26.1005 17.2013 25.316 17.4005 24.5222 17.3784C23.7172 17.3907 22.9361 17.1054 22.3283 16.5772C21.5386 15.9162 20.5379 15.5602 19.5079 15.5741C19.4461 15.5741 19.3924 15.5805 19.3334 15.5822V4.83356H29L29 16.1327ZM17.1853 2.68538C17.1853 1.44376 18.5928 0.0002161 20.4075 0.0002161H21.4815C23.3611 0.0002161 24.5352 1.3965 24.6871 3.75945H23.6231C23.5829 2.53508 23.2746 1.07428 20.9444 1.07428C18.2593 1.07428 18.2593 2.70097 18.2593 4.00857V15.7423C17.879 15.8533 17.5172 16.0194 17.1852 16.2352L17.1853 2.68538ZM10.7409 4.83352H16.1112V5.90758H10.7409V4.83352ZM10.7409 9.12978H16.1112V10.2039H10.7409V9.12978ZM16.1112 8.05572H10.7409V6.98165H16.1112V8.05572ZM10.7409 11.2779H16.1112V12.352H10.7409V11.2779ZM10.7409 13.4261H16.1112V16.9645C15.6233 17.2536 15.063 17.3972 14.4963 17.3785C13.6917 17.3907 12.9108 17.1054 12.3035 16.5772C11.8372 16.2078 11.3076 15.9256 10.7409 15.7444V13.4261ZM11.8149 0.0002161H12.889C14.7686 0.0002161 15.9427 1.3965 16.0946 3.75945H15.0306C14.9903 2.53508 14.682 1.07428 12.3519 1.07428C9.66672 1.07428 9.66672 2.70097 9.66672 4.00857V15.5827C9.60487 15.5827 9.54853 15.5741 9.48355 15.5741C9.18459 15.5731 8.88634 15.6005 8.59263 15.6556V2.68517C8.59263 1.44355 10.0002 0 11.8148 0L11.8149 0.0002161ZM7.51865 4.83352V16.0284C7.22136 16.1907 6.93583 16.3741 6.66468 16.5771C6.05788 17.1053 5.27704 17.3906 4.47266 17.3784C3.67957 17.4005 2.89605 17.201 2.21018 16.8028C1.53125 16.4208 0.776949 16.1921 0.000184025 16.1327V4.83349L7.51865 4.83352ZM29 19.8944C28.2028 19.9646 27.4349 20.2279 26.7622 20.6613C26.1003 21.1034 25.318 21.3298 24.5222 21.3094C23.7172 21.3214 22.9361 21.0361 22.3283 20.5081C21.5318 19.8597 20.5362 19.5053 19.5089 19.5053C18.4818 19.5053 17.4861 19.8596 16.6894 20.5081C16.0761 21.0258 15.2996 21.3094 14.4971 21.3094C13.6945 21.3094 12.918 21.0258 12.3046 20.5081C11.5082 19.8594 10.5125 19.505 9.48518 19.505C8.45782 19.505 7.46219 19.8594 6.66572 20.5081C6.05868 21.0361 5.27809 21.3214 4.47346 21.3094C3.66932 21.3214 2.88924 21.0361 2.28242 20.5081C1.63154 19.9702 0.838877 19.6319 0 19.5341V17.2114C0.607756 17.2699 1.19584 17.4571 1.72544 17.7606C2.56217 18.2341 3.51134 18.4731 4.47248 18.4523C5.50217 18.4662 6.50289 18.11 7.29236 17.4487C7.90564 16.9313 8.68196 16.6477 9.48438 16.6477C10.2866 16.6477 11.0629 16.9313 11.6762 17.4487C12.4726 18.0975 13.4682 18.4521 14.4956 18.4521C15.5229 18.4521 16.5186 18.0975 17.3151 17.4487C17.9288 16.9316 18.7053 16.648 19.5078 16.648C20.3103 16.648 21.0868 16.9316 21.7006 17.4487C22.4905 18.1102 23.4915 18.4662 24.5217 18.4523C25.4836 18.4732 26.4334 18.2342 27.2711 17.7606C27.8014 17.4554 28.391 17.267 28.9999 17.208L29 19.8944Z" fill="#064997"/>
</g>
</svg>
