<svg width="32" height="32" viewBox="0 0 32 32" fill="none" xmlns="http://www.w3.org/2000/svg">
<g id="vuesax/bulk/profile">
<g id="profile">
<path id="Vector" opacity="0.4" d="M16 2.66669C12.5067 2.66669 9.66666 5.50669 9.66666 9.00002C9.66666 12.4267 12.3467 15.2 15.84 15.32C15.9467 15.3067 16.0533 15.3067 16.1333 15.32C16.16 15.32 16.1733 15.32 16.2 15.32C16.2133 15.32 16.2133 15.32 16.2267 15.32C19.64 15.2 22.32 12.4267 22.3333 9.00002C22.3333 5.50669 19.4933 2.66669 16 2.66669Z" fill="#010F1E"/>
<path id="Vector_2" d="M22.7733 18.8667C19.0533 16.3867 12.9867 16.3867 9.24001 18.8667C7.54668 20 6.61334 21.5333 6.61334 23.1734C6.61334 24.8134 7.54668 26.3334 9.22668 27.4534C11.0933 28.7067 13.5467 29.3334 16 29.3334C18.4533 29.3334 20.9067 28.7067 22.7733 27.4534C24.4533 26.32 25.3867 24.8 25.3867 23.1467C25.3733 21.5067 24.4533 19.9867 22.7733 18.8667Z" fill="#010F1E"/>
</g>
</g>
</svg>
