<svg width="32" height="32" viewBox="0 0 32 32" fill="none" xmlns="http://www.w3.org/2000/svg">
<g id="vuesax/bulk/profile">
<g id="profile">
<path id="Vector" opacity="0.4" d="M16 2.66602C12.5067 2.66602 9.66666 5.50602 9.66666 8.99935C9.66666 12.426 12.3467 15.1993 15.84 15.3193C15.9467 15.306 16.0533 15.306 16.1333 15.3193C16.16 15.3193 16.1733 15.3193 16.2 15.3193C16.2133 15.3193 16.2133 15.3193 16.2267 15.3193C19.64 15.1993 22.32 12.426 22.3333 8.99935C22.3333 5.50602 19.4933 2.66602 16 2.66602Z" fill="#064997"/>
<path id="Vector_2" d="M22.7733 18.8668C19.0533 16.3868 12.9867 16.3868 9.24001 18.8668C7.54668 20.0002 6.61334 21.5335 6.61334 23.1735C6.61334 24.8135 7.54668 26.3335 9.22668 27.4535C11.0933 28.7068 13.5467 29.3335 16 29.3335C18.4533 29.3335 20.9067 28.7068 22.7733 27.4535C24.4533 26.3202 25.3867 24.8002 25.3867 23.1468C25.3733 21.5068 24.4533 19.9868 22.7733 18.8668Z" fill="#064997"/>
</g>
</g>
</svg>
