<svg width="11" height="12" viewBox="0 0 11 12" fill="none" xmlns="http://www.w3.org/2000/svg">
<g id="vuesax/bold/status-up">
<g id="status-up">
<path id="Vector" d="M7.42041 1.41667H3.57957C1.91124 1.41667 0.916656 2.41125 0.916656 4.07958V7.91583C0.916656 9.58875 1.91124 10.5833 3.57957 10.5833H7.41582C9.08416 10.5833 10.0787 9.58875 10.0787 7.92042V4.07958C10.0833 2.41125 9.08874 1.41667 7.42041 1.41667ZM3.49707 8.81875C3.49707 9.00667 3.34124 9.1625 3.15332 9.1625C2.96541 9.1625 2.80957 9.00667 2.80957 8.81875V7.87C2.80957 7.68208 2.96541 7.52625 3.15332 7.52625C3.34124 7.52625 3.49707 7.68208 3.49707 7.87V8.81875ZM5.84374 8.81875C5.84374 9.00667 5.68791 9.1625 5.49999 9.1625C5.31207 9.1625 5.15624 9.00667 5.15624 8.81875V6.91667C5.15624 6.72875 5.31207 6.57292 5.49999 6.57292C5.68791 6.57292 5.84374 6.72875 5.84374 6.91667V8.81875ZM8.19041 8.81875C8.19041 9.00667 8.03457 9.1625 7.84666 9.1625C7.65874 9.1625 7.50291 9.00667 7.50291 8.81875V5.96792C7.50291 5.78 7.65874 5.62417 7.84666 5.62417C8.03457 5.62417 8.19041 5.78 8.19041 5.96792V8.81875ZM8.19041 4.51958C8.19041 4.7075 8.03457 4.86333 7.84666 4.86333C7.65874 4.86333 7.50291 4.7075 7.50291 4.51958V4.075C6.33416 5.27583 4.87207 6.12375 3.23582 6.53167C3.20832 6.54083 3.18082 6.54083 3.15332 6.54083C2.99749 6.54083 2.85999 6.43542 2.81874 6.27958C2.77291 6.09625 2.88291 5.90833 3.07082 5.8625C4.61541 5.4775 5.99041 4.66625 7.08124 3.52042H6.50832C6.32041 3.52042 6.16457 3.36458 6.16457 3.17667C6.16457 2.98875 6.32041 2.83292 6.50832 2.83292H7.85124C7.86957 2.83292 7.88332 2.84208 7.90166 2.84208C7.92457 2.84667 7.94749 2.84667 7.97041 2.85583C7.99332 2.865 8.01166 2.87875 8.03457 2.8925C8.04832 2.90167 8.06207 2.90625 8.07582 2.91542C8.08041 2.92 8.08041 2.92458 8.08499 2.92458C8.10332 2.94292 8.11707 2.96125 8.13082 2.97958C8.14457 2.99792 8.15832 3.01167 8.16291 3.03C8.17207 3.04833 8.17207 3.06667 8.17666 3.08958C8.18124 3.1125 8.19041 3.13542 8.19041 3.16292C8.19041 3.1675 8.19499 3.17208 8.19499 3.17667V4.51958H8.19041Z" fill="#010F1E"/>
</g>
</g>
</svg>
