<svg width="11" height="12" viewBox="0 0 11 12" fill="none" xmlns="http://www.w3.org/2000/svg">
<g id="vuesax/bold/location">
<path id="Vector" d="M9.45088 4.37292C8.96963 2.25542 7.12254 1.30208 5.50004 1.30208C5.50004 1.30208 5.50004 1.30208 5.49546 1.30208C3.87754 1.30208 2.02588 2.25083 1.54463 4.36833C1.00838 6.73333 2.45671 8.73625 3.76754 9.99667C4.25338 10.4642 4.87671 10.6979 5.50004 10.6979C6.12338 10.6979 6.74671 10.4642 7.22796 9.99667C8.53879 8.73625 9.98713 6.73792 9.45088 4.37292ZM5.50004 6.66917C4.70254 6.66917 4.05629 6.02292 4.05629 5.22542C4.05629 4.42792 4.70254 3.78167 5.50004 3.78167C6.29754 3.78167 6.94379 4.42792 6.94379 5.22542C6.94379 6.02292 6.29754 6.66917 5.50004 6.66917Z" fill="#010F1E"/>
</g>
</svg>
