<svg width="11" height="12" viewBox="0 0 11 12" fill="none" xmlns="http://www.w3.org/2000/svg">
<g id="vuesax/bold/frame">
<g id="frame">
<path id="Vector" d="M5.49999 1.41667C4.29916 1.41667 3.32291 2.39292 3.32291 3.59375C3.32291 4.77167 4.24416 5.725 5.44499 5.76625C5.48166 5.76167 5.51832 5.76167 5.54582 5.76625C5.55499 5.76625 5.55957 5.76625 5.56874 5.76625C5.57332 5.76625 5.57332 5.76625 5.57791 5.76625C6.75124 5.725 7.67249 4.77167 7.67707 3.59375C7.67707 2.39292 6.70082 1.41667 5.49999 1.41667Z" fill="#010F1E"/>
<path id="Vector_2" d="M7.82832 6.98542C6.54957 6.13292 4.46415 6.13292 3.17623 6.98542C2.59415 7.375 2.27332 7.90208 2.27332 8.46583C2.27332 9.02958 2.59415 9.55208 3.17165 9.93708C3.81332 10.3679 4.65665 10.5833 5.49998 10.5833C6.34332 10.5833 7.18665 10.3679 7.82832 9.93708C8.40582 9.5475 8.72665 9.025 8.72665 8.45667C8.72207 7.89292 8.40582 7.37042 7.82832 6.98542Z" fill="#010F1E"/>
</g>
</g>
</svg>
