<svg width="21" height="25" viewBox="0 0 21 25" fill="none" xmlns="http://www.w3.org/2000/svg">
<g id="Group">
<path id="Vector" d="M17.7534 2.70859C15.9788 2.89539 14.1419 2.70859 12.5853 1.89913C11.6824 1.401 11.1843 0.747198 10.4993 0C10.7484 0.280199 8.94268 1.5878 8.72474 1.74346C7.66621 2.52179 6.29635 2.89539 4.98875 2.92653C4.30382 2.92653 3.61889 2.89539 2.96509 2.80199C2.77829 2.77086 0.879166 2.45953 0.879166 2.33499C0.879166 6.13325 0.879166 9.93151 0.879166 13.7609C0.879166 14.0722 0.879166 14.3836 0.879166 14.6949C1.0971 15.7846 1.59523 16.9365 2.40469 18.0884C3.18303 19.1781 4.27269 20.33 5.61142 21.5131C7.54168 23.1631 9.34741 24.2839 9.40968 24.3462L10.4682 25L11.5267 24.3462C11.589 24.2839 13.4259 23.1943 15.325 21.5131C16.6637 20.3611 17.7845 19.2092 18.5629 18.0884C19.3723 16.9365 19.9327 15.8157 20.1195 14.726C20.1195 14.726 20.1195 2.52179 20.1195 2.36613C20.1818 2.45953 18.0336 2.67746 17.7534 2.70859ZM18.9364 14.259L18.9053 14.3213C18.5629 16.1893 17.0996 18.2441 14.5467 20.4545C12.7098 22.0423 10.9663 23.1009 10.9041 23.1631L10.4993 23.4122L10.0946 23.1631C10.0323 23.132 8.28888 22.0423 6.45202 20.4545C3.89909 18.2752 2.46696 16.1893 2.1245 14.3524V14.2902C2.1245 14.2902 2.1245 3.92279 2.1245 3.86052C2.1245 4.20299 4.77082 4.10959 5.01989 4.07846C7.07468 3.95392 8.91154 3.33126 10.4682 1.96139C10.4059 2.05479 11.8692 3.01993 12.0249 3.08219C14.1108 4.17186 16.6326 4.26525 18.9364 3.82939V14.259Z" fill="#064997"/>
<path id="Vector_2" d="M10.4993 3.08203C9.97007 3.67356 8.41341 4.29623 6.51428 4.63869C5.08215 4.88776 3.80569 4.91889 2.93396 4.76323V14.1966C3.61889 18.2751 10.5305 22.5092 10.5305 22.5092C10.5305 22.5092 17.4421 18.2751 18.1581 14.1966V4.76323C17.3175 4.91889 15.9788 4.91889 14.5155 4.63869C12.5853 4.29623 11.0286 3.67356 10.4993 3.08203ZM10.5305 18.3996C8.22661 18.3996 6.38975 16.5316 6.38975 14.2589C6.38975 13.2003 6.73222 12.2352 7.44828 11.5191V9.49548C7.44828 7.78315 8.81814 6.38216 10.5305 6.38216C12.2428 6.38216 13.6438 7.78315 13.6438 9.49548V11.5191C14.2976 12.2352 14.6712 13.2003 14.6712 14.2589C14.6712 16.5316 12.8032 18.3996 10.5305 18.3996Z" fill="#064997"/>
<path id="Vector_3" d="M11.4333 13.325C11.4333 12.7957 10.9975 12.391 10.4682 12.4221C10.0323 12.4532 9.65872 12.7957 9.62759 13.2627C9.59646 13.6363 9.81439 14.0099 10.1257 14.1656L9.68986 15.7845C9.65873 15.9401 9.75213 16.0958 9.90779 16.0958H11.0909C11.2465 16.0958 11.3711 15.9401 11.3088 15.7845L10.8729 14.1656C11.2465 13.9788 11.4333 13.6674 11.4333 13.325Z" fill="#064997"/>
<path id="Vector_4" d="M10.5305 7.59619C10.0323 7.59619 9.56533 7.78299 9.22287 8.15659C8.8804 8.49906 8.6936 8.96605 8.6936 9.46419V10.5227C9.22287 10.2425 9.87667 10.0869 10.5305 10.0869C11.2154 10.0869 11.8381 10.2425 12.3673 10.5227V9.46419C12.3673 8.96605 12.1805 8.49906 11.8069 8.15659C11.4956 7.81412 11.0286 7.59619 10.5305 7.59619Z" fill="#064997"/>
</g>
</svg>
