<svg width="29" height="34" viewBox="0 0 29 34" fill="none" xmlns="http://www.w3.org/2000/svg">
<g id="Group">
<path id="Vector" d="M14.4999 -0.00012207L0 3.18267V11.7058C0 18.7436 3.35968 25.3923 9.01825 29.5655L14.5 33.5972L19.9817 29.5655C25.6401 25.4277 29 18.7436 29 11.7058V3.18267L14.4999 -0.00012207ZM26.5596 11.7059C26.5596 17.9302 23.5534 23.8717 18.5316 27.5851L14.4999 30.5558L10.4682 27.5851C5.44632 23.907 2.44023 17.9657 2.44023 11.7059V5.16327L14.4999 2.51084L26.5596 5.16327V11.7059Z" fill="#064997"/>
<path id="Vector_2" d="M10.7158 11.2458V13.1202H9.76088C9.40712 13.1202 9.08887 13.4031 9.08887 13.7922V20.2288C9.08887 20.5825 9.37183 20.9008 9.76088 20.9008H19.2389C19.5926 20.9008 19.9109 20.6178 19.9109 20.2288L19.9111 13.7922C19.9111 13.4384 19.6282 13.1202 19.2391 13.1202H18.2842V11.2458C18.2842 9.15929 16.5867 7.46155 14.4999 7.46155C12.4137 7.46179 10.7159 9.15929 10.7159 11.2458H10.7158ZM15.3134 18.4958C15.3842 18.7079 15.2073 18.9201 14.9952 18.9201H14.0049C13.7928 18.9201 13.6159 18.7079 13.6867 18.4958L14.0049 17.2934C13.6159 17.1165 13.3685 16.7275 13.3685 16.2679C13.3685 15.6315 13.8989 15.1361 14.5003 15.1361C15.1368 15.1361 15.6321 15.6665 15.6321 16.2679C15.6321 16.7278 15.3845 17.0813 14.9957 17.2934L15.3134 18.4958ZM16.4097 11.2458V13.1202L12.5904 13.1204V11.2461C12.5904 10.185 13.4392 9.33643 14.5 9.33643C15.561 9.33618 16.4096 10.2203 16.4096 11.2458L16.4097 11.2458Z" fill="#064997"/>
</g>
</svg>
