<svg width="220" height="220" viewBox="0 0 220 220" fill="none" xmlns="http://www.w3.org/2000/svg">
<g id="Mobile login-amico 1">
<g id="freepik--Floor--inject-115">
<path id="Vector" d="M55.1012 171.266C85.4216 185.715 134.578 185.72 164.899 171.266C195.219 156.812 195.215 133.386 164.899 118.936C134.583 104.487 85.4216 104.487 55.1012 118.936C24.7808 133.386 24.7852 156.816 55.1012 171.266Z" fill="#F5F5F5"/>
</g>
<g id="freepik--Shadow--inject-115">
<path id="Vector_2" d="M164.793 160.587C170.377 160.587 174.904 158.43 174.904 155.769C174.904 153.108 170.377 150.951 164.793 150.951C159.209 150.951 154.682 153.108 154.682 155.769C154.682 158.43 159.209 160.587 164.793 160.587Z" fill="#EBEBEB"/>
</g>
<g id="freepik--Plants--inject-115">
<path id="Vector_3" d="M52.8 156.46L56.3773 154.396C58.3745 152.766 59.8947 150.627 60.7773 148.205C61.8817 145.16 61.7277 142.846 60.9357 141.684C59.9633 140.254 57.4421 140.505 57.3409 143.515C57.1297 149.446 55.4004 153.56 52.8 156.46Z" fill="#064997"/>
<path id="Vector_4" opacity="0.2" d="M52.8 156.46L56.3773 154.396C58.3745 152.766 59.8947 150.627 60.7773 148.205C61.8817 145.16 61.7277 142.846 60.9357 141.684C59.9633 140.254 57.4421 140.505 57.3409 143.515C57.1297 149.446 55.4004 153.56 52.8 156.46Z" fill="black"/>
<path id="Vector_5" d="M52.8001 156.679C52.7535 156.679 52.7083 156.664 52.671 156.636C52.6337 156.608 52.6062 156.569 52.5925 156.524C52.5788 156.48 52.5796 156.432 52.5947 156.388C52.6099 156.344 52.6387 156.306 52.6769 156.279C60.9489 150.559 59.3473 142.582 59.3297 142.503C59.3236 142.474 59.3233 142.444 59.3287 142.415C59.3342 142.386 59.3453 142.358 59.3614 142.334C59.3776 142.309 59.3984 142.288 59.4228 142.271C59.4472 142.254 59.4746 142.243 59.5035 142.236C59.5324 142.23 59.5622 142.23 59.5912 142.236C59.6202 142.241 59.6478 142.252 59.6726 142.268C59.6973 142.284 59.7186 142.305 59.7352 142.33C59.7519 142.354 59.7636 142.381 59.7697 142.41C59.7697 142.494 61.4593 150.744 52.9409 156.64C52.8995 156.668 52.8501 156.682 52.8001 156.679Z" fill="white"/>
<path id="Vector_6" d="M45.6324 160.6C45.6324 160.6 44.3872 159.588 44.6864 158.215C44.9856 156.842 45.7908 155.857 44.4136 154.088C43.0364 152.319 42.6536 149.961 44.2992 148.685C45.5532 147.695 47.5112 149.094 48.2152 146.485C48.7344 144.575 48.5584 140.347 50.9916 138.939C53.4248 137.531 54.9516 139.652 54.5688 142.52C54.2344 145.086 53.7592 147.554 54.1288 148.24C54.8416 149.56 56.0604 149.38 56.0032 151.791C55.9548 154.035 53.8296 155.892 53.8296 155.892L45.6324 160.6Z" fill="#064997"/>
<path id="Vector_7" d="M49.72 158.448C49.6662 158.448 49.6144 158.428 49.574 158.392C49.5336 158.357 49.5074 158.308 49.5 158.255C48.8708 153.041 50.38 144.038 51.612 141.363C51.6224 141.334 51.639 141.306 51.6607 141.284C51.6824 141.261 51.7088 141.243 51.738 141.232C51.7672 141.22 51.7985 141.215 51.8299 141.216C51.8613 141.218 51.892 141.226 51.92 141.24C51.9463 141.252 51.9699 141.269 51.9895 141.29C52.0091 141.311 52.0243 141.336 52.0341 141.363C52.0439 141.39 52.0483 141.419 52.0468 141.448C52.0453 141.476 52.0381 141.504 52.0256 141.53C50.8068 144.17 49.3504 153.199 49.9532 158.184C49.9594 158.242 49.9425 158.3 49.9062 158.345C49.87 158.391 49.8173 158.42 49.7596 158.426L49.72 158.448Z" fill="white"/>
<path id="Vector_8" d="M49.6012 154.387C49.5676 154.389 49.5341 154.381 49.5044 154.365C47.9776 153.621 47.0096 150.968 46.97 150.845C46.9592 150.818 46.9541 150.788 46.9548 150.759C46.9555 150.73 46.9621 150.701 46.9742 150.674C46.9863 150.647 47.0037 150.623 47.0253 150.603C47.0468 150.583 47.0722 150.568 47.0999 150.558C47.1275 150.548 47.1569 150.543 47.1863 150.545C47.2157 150.546 47.2444 150.554 47.2709 150.567C47.2974 150.579 47.321 150.597 47.3403 150.62C47.3597 150.642 47.3744 150.668 47.3836 150.695C47.3836 150.722 48.3296 153.291 49.698 153.956C49.7429 153.978 49.7791 154.014 49.8006 154.059C49.8221 154.104 49.8277 154.155 49.8165 154.204C49.8052 154.252 49.7778 154.295 49.7387 154.326C49.6996 154.357 49.6511 154.374 49.6012 154.374V154.387Z" fill="white"/>
<path id="Vector_9" d="M49.5749 156.147C49.5308 156.147 49.4878 156.134 49.4516 156.109C49.4154 156.084 49.3878 156.048 49.3725 156.007C49.3506 155.953 49.3508 155.893 49.373 155.839C49.3953 155.786 49.4378 155.743 49.4913 155.721C52.0609 154.691 53.6625 151.633 53.6801 151.598C53.7069 151.546 53.7533 151.507 53.809 151.489C53.8647 151.471 53.9252 151.476 53.9771 151.503C54.029 151.53 54.0681 151.576 54.0859 151.632C54.1036 151.688 54.0985 151.748 54.0717 151.8C54.0013 151.932 52.3777 155.039 49.6717 156.13C49.6415 156.144 49.6081 156.15 49.5749 156.147Z" fill="white"/>
<path id="Vector_10" d="M139.392 132.475C139.392 132.475 137.469 129.36 137.28 125.976C137.091 122.593 137.834 121.185 138.855 120.78C139.876 120.375 139.955 121.62 140.479 122.355C141.002 123.09 142.072 122.672 142.468 120.38C142.864 118.087 144.307 114.22 147.308 113.467C150.608 112.649 148.839 116.521 148.007 118.03C147.176 119.539 146.533 121.598 147.079 122.157C147.624 122.716 148.474 121.682 149.279 122.641C150.26 123.798 147.211 127.965 145.46 128.973L139.392 132.475Z" fill="#064997"/>
<path id="Vector_11" d="M142.028 131.168C141.999 131.167 141.97 131.16 141.944 131.148C141.918 131.136 141.894 131.119 141.875 131.098C141.855 131.077 141.84 131.052 141.83 131.024C141.82 130.997 141.815 130.968 141.816 130.94C142.114 125.497 143.812 120.223 146.744 115.628C146.761 115.604 146.782 115.583 146.807 115.568C146.832 115.552 146.859 115.542 146.888 115.538C146.917 115.533 146.946 115.534 146.974 115.542C147.003 115.549 147.029 115.561 147.052 115.579C147.098 115.613 147.129 115.664 147.138 115.721C147.147 115.778 147.134 115.836 147.101 115.883C144.221 120.411 142.554 125.603 142.261 130.962C142.259 130.99 142.252 131.019 142.239 131.045C142.226 131.071 142.209 131.094 142.187 131.113C142.165 131.133 142.14 131.147 142.113 131.157C142.085 131.166 142.056 131.17 142.028 131.168Z" fill="white"/>
<path id="Vector_12" d="M142.278 128.568C142.242 128.568 142.205 128.559 142.173 128.542C140.941 127.86 140.259 125.836 140.232 125.752C140.223 125.725 140.219 125.696 140.22 125.667C140.222 125.637 140.229 125.609 140.242 125.583C140.255 125.557 140.272 125.533 140.294 125.514C140.316 125.495 140.341 125.48 140.369 125.471C140.424 125.452 140.485 125.457 140.537 125.484C140.589 125.51 140.628 125.556 140.646 125.611C140.646 125.611 141.306 127.561 142.406 128.155C142.456 128.184 142.492 128.232 142.508 128.287C142.524 128.343 142.517 128.403 142.49 128.454C142.47 128.492 142.439 128.523 142.401 128.543C142.364 128.563 142.321 128.572 142.278 128.568Z" fill="white"/>
<path id="Vector_13" d="M142.494 127.235C142.445 127.234 142.398 127.218 142.36 127.187C142.322 127.157 142.294 127.115 142.283 127.068C142.275 127.04 142.274 127.011 142.278 126.983C142.282 126.954 142.292 126.927 142.306 126.902C142.321 126.878 142.341 126.856 142.364 126.839C142.387 126.822 142.413 126.81 142.441 126.804C145.618 125.998 146.718 124.335 146.727 124.318C146.742 124.293 146.763 124.272 146.786 124.255C146.81 124.238 146.837 124.226 146.865 124.22C146.894 124.214 146.923 124.213 146.952 124.218C146.981 124.223 147.008 124.234 147.033 124.249C147.057 124.265 147.078 124.285 147.095 124.309C147.112 124.333 147.124 124.36 147.13 124.388C147.136 124.417 147.137 124.446 147.132 124.475C147.127 124.503 147.116 124.531 147.101 124.555C147.052 124.63 145.908 126.377 142.551 127.23L142.494 127.235Z" fill="white"/>
<path id="Vector_14" d="M91.52 125.638C91.52 125.638 87.3004 124.608 87.0804 116.706C86.8472 108.178 88.1144 98.2256 83.1204 97.4204C78.1264 96.6152 75.3544 102.7 75.416 109.806C75.4732 116.028 77.9813 129.536 91.5025 132.185L91.52 125.638Z" fill="#064997"/>
<path id="Vector_15" opacity="0.2" d="M91.52 125.638C91.52 125.638 87.3004 124.608 87.0804 116.706C86.8472 108.178 88.1144 98.2256 83.1204 97.4204C78.1264 96.6152 75.3544 102.7 75.416 109.806C75.4732 116.028 77.9813 129.536 91.5025 132.185L91.52 125.638Z" fill="black"/>
<path id="Vector_16" d="M91.5199 131.375H91.4803C88.4399 130.821 85.9627 129.144 84.1191 126.399C78.6543 118.246 80.3747 103.022 80.9423 100.364C80.955 100.307 80.9892 100.258 81.0376 100.226C81.086 100.194 81.1449 100.182 81.2019 100.192C81.2589 100.206 81.3085 100.241 81.3404 100.29C81.3723 100.339 81.3842 100.399 81.3735 100.456C80.8147 103.096 79.1031 118.127 84.4843 126.152C85.2676 127.397 86.301 128.465 87.519 129.289C88.737 130.113 90.1129 130.675 91.5595 130.94C91.5883 130.945 91.6156 130.956 91.6401 130.972C91.6645 130.988 91.6855 131.008 91.7019 131.033C91.7183 131.057 91.7297 131.084 91.7355 131.113C91.7413 131.141 91.7413 131.171 91.7355 131.199C91.7262 131.249 91.6994 131.294 91.6599 131.327C91.6205 131.359 91.5709 131.376 91.5199 131.375Z" fill="white"/>
<path id="Vector_17" d="M91.52 151.655C87.1596 152.244 80.08 152.236 75.9924 149.015C71.9048 145.794 72.7584 143.022 74.3292 141.865C75.9 140.708 77.264 139.388 74.5624 136.818C71.8608 134.248 67.5224 130.121 66.1144 123.93C64.7064 117.74 65.4016 113.868 68.1648 112.578C70.8444 111.329 71.5528 113.318 73.194 117.418C74.8352 121.519 78.5268 118.004 81.686 119.284C84.8452 120.564 84.7176 123.099 84.9156 125.277C85.1136 127.455 86.1564 128.058 87.9472 128.058C89.738 128.058 91.52 129.087 91.52 131.138V151.655Z" fill="#064997"/>
<path id="Vector_18" d="M91.5199 144.465C91.5011 144.469 91.4815 144.469 91.4627 144.465C91.2735 144.412 86.7635 143.101 80.1943 137.069C73.1983 130.645 69.8983 121.009 69.8631 120.912C69.8462 120.857 69.8515 120.797 69.8777 120.745C69.904 120.693 69.9492 120.654 70.0039 120.635C70.0588 120.617 70.1186 120.621 70.1705 120.646C70.2224 120.672 70.2621 120.717 70.2811 120.771C70.3119 120.868 73.5811 130.398 80.4935 136.743C86.9703 142.696 91.5331 144.03 91.5815 144.043C91.6092 144.051 91.6351 144.064 91.6576 144.082C91.6802 144.101 91.6989 144.123 91.7128 144.148C91.7267 144.174 91.7355 144.201 91.7386 144.23C91.7417 144.259 91.7392 144.288 91.7311 144.316C91.7168 144.36 91.6885 144.399 91.6505 144.426C91.6124 144.453 91.5666 144.466 91.5199 144.465Z" fill="white"/>
<path id="Vector_19" d="M82.0292 138.6C81.985 138.601 81.9417 138.587 81.9053 138.562C81.869 138.537 81.8416 138.501 81.8268 138.459C80.4144 134.834 80.0932 127.076 80.0668 126.746C80.0656 126.688 80.0869 126.632 80.1263 126.589C80.1657 126.547 80.2201 126.521 80.278 126.518C80.3355 126.518 80.3906 126.54 80.4328 126.579C80.4751 126.618 80.5014 126.672 80.5068 126.729C80.5068 126.808 80.8368 134.741 82.2228 138.301C82.2334 138.328 82.2385 138.357 82.2378 138.386C82.2372 138.415 82.2307 138.444 82.2188 138.47C82.2069 138.497 82.1899 138.521 82.1687 138.541C82.1475 138.561 82.1225 138.577 82.0952 138.587C82.074 138.594 82.0518 138.599 82.0292 138.6Z" fill="white"/>
<path id="Vector_20" d="M81.9939 143.814C81.5883 143.817 81.1828 143.797 80.7795 143.752C80.7506 143.749 80.7227 143.74 80.6974 143.726C80.672 143.711 80.6497 143.692 80.6317 143.669C80.6137 143.647 80.6004 143.62 80.5926 143.592C80.5847 143.564 80.5825 143.535 80.5859 143.506C80.5894 143.477 80.5985 143.449 80.6128 143.424C80.627 143.399 80.6462 143.376 80.669 143.358C80.6919 143.34 80.7181 143.327 80.7461 143.319C80.7741 143.311 80.8034 143.309 80.8323 143.312C80.8719 143.312 84.9683 143.779 86.8471 141.865C86.8667 141.842 86.8908 141.823 86.918 141.809C86.9452 141.796 86.9749 141.788 87.0052 141.787C87.0355 141.786 87.0657 141.791 87.094 141.801C87.1223 141.812 87.1481 141.829 87.1697 141.85C87.1912 141.871 87.2082 141.897 87.2195 141.925C87.2307 141.953 87.236 141.983 87.2351 142.014C87.2341 142.044 87.2269 142.074 87.2139 142.101C87.2009 142.129 87.1824 142.153 87.1595 142.173C85.7999 143.576 83.4283 143.814 81.9939 143.814Z" fill="white"/>
</g>
<g id="freepik--Gear--inject-115">
<path id="Vector_21" d="M78.826 60.4956L78.3509 57.7544L75.9045 59.3648C75.6809 58.9249 75.3641 58.539 74.9761 58.234L76.1465 55.066L73.9465 54.5776L72.3361 57.6576C71.7534 57.7559 71.1885 57.9398 70.6597 58.2032L69.9601 55.88L67.3465 57.9348L67.5181 60.6628C66.9858 61.259 66.5031 61.8977 66.0749 62.5724L63.9189 62.4624L62.4053 65.8548L64.2576 66.6468C64.0643 67.3485 63.9419 68.0679 63.8925 68.794L61.5385 70.9588L62.0092 73.7044L64.4601 72.094C64.6823 72.5336 64.9994 72.9183 65.3885 73.2204L64.2401 76.3928L66.4401 76.8768L68.7457 74.6328C69.2781 74.5492 69.1461 73.546 69.7269 73.26L70.4265 75.5744L73.0357 73.524L72.9697 72.4504C73.4977 71.8608 75.4953 70.5628 75.9265 69.8852L76.4676 69.0052L77.9813 65.6128L77.2773 64.3368L76.4941 62.6736L78.826 60.4956ZM70.8401 69.52C68.8337 71.0952 68.2001 71.4428 67.8613 69.3352C67.5225 67.2276 68.6709 64.0244 70.6773 62.4448C72.6837 60.8652 73.4493 60.7552 73.8101 62.8584C74.1709 64.9616 72.8509 67.9624 70.8401 69.52Z" fill="#E0E0E0"/>
<path id="Vector_22" d="M73.9639 54.5776L76.8195 56.2232L75.2091 59.2944L72.3535 57.6488L73.9639 54.5776Z" fill="#F5F5F5"/>
<path id="Vector_23" d="M81.2064 59.4L78.76 61.0104L75.9044 59.3648L78.3508 57.7544L81.2064 59.4Z" fill="#F5F5F5"/>
<path id="Vector_24" d="M80.8148 67.2452L78.9624 66.4576L76.1068 64.812L77.9592 65.5996L80.8148 67.2452Z" fill="#E0E0E0"/>
<path id="Vector_25" d="M64.2356 76.3929L67.0912 78.0341L68.2616 74.8661L65.406 73.2205L64.2356 76.3929Z" fill="#E0E0E0"/>
<path id="Vector_26" d="M73.2555 77.22L70.4043 75.5744L69.7047 73.26L72.5603 74.9056L73.2555 77.22Z" fill="#E0E0E0"/>
<path id="Vector_27" d="M81.6772 62.1411L81.2064 59.3999L78.76 61.0103C78.5349 60.5702 78.2166 60.1843 77.8272 59.8795L78.9976 56.7115L76.8196 56.2231L75.2048 59.3031C74.6222 59.4014 74.0573 59.5853 73.5284 59.8487L72.8332 57.5343L70.2196 59.5891L70.3912 62.3171C69.8584 62.9176 69.3757 63.5606 68.948 64.2399L66.7876 64.1299L65.274 67.5223L67.1264 68.3143C66.9348 69.0179 66.8125 69.7385 66.7612 70.4659L64.4116 72.5999L64.8824 75.3455L67.3288 73.7351C67.554 74.174 67.8724 74.5585 68.2616 74.8615L67.0912 78.0295L69.2912 78.5179L70.9016 75.4379C71.4865 75.3407 72.0532 75.1553 72.5824 74.8879L73.2776 77.2023L75.8912 75.1519L75.7196 72.4239C76.2519 71.8278 76.7345 71.1891 77.1628 70.5143L79.3232 70.6199L80.8368 67.2275L78.958 66.4399C79.1528 65.7369 79.2766 65.0161 79.3276 64.2883L81.6772 62.1411ZM73.7 71.1831C71.698 72.7583 69.7796 72.3315 69.4144 70.2283C69.0492 68.1251 70.3824 65.1375 72.3888 63.5623C74.3952 61.9871 76.3092 62.4183 76.6744 64.5215C77.0396 66.6247 75.7064 69.6079 73.7 71.1831Z" fill="#EBEBEB"/>
<path id="Vector_28" d="M72.8332 57.5257L69.9776 55.8801L67.364 57.9349L70.2196 59.5805L72.8332 57.5257Z" fill="#F5F5F5"/>
<path id="Vector_29" d="M67.364 57.9348L67.5356 60.6628L70.3912 62.3084L70.2196 59.5804L67.364 57.9348Z" fill="#E0E0E0"/>
<path id="Vector_30" d="M68.948 64.218L66.0924 62.5724L63.9364 62.4668L66.7876 64.1124L68.948 64.218Z" fill="#F5F5F5"/>
<path id="Vector_31" d="M63.9365 62.4668L62.4229 65.8548L65.2741 67.5004L66.7877 64.1124L63.9365 62.4668Z" fill="#E0E0E0"/>
<path id="Vector_32" d="M66.7611 70.4395L63.9099 68.7939L61.5559 70.9587L64.4071 72.6043L66.7611 70.4395Z" fill="#F5F5F5"/>
<path id="Vector_33" d="M64.8823 75.3502L62.0267 73.7046L61.5559 70.959L64.4071 72.6046L64.8823 75.3502Z" fill="#E0E0E0"/>
<path id="Vector_34" d="M76.8196 56.2232L73.964 54.5776L76.1464 55.066L78.9976 56.7116L76.8196 56.2232Z" fill="#F5F5F5"/>
<path id="Vector_35" d="M66.0396 48.0524V43.956L62.7792 45.4256C62.6065 44.7306 62.3083 44.073 61.8992 43.4852L63.954 39.3448L61.446 37.8972L58.8852 41.7472C58.1716 41.6849 57.4525 41.755 56.7644 41.954L56.4036 38.3944L52.8572 40.4448L52.5008 44.4048C51.729 45.0887 51.0193 45.8397 50.38 46.6488L47.8192 45.7688L45.3112 50.116L47.3616 51.876C46.9827 52.8341 46.6883 53.8235 46.4816 54.8328L43.2212 57.1252V61.226L46.4816 59.7564C46.6543 60.4514 46.9525 61.109 47.3616 61.6968L45.32 65.8416L47.828 67.2892L50.3888 63.4392C51.1024 63.5014 51.8214 63.4313 52.5096 63.2324L52.866 66.792L56.4124 64.7416L56.7732 60.7816C57.8801 60.3778 58.8606 59.6886 59.6156 58.784L61.4548 59.4308L63.9628 55.088L62.4228 53.768C62.7571 52.6673 62.881 51.5134 62.788 50.3668L66.0396 48.0524ZM54.6304 58.2868C51.9112 59.8576 50.2304 58.7268 50.2304 55.5984C50.2304 52.47 52.4788 48.6024 55.2024 47.0316C57.926 45.4608 59.5716 46.5916 59.5716 49.7464C59.5716 52.9012 57.354 56.7116 54.6304 58.2868Z" fill="#E0E0E0"/>
<path id="Vector_36" d="M64.2971 39.5384L61.4459 37.8972L58.8851 41.7472L61.7363 43.3928L64.2971 39.5384Z" fill="#F5F5F5"/>
<path id="Vector_37" d="M68.8951 45.6017L66.0395 43.9561L62.7791 45.4257L65.6347 47.0713L68.8951 45.6017Z" fill="#F5F5F5"/>
<path id="Vector_38" d="M55.7085 68.4376L52.8573 66.792L52.5009 63.2324L55.3521 64.878L55.7085 68.4376Z" fill="#E0E0E0"/>
<path id="Vector_39" d="M45.3068 65.8416L48.1624 67.4872L50.2172 63.3468L47.3616 61.7012L45.3068 65.8416Z" fill="#E0E0E0"/>
<path id="Vector_40" d="M68.8952 49.7199V45.6235L65.6348 47.0799C65.4639 46.3843 65.1655 45.7264 64.7548 45.1395L66.8096 40.9991L64.3016 39.5471L61.7408 43.4015C61.0271 43.337 60.3077 43.4072 59.62 43.6083L59.2592 40.0399L55.7128 42.0903L55.352 46.0503C54.5813 46.7354 53.8717 47.4862 53.2312 48.2943L50.6704 47.4143L48.1624 51.7615L50.2172 53.5215C49.8363 54.4789 49.5418 55.4685 49.3372 56.4783L46.0768 58.7707V62.8715L49.3372 61.4019C49.508 62.0976 49.8064 62.7555 50.2172 63.3423L48.1624 67.4827L50.6704 68.9303L53.2312 65.0803C53.9448 65.1427 54.6638 65.0726 55.352 64.8735L55.7128 68.4331L59.2592 66.3827L59.6156 62.4227C60.3874 61.7388 61.0971 60.9879 61.7364 60.1787L64.2972 61.0587L66.8052 56.7159L64.7504 54.9559C65.1311 53.9985 65.4256 53.0089 65.6304 51.9991L68.8952 49.7199ZM57.486 59.9543C54.7624 61.5251 52.5536 60.2491 52.5536 57.1075C52.5536 53.9659 54.7536 50.1423 57.486 48.5671C60.2184 46.9919 62.414 48.2723 62.414 51.4139C62.414 54.5555 60.2052 58.3571 57.486 59.9323V59.9543Z" fill="#EBEBEB"/>
<path id="Vector_41" d="M50.3799 46.6576L53.2311 48.3032L50.6703 47.41L47.8191 45.76L50.3799 46.6576Z" fill="#F0F0F0"/>
<path id="Vector_42" d="M47.8189 45.7646L45.3102 50.1133L48.1648 51.7601L50.6735 47.4114L47.8189 45.7646Z" fill="#F5F5F5"/>
<path id="Vector_43" d="M45.3068 50.1072L48.1624 51.7528L50.2172 53.5216L47.3616 51.8804L45.3068 50.1072Z" fill="#E0E0E0"/>
<path id="Vector_44" d="M46.4816 54.8372L49.3372 56.4828L46.0768 58.7752L43.2212 57.1296L46.4816 54.8372Z" fill="#F5F5F5"/>
<path id="Vector_45" d="M43.2212 57.1296L46.0768 58.7752V62.876L43.2212 61.2304V57.1296Z" fill="#E0E0E0"/>
<path id="Vector_46" d="M59.2592 40.0401L56.4036 38.3945L52.8572 40.4449L55.7084 42.0905L59.2592 40.0401Z" fill="#F5F5F5"/>
</g>
<g id="freepik--Device--inject-115">
<path id="Vector_47" d="M95.8672 157.542L137.227 133.659C137.318 133.627 137.397 133.567 137.453 133.488C137.509 133.409 137.539 133.315 137.539 133.219C137.539 133.122 137.509 133.028 137.453 132.949C137.397 132.87 137.318 132.811 137.227 132.779L133.404 130.579C133.167 130.46 132.905 130.397 132.64 130.397C132.375 130.397 132.114 130.46 131.877 130.579L90.5036 154.44C90.4125 154.472 90.3336 154.531 90.2777 154.61C90.2219 154.689 90.1919 154.783 90.1919 154.88C90.1919 154.976 90.2219 155.071 90.2777 155.15C90.3336 155.228 90.4125 155.288 90.5036 155.32L94.3404 157.52C94.5755 157.642 94.8361 157.708 95.1012 157.712C95.3663 157.716 95.6287 157.658 95.8672 157.542Z" fill="#E0E0E0"/>
<path id="Vector_48" d="M136.092 41.448L98.7975 62.9816C98.2431 63.3434 97.7818 63.8307 97.4508 64.404C97.1198 64.9773 96.9285 65.6205 96.8923 66.2816V154.752C96.8923 155.967 97.7459 156.46 98.7975 155.852L136.092 134.319C136.647 133.958 137.109 133.471 137.44 132.897C137.771 132.324 137.962 131.68 137.997 131.019V42.548C137.997 41.3336 137.148 40.8408 136.092 41.448Z" fill="#455A64"/>
<path id="Vector_49" d="M98.7976 62.9816L136.092 41.448C137.034 40.9024 137.812 41.2412 137.971 42.1872C137.883 41.5924 137.67 41.023 137.346 40.5165C137.022 40.0099 136.595 39.5776 136.092 39.248L134.543 38.368C133.953 38.0685 133.3 37.9124 132.638 37.9124C131.976 37.9124 131.323 38.0685 130.733 38.368L93.4341 59.884C92.8723 60.2363 92.409 60.7252 92.0876 61.3052L97.4512 64.3852C97.7725 63.8098 98.2361 63.3265 98.7976 62.9816Z" fill="#37474F"/>
<path id="Vector_50" d="M91.52 151.655C91.5561 152.316 91.7474 152.959 92.0784 153.532C92.4094 154.106 92.8708 154.593 93.4252 154.955L94.9784 155.835C95.516 156.104 96.1043 156.256 96.7048 156.282C97.3054 156.308 97.9046 156.206 98.4632 155.984C97.5832 156.328 96.8836 155.822 96.8836 154.735V66.2816C96.9057 65.6177 97.0981 64.9707 97.4424 64.4028L92.0788 61.3228C91.7393 61.8864 91.5471 62.5265 91.52 63.184V151.655Z" fill="#263238"/>
<path id="Vector_51" d="M99.8228 74.7691L135.08 54.4191C135.714 54.0583 136.224 54.3531 136.224 55.0791V120.56C136.203 120.957 136.088 121.343 135.889 121.687C135.691 122.031 135.413 122.323 135.08 122.54L99.836 142.89C99.2024 143.255 98.692 142.96 98.692 142.23V76.7491C98.712 76.3535 98.8248 75.9682 99.0213 75.6242C99.2177 75.2803 99.4923 74.9873 99.8228 74.7691Z" fill="white"/>
<path id="Vector_52" d="M117.445 55.5676C117.25 55.6953 117.088 55.867 116.972 56.0688C116.856 56.2705 116.789 56.4967 116.776 56.7292C116.776 57.1692 117.075 57.332 117.445 57.1164C117.64 56.9894 117.802 56.8179 117.919 56.616C118.035 56.4141 118.102 56.1875 118.113 55.9548C118.113 55.528 117.814 55.3564 117.445 55.5676Z" fill="#37474F"/>
<path id="Vector_53" d="M117.445 135.846C116.676 136.349 116.036 137.026 115.577 137.823C115.118 138.619 114.854 139.512 114.805 140.43C114.805 142.116 115.988 142.802 117.445 141.957C118.214 141.454 118.853 140.776 119.312 139.98C119.771 139.183 120.035 138.29 120.085 137.372C120.094 135.687 118.906 135.001 117.445 135.846Z" fill="#37474F"/>
<path id="Vector_54" d="M111.113 62.3788C110.727 62.6355 110.406 62.9795 110.176 63.383C109.947 63.7866 109.816 64.2384 109.793 64.702C109.793 65.5556 110.392 65.9032 111.113 65.4764C111.504 65.2221 111.829 64.8792 112.062 64.4755C112.296 64.0718 112.43 63.6187 112.455 63.1532C112.455 62.2996 111.857 61.952 111.113 62.3788Z" fill="#37474F"/>
<path id="Vector_55" d="M114.4 62.0883C114.4 62.6603 114.84 62.8759 115.355 62.5723L124.155 57.4815C124.427 57.3113 124.656 57.0791 124.822 56.8038C124.988 56.5286 125.086 56.2181 125.11 55.8975C125.11 55.3299 124.67 55.1143 124.155 55.4179L115.355 60.5087C115.083 60.6785 114.855 60.91 114.689 61.1845C114.523 61.4589 114.424 61.7685 114.4 62.0883Z" fill="#37474F"/>
<path id="Vector_56" d="M94.4945 77.6027C94.8067 77.8061 95.0667 78.0802 95.2532 78.4028C95.4397 78.7254 95.5476 79.0875 95.5681 79.4595C95.5681 80.1459 95.0885 80.4231 94.4945 80.0799C94.1833 79.8758 93.9244 79.6014 93.7387 79.2789C93.553 78.9564 93.4456 78.5948 93.4253 78.2231C93.4253 77.5411 93.9049 77.2639 94.4945 77.6027Z" fill="#37474F"/>
<path id="Vector_57" d="M94.4945 85.866C94.8067 86.0693 95.0667 86.3435 95.2532 86.6661C95.4397 86.9887 95.5476 87.3507 95.5681 87.7228C95.5681 88.4048 95.0885 88.682 94.4945 88.3432C94.1833 88.139 93.9244 87.8646 93.7387 87.5421C93.553 87.2196 93.4456 86.858 93.4253 86.4864C93.4253 85.8 93.9049 85.5228 94.4945 85.866Z" fill="#37474F"/>
<path id="Vector_58" d="M94.16 77.7698C94.4723 77.9732 94.7322 78.2473 94.9187 78.5699C95.1053 78.8925 95.2131 79.2546 95.2336 79.6266C95.2336 80.3086 94.754 80.5858 94.16 80.247C93.8478 80.0436 93.5879 79.7695 93.4013 79.4469C93.2148 79.1243 93.1069 78.7623 93.0864 78.3902C93.0908 77.7038 93.5704 77.4398 94.16 77.7698Z" fill="#455A64"/>
<path id="Vector_59" d="M94.16 86.0288C94.4729 86.2326 94.7331 86.5074 94.9197 86.8308C95.1063 87.1542 95.2138 87.5171 95.2336 87.89C95.2336 88.572 94.754 88.8492 94.16 88.506C93.847 88.3034 93.5866 88.0294 93.3999 87.7067C93.2133 87.3839 93.1059 87.0215 93.0864 86.6492C93.0908 85.9672 93.5704 85.69 94.16 86.0288Z" fill="#455A64"/>
<path id="Vector_60" d="M143.361 57.1516C143.361 56.4212 142.85 56.1264 142.217 56.4916L137.997 58.9248L106.973 76.8416C106.639 77.0582 106.362 77.3504 106.163 77.6945C105.965 78.0386 105.85 78.4248 105.829 78.8216V144.285C105.829 145.015 106.339 145.31 106.973 144.945L138.01 127.024L142.217 124.595C142.55 124.378 142.827 124.086 143.026 123.742C143.225 123.398 143.34 123.012 143.361 122.615V57.1516Z" fill="white"/>
<path id="Vector_61" d="M143.801 57.1515C143.828 56.9308 143.791 56.7069 143.692 56.5077C143.593 56.3086 143.437 56.143 143.245 56.0317C143.052 55.9204 142.831 55.8683 142.609 55.882C142.387 55.8957 142.174 55.9746 141.997 56.1087L137.971 58.4363L106.753 76.4763C106.351 76.73 106.017 77.0776 105.779 77.4893C105.541 77.9009 105.408 78.3642 105.389 78.8391V144.285C105.371 144.504 105.413 144.725 105.511 144.922C105.609 145.12 105.758 145.287 105.943 145.407C106.101 145.498 106.28 145.545 106.462 145.543C106.72 145.535 106.972 145.461 107.193 145.328L138.433 127.288L142.45 124.969C142.85 124.713 143.182 124.364 143.419 123.953C143.657 123.542 143.792 123.08 143.814 122.606L143.801 57.1515ZM137.98 126.535L137.619 126.746L106.77 144.558C106.719 144.597 106.658 144.625 106.595 144.639C106.531 144.653 106.464 144.652 106.401 144.637C106.344 144.602 106.286 144.478 106.286 144.276V78.8215C106.309 78.502 106.404 78.1919 106.564 77.9145C106.724 77.637 106.945 77.3995 107.21 77.2199L138.028 59.3999L142.428 56.8523C142.48 56.8125 142.54 56.7847 142.604 56.771C142.668 56.7573 142.734 56.758 142.798 56.7731C142.855 56.8083 142.912 56.9315 142.912 57.1339V122.615C142.889 122.934 142.794 123.244 142.634 123.522C142.474 123.799 142.253 124.037 141.988 124.216L137.971 126.535H137.98Z" fill="#064997"/>
<path id="Vector_62" d="M124.595 72.3624C128.555 70.0832 131.745 71.9224 131.745 76.494C131.745 81.0656 128.542 86.614 124.595 88.8756C120.648 91.1372 117.445 89.3156 117.445 84.7484C117.445 80.1812 120.648 74.646 124.595 72.3624Z" fill="#064997"/>
<path id="Vector_63" d="M124.595 75.9527C125.875 75.2135 126.913 75.8119 126.913 77.2727C126.87 78.0775 126.637 78.8606 126.234 79.5586C125.832 80.2566 125.27 80.8497 124.595 81.2899C123.314 82.0291 122.276 81.4307 122.276 79.9699C122.319 79.1652 122.552 78.382 122.955 77.684C123.358 76.9861 123.92 76.3929 124.595 75.9527Z" fill="#064997"/>
<path id="Vector_64" d="M129.114 83.8376C129.114 81.4088 127.411 80.4232 125.303 81.6376L123.983 82.3988C121.88 83.6132 120.173 86.57 120.173 88.9988V89.6544C121.392 90.0548 122.923 89.8392 124.573 88.8756C126.401 87.7481 127.946 86.2175 129.092 84.4008L129.114 83.8376Z" fill="#064997"/>
<path id="Vector_65" opacity="0.7" d="M124.595 75.9527C125.875 75.2135 126.913 75.8119 126.913 77.2727C126.87 78.0775 126.637 78.8606 126.234 79.5586C125.832 80.2566 125.27 80.8497 124.595 81.2899C123.314 82.0291 122.276 81.4307 122.276 79.9699C122.319 79.1652 122.552 78.382 122.955 77.684C123.358 76.9861 123.92 76.3929 124.595 75.9527Z" fill="white"/>
<path id="Vector_66" opacity="0.7" d="M129.114 83.8376C129.114 81.4088 127.411 80.4232 125.303 81.6376L123.983 82.3988C121.88 83.6132 120.173 86.57 120.173 88.9988V89.6544C121.392 90.0548 122.923 89.8392 124.573 88.8756C126.401 87.7481 127.946 86.2175 129.092 84.4008L129.114 83.8376Z" fill="white"/>
<path id="Vector_67" d="M110.761 98.9295L119.962 93.6187C120.402 93.3767 120.723 93.5703 120.723 94.0587V94.3623C120.709 94.6268 120.633 94.8841 120.5 95.1135C120.368 95.3429 120.183 95.5378 119.962 95.6823L110.761 100.993C110.343 101.235 110 101.037 110 100.553V100.25C110.014 99.9852 110.091 99.7279 110.223 99.4986C110.355 99.2692 110.54 99.0743 110.761 98.9295Z" fill="#064997"/>
<path id="Vector_68" opacity="0.1" d="M110.761 98.9295L119.962 93.6187C120.402 93.3767 120.723 93.5703 120.723 94.0587V94.3623C120.709 94.6268 120.633 94.8841 120.5 95.1135C120.368 95.3429 120.183 95.5378 119.962 95.6823L110.761 100.993C110.343 101.235 110 101.037 110 100.553V100.25C110.014 99.9852 110.091 99.7279 110.223 99.4986C110.355 99.2692 110.54 99.0743 110.761 98.9295Z" fill="black"/>
<path id="Vector_69" d="M110.383 105.34L138.217 89.2717C138.424 89.1485 138.596 89.2453 138.596 89.4917V92.7389C138.588 92.8706 138.55 92.9988 138.484 93.1134C138.418 93.2279 138.327 93.3256 138.217 93.3989L110.383 109.468C110.172 109.591 110 109.49 110 109.248V106C110.008 105.868 110.046 105.739 110.113 105.625C110.179 105.51 110.272 105.413 110.383 105.34Z" fill="#064997"/>
<path id="Vector_70" opacity="0.2" d="M110.383 105.34L138.217 89.2717C138.424 89.1485 138.596 89.2453 138.596 89.4917V92.7389C138.588 92.8706 138.55 92.9988 138.484 93.1134C138.418 93.2279 138.327 93.3256 138.217 93.3989L110.383 109.468C110.172 109.591 110 109.49 110 109.248V106C110.008 105.868 110.046 105.739 110.113 105.625C110.179 105.51 110.272 105.413 110.383 105.34Z" fill="white"/>
<path id="Vector_71" d="M110.761 113.375L119.962 108.064C120.402 107.822 120.723 108.02 120.723 108.504V108.808C120.709 109.072 120.633 109.33 120.501 109.559C120.369 109.788 120.184 109.983 119.962 110.128L110.761 115.438C110.343 115.685 110 115.487 110 114.998V114.695C110.015 114.431 110.092 114.174 110.224 113.944C110.356 113.715 110.54 113.52 110.761 113.375Z" fill="#064997"/>
<path id="Vector_72" opacity="0.1" d="M110.761 113.375L119.962 108.064C120.402 107.822 120.723 108.02 120.723 108.504V108.808C120.709 109.072 120.633 109.33 120.501 109.559C120.369 109.788 120.184 109.983 119.962 110.128L110.761 115.438C110.343 115.685 110 115.487 110 114.998V114.695C110.015 114.431 110.092 114.174 110.224 113.944C110.356 113.715 110.54 113.52 110.761 113.375Z" fill="black"/>
<path id="Vector_73" d="M110.383 119.786L138.217 103.717C138.424 103.594 138.596 103.695 138.596 103.937V107.184C138.588 107.316 138.55 107.444 138.484 107.559C138.418 107.673 138.327 107.771 138.217 107.844L110.383 123.913C110.172 124.036 110 123.939 110 123.693V120.446C110.008 120.313 110.046 120.185 110.113 120.07C110.179 119.955 110.272 119.858 110.383 119.786Z" fill="#064997"/>
<path id="Vector_74" opacity="0.2" d="M110.383 119.786L138.217 103.717C138.424 103.594 138.596 103.695 138.596 103.937V107.184C138.588 107.316 138.55 107.444 138.484 107.559C138.418 107.673 138.327 107.771 138.217 107.844L110.383 123.913C110.172 124.036 110 123.939 110 123.693V120.446C110.008 120.313 110.046 120.185 110.113 120.07C110.179 119.955 110.272 119.858 110.383 119.786Z" fill="white"/>
<path id="Vector_75" d="M121.484 121.629L132.484 115.289C132.924 115.042 133.25 115.24 133.25 115.729V119.126C133.235 119.39 133.158 119.648 133.025 119.878C132.892 120.107 132.707 120.302 132.484 120.446L121.484 126.79C121.044 127.032 120.723 126.834 120.723 126.35V122.949C120.738 122.685 120.815 122.428 120.947 122.199C121.079 121.97 121.263 121.775 121.484 121.629Z" fill="#064997"/>
<path id="Vector_76" opacity="0.1" d="M121.484 121.629L132.484 115.289C132.924 115.042 133.25 115.24 133.25 115.729V119.126C133.235 119.39 133.158 119.648 133.025 119.878C132.892 120.107 132.707 120.302 132.484 120.446L121.484 126.79C121.044 127.032 120.723 126.834 120.723 126.35V122.949C120.738 122.685 120.815 122.428 120.947 122.199C121.079 121.97 121.263 121.775 121.484 121.629Z" fill="black"/>
</g>
<g id="freepik--Character--inject-115">
<path id="Vector_77" d="M147.532 107.294C147.532 107.294 142.129 99.8405 141.812 98.9341C141.561 98.2653 141.812 97.2709 141.891 96.8089C141.97 96.3469 142.041 95.3173 142.12 95.0489C142.252 94.5473 141.605 94.6485 141.24 95.1061C140.875 95.5637 140.752 96.4789 140.562 96.6285C140.373 96.7781 138.934 94.6793 138.182 93.7113C137.43 92.7433 136.959 92.1537 136.497 92.5145C136.167 92.7741 136.413 93.3373 136.959 94.1645C137.277 94.6099 137.571 95.0726 137.839 95.5505C137.922 95.7309 137.474 95.7441 137.232 96.1181C137.042 96.4085 137.232 96.8793 136.968 97.1037C136.805 97.2273 136.694 97.4064 136.655 97.6068C136.616 97.8073 136.652 98.015 136.756 98.1905C137.246 98.9596 137.878 99.6286 138.618 100.162C139.427 100.72 139.753 100.918 140.232 101.68C140.712 102.441 145.015 110.216 145.306 110.682C145.596 111.148 146.155 112.099 147.004 112.125C147.853 112.152 154.805 106.168 155.162 105.868C156.306 104.914 156.671 104.777 156.864 105.635C156.931 105.94 156.981 106.249 157.014 106.559C157.15 107.65 157.894 111.549 157.894 111.549C157.894 111.549 161.414 113.252 164.305 112.429C167.196 111.606 168.172 110.378 168.172 110.378L166.725 108.02C167.116 107.048 168.925 103.105 169.51 100.346L160.446 98.8813C160.261 98.8417 159.962 98.7669 159.566 98.6657C159.069 98.5337 157.806 98.0981 156.851 98.9341C153.736 101.649 147.541 107.294 147.541 107.294" fill="#FFA8A7"/>
<path id="Vector_78" d="M165.502 153.028L163.878 155.285C164.616 155.629 165.422 155.802 166.236 155.791C167.693 155.844 168.093 155.351 168.146 155.254C168.392 154.726 168.01 153.776 167.904 152.957L165.502 153.028Z" fill="#37474F"/>
<path id="Vector_79" d="M163.97 154.202C163.97 154.202 161.999 154.075 160.64 153.908C159.28 153.74 158.202 154.4 158.519 154.959C158.836 155.518 159.588 155.984 160.758 156.376C161.757 156.715 162.958 156.957 163.997 157.256C165.035 157.555 165.757 157.947 166.36 157.735C167.033 157.502 167.323 157.234 167.266 156.741C167.119 156.04 166.937 155.347 166.72 154.664L163.97 154.202Z" fill="#37474F"/>
<path id="Vector_80" d="M168.146 150.762C168.146 150.762 167.9 152.812 167.882 153.252C167.864 153.692 165.88 153.833 165.502 153.028L165.44 150.52L168.146 150.762Z" fill="#F28F8F"/>
<path id="Vector_81" d="M166.148 152.02L166.857 155.135C166.857 155.135 166.923 155.514 165.304 155.756C163.684 155.998 161.141 154.906 160.706 154.686C160.27 154.466 160.222 154.022 161.814 154.11C163.407 154.198 163.97 154.202 163.97 154.202L163.451 152.825L166.148 152.02Z" fill="#FFA8A7"/>
<path id="Vector_82" d="M169.484 100.32L170.606 100.008C170.606 100.008 172.951 107.43 173.21 108.148C173.47 108.865 173.765 109.622 173.259 110.506C172.656 111.558 169.484 115.786 169.484 115.786L167.468 113.815L169.756 109.626L167.732 105.534L169.484 100.32Z" fill="#F28F8F"/>
<path id="Vector_83" d="M157.96 90.6795C157.697 90.1857 157.564 89.6333 157.572 89.0739C157.58 88.5145 157.731 87.9663 158.009 87.4807C159.126 85.4083 161.617 84.4007 164.582 84.7835C165.955 84.9639 167.574 86.1035 168.459 87.8063C169.435 89.6939 169.528 93.4955 169.779 94.9343L157.96 90.6795Z" fill="#37474F"/>
<path id="Vector_84" d="M157.881 91.4937C157.881 91.4937 157.177 92.8357 157.3 92.9589C157.482 93.0654 157.682 93.1399 157.889 93.1789L157.881 91.4937Z" fill="#FFA8A7"/>
<path id="Vector_85" d="M160.019 87.2521C159.254 87.7493 157.934 88.6645 157.876 91.6785C157.815 94.7585 158.255 95.7749 158.712 96.1313C159.02 96.3733 160.829 96.2501 161.603 96.0697C162.378 95.8893 164.608 94.7849 165.414 93.1085C166.36 91.1373 166.166 88.2685 164.762 87.3885C164.048 86.9661 163.238 86.7319 162.408 86.7081C161.579 86.6842 160.757 86.8714 160.019 87.2521Z" fill="#FFA8A7"/>
<path id="Vector_86" d="M168.146 110.361C169.501 112.473 170.786 114.321 171.068 116.706C171.648 121.717 169.748 127.446 169.338 131.155C170.108 132.21 170.552 133.468 170.615 134.772C170.615 136.308 168.146 150.762 168.146 150.762C168.146 150.762 166.351 151.307 165.44 150.52L163.746 123.93L164.626 120.692L168.146 110.361Z" fill="#064997"/>
<path id="Vector_87" opacity="0.2" d="M168.146 110.361C169.501 112.473 170.786 114.321 171.068 116.706C171.648 121.717 169.748 127.446 169.338 131.155C170.108 132.21 170.552 133.468 170.615 134.772C170.615 136.308 168.146 150.762 168.146 150.762C168.146 150.762 166.351 151.307 165.44 150.52L163.746 123.93L164.626 120.692L168.146 110.361Z" fill="black"/>
<path id="Vector_88" d="M163.746 123.93L164.626 120.692C166.311 120.249 167.936 119.603 169.466 118.769C169.466 118.769 168.551 120.437 165.92 121.352L164.56 125.51L164.446 135.036L163.746 123.93Z" fill="#064997"/>
<path id="Vector_89" opacity="0.3" d="M163.746 123.93L164.626 120.692C166.311 120.249 167.936 119.603 169.466 118.769C169.466 118.769 168.551 120.437 165.92 121.352L164.56 125.51L164.446 135.036L163.746 123.93Z" fill="black"/>
<path id="Vector_90" d="M168.146 110.361C168.872 111.549 170.606 113.573 170.236 115.522C169.796 117.88 168.52 119.539 164.639 120.692L160.996 133.892C160.996 133.892 162.892 135.652 163.473 137.355C164.054 139.058 166.148 152.029 166.148 152.029C166.148 152.029 165.497 153.089 163.451 152.834C163.451 152.834 156.319 136.554 155.817 135.494C155.208 134.42 154.995 133.166 155.214 131.952C155.439 130.244 157.854 111.558 157.854 111.558L168.146 110.361Z" fill="#064997"/>
<path id="Vector_91" opacity="0.2" d="M168.146 110.361C168.872 111.549 170.606 113.573 170.236 115.522C169.796 117.88 168.52 119.539 164.639 120.692L160.996 133.892C160.996 133.892 162.892 135.652 163.473 137.355C164.054 139.058 166.148 152.029 166.148 152.029C166.148 152.029 165.497 153.089 163.451 152.834C163.451 152.834 156.319 136.554 155.817 135.494C155.208 134.42 154.995 133.166 155.214 131.952C155.439 130.244 157.854 111.558 157.854 111.558L168.146 110.361Z" fill="black"/>
<path id="Vector_92" d="M169.484 100.32L160.419 98.8548C160.235 98.8152 159.935 98.7404 159.539 98.6392C159.539 98.6392 159.152 104.324 156.825 105.626C156.882 105.899 156.93 106.203 156.974 106.55C157.111 107.642 157.854 111.54 157.854 111.54C157.854 111.54 161.374 113.243 164.265 112.42C167.156 111.597 168.133 110.37 168.133 110.37L166.685 108.011C167.09 107.03 168.912 103.088 169.484 100.32Z" fill="#064997"/>
<path id="Vector_93" opacity="0.7" d="M169.484 100.32L160.419 98.8548C160.235 98.8152 159.935 98.7404 159.539 98.6392C159.539 98.6392 159.152 104.324 156.825 105.626C156.882 105.899 156.93 106.203 156.974 106.55C157.111 107.642 157.854 111.54 157.854 111.54C157.854 111.54 161.374 113.243 164.265 112.42C167.156 111.597 168.133 110.37 168.133 110.37L166.685 108.011C167.09 107.03 168.912 103.088 169.484 100.32Z" fill="white"/>
<path id="Vector_94" d="M167.094 107.074C165.891 107.797 164.629 108.419 163.324 108.935C164.509 108.912 165.669 108.591 166.698 108.002L167.094 107.074Z" fill="#064997"/>
<path id="Vector_95" d="M159.795 87.4016C159.795 87.4016 159.355 90.2616 160.393 91.9424C160.393 91.9424 160.78 90.8028 161.744 91.0184C162.707 91.234 162.76 92.5056 162.083 93.2184C161.91 93.4183 161.685 93.5656 161.433 93.6435C161.181 93.7213 160.912 93.7264 160.657 93.6584C160.657 93.6584 160.503 95.7264 160.419 97.46C160.336 99.1936 159.878 102.973 161.827 104.5C163.777 106.027 168.669 106.564 170.962 103.36C172.238 101.578 170.544 98.4279 169.756 94.8948C169.03 91.6476 168.621 86.8339 165.176 86.0595C161.731 85.2851 159.795 87.4016 159.795 87.4016Z" fill="#37474F"/>
</g>
<g id="freepik--Cloud--inject-115">
<path id="Vector_96" d="M172.436 48.3252L171.71 48.7652C171.771 48.5068 171.805 48.2429 171.811 47.9776C171.811 46.5036 170.777 45.9096 169.501 46.6576C169.113 46.8918 168.766 47.1892 168.476 47.5376C168.476 45.5576 167.086 44.7523 165.37 45.7423C164.465 46.3321 163.713 47.1266 163.173 48.0616C162.633 48.9966 162.322 50.0456 162.263 51.1236C162.263 51.2248 162.263 51.3216 162.263 51.4184C161.821 51.3627 161.374 51.4656 161 51.7087C160.328 52.1469 159.768 52.7374 159.367 53.4323C158.966 54.1272 158.734 54.907 158.69 55.7084C158.69 55.8946 158.709 56.0804 158.748 56.2628L158.36 56.4872C157.309 57.0944 156.455 58.278 156.455 59.1272C156.455 59.9764 157.309 60.1788 158.36 59.5672L172.44 51.4492C173.492 50.842 174.346 49.6584 174.346 48.8092C174.346 47.96 173.488 47.7136 172.436 48.3252Z" fill="#EBEBEB"/>
</g>
</g>
</svg>
