<svg width="23" height="26" viewBox="0 0 23 26" fill="none" xmlns="http://www.w3.org/2000/svg">
<g opacity="0.5">
<path d="M4.28742 17.7053C4.18164 17.5995 3.99629 17.5995 3.86393 17.7053C3.2023 18.3405 1.11163 20.4576 1.11163 22.231C1.11163 24.3483 2.64662 25.1687 4.07571 25.1687C5.50479 25.1687 7.03978 24.3483 7.03978 22.231C7.03978 20.4312 4.97548 18.3404 4.28748 17.7053H4.28742ZM4.15506 24.2423C3.12291 24.2423 2.06439 23.4749 2.06439 22.0456C2.06439 21.8339 2.22315 21.6751 2.43489 21.6751C2.64663 21.6751 2.8054 21.8339 2.8054 22.0456C2.8054 23.0514 3.49345 23.5013 4.15509 23.5013C4.36683 23.5013 4.52559 23.66 4.52559 23.8718C4.52559 24.0835 4.34025 24.2423 4.15509 24.2423L4.15506 24.2423Z" fill="#010F1E"/>
<path d="M22.3104 6.16648H18.6317C18.0495 5.29313 17.1497 4.63149 16.1175 4.34032V2.54077H17.6525C18.3406 2.54077 18.9228 1.95853 18.9228 1.27048C18.9228 0.582424 18.3406 0.000184608 17.6525 0.000184608L12.0419 0C11.3538 0 10.7716 0.582239 10.7716 1.27029C10.7716 1.95835 11.3538 2.54059 12.0419 2.54059H13.5769V4.34014C12.5447 4.63127 11.6449 5.29289 11.0627 6.1663H10.3217C5.90193 6.1663 2.2497 9.44806 1.641 13.6825H0.714613C0.317708 13.6825 0 14 0 14.3971V15.535C0 15.9319 0.317528 16.2496 0.714613 16.2496H7.46329C7.8602 16.2496 8.17791 15.9321 8.17791 15.535V14.3971C8.17791 14.0002 7.86038 13.6825 7.46329 13.6825H6.85464C7.35753 12.2798 8.6808 11.3007 10.2422 11.2741H11.0362C11.8566 12.4916 13.2593 13.2854 14.8207 13.2854C16.3821 13.2854 17.7848 12.4914 18.6051 11.2741H22.2838C22.6807 11.2741 22.9984 10.9565 22.9984 10.5595V6.88077C23.025 6.48405 22.7073 6.16654 22.3104 6.16654V6.16648Z" fill="#010F1E"/>
</g>
</svg>
