<svg width="14" height="25" viewBox="0 0 14 25" fill="none" xmlns="http://www.w3.org/2000/svg">
<g opacity="0.5">
<path fill-rule="evenodd" clip-rule="evenodd" d="M2.64951 0C1.92879 0 1.20715 0.597821 1.27452 1.35769L1.90754 8.52971C1.97279 9.26803 2.50506 9.92109 3.28253 9.92109H10.0343C10.812 9.92109 11.3443 9.26804 11.4095 8.52971L12.0426 1.35769C12.1096 0.597822 11.388 0 10.6673 0L2.64951 0Z" fill="#010F1E"/>
<path fill-rule="evenodd" clip-rule="evenodd" d="M0.517456 1.88232V4.51031H1.2403V1.88232H0.517456Z" fill="#010F1E"/>
<path fill-rule="evenodd" clip-rule="evenodd" d="M6.66312 10.9897C5.11395 10.9897 3.34871 11.167 1.87873 11.6807C1.2976 11.884 0 12.4269 0 13.1929C0 13.9585 1.2976 14.5017 1.87873 14.7047C3.34871 15.2185 5.11394 15.3957 6.66312 15.3957C8.21229 15.3957 9.97753 15.2185 11.4475 14.7047C12.0286 14.5017 13.3262 13.9585 13.3262 13.1929C13.3262 12.4269 12.0286 11.884 11.4475 11.6807C9.97753 11.167 8.2123 10.9897 6.66312 10.9897ZM6.66312 11.641C7.52586 11.641 10.7453 11.8756 10.7453 13.1929C10.7453 14.5102 7.52586 14.7448 6.66312 14.7448C5.80007 14.7448 2.58095 14.5102 2.58095 13.1929C2.58095 11.8756 5.80008 11.641 6.66312 11.641Z" fill="#010F1E"/>
<path fill-rule="evenodd" clip-rule="evenodd" d="M13.3058 14.1133C12.8205 14.6158 12.01 14.9475 11.4677 15.1287C9.97799 15.6269 8.23127 15.8036 6.66692 15.8036C5.10257 15.8036 3.35584 15.6269 1.86584 15.1287C1.32386 14.9475 0.513314 14.6158 0.0280762 14.1133C0.340035 17.3142 3.58405 19.3055 6.66692 19.3055C9.74979 19.3055 12.9938 17.3142 13.3058 14.1133Z" fill="#010F1E"/>
<path fill-rule="evenodd" clip-rule="evenodd" d="M4.16195 19.2705L2.93323 23.2908C2.63888 24.2546 3.86365 25.0005 4.70758 25.0005H8.62528C9.4692 25.0005 10.6937 24.2546 10.3993 23.2908L9.18425 19.3145C8.39525 19.5661 7.56922 19.6905 6.74047 19.6905C5.86438 19.6905 4.99132 19.5518 4.16195 19.2705Z" fill="#010F1E"/>
</g>
</svg>
