<svg width="18" height="19" viewBox="0 0 18 19" fill="none" xmlns="http://www.w3.org/2000/svg">
<g opacity="0.5">
<path d="M4.23478 6.69055H13.7861C13.8606 6.69055 13.9321 6.66095 13.9848 6.60827C14.0375 6.55559 14.067 6.48414 14.067 6.40963V3.31949C14.067 3.02147 13.9487 2.73565 13.7379 2.52492C13.5272 2.31419 13.2414 2.1958 12.9434 2.1958H5.07755C4.77953 2.1958 4.49371 2.31419 4.28298 2.52492C4.07225 2.73565 3.95386 3.02147 3.95386 3.31949V6.40963C3.95386 6.48414 3.98346 6.55559 4.03614 6.60827C4.08882 6.66095 4.16027 6.69055 4.23478 6.69055ZM6.20123 3.88133H7.30596C7.45115 3.87919 7.59176 3.9321 7.69952 4.02944C7.80728 4.12677 7.87418 4.26129 7.88677 4.40595C7.89187 4.48281 7.88111 4.55989 7.85517 4.63241C7.82923 4.70493 7.78866 4.77135 7.73597 4.82753C7.68328 4.88371 7.6196 4.92845 7.54889 4.95899C7.47818 4.98952 7.40194 5.00519 7.32492 5.00502H6.2202C6.07501 5.00716 5.93439 4.95425 5.82663 4.85692C5.71888 4.75958 5.65198 4.62506 5.63939 4.4804C5.63429 4.40355 5.64504 4.32646 5.67098 4.25394C5.69692 4.18142 5.7375 4.11501 5.79019 4.05883C5.84288 4.00265 5.90656 3.9579 5.97727 3.92737C6.04798 3.89683 6.12421 3.88116 6.20123 3.88133ZM15.7526 8.3803C15.7531 8.30616 15.739 8.23265 15.711 8.16399C15.683 8.09534 15.6417 8.03291 15.5895 7.98029C15.5373 7.92767 15.4752 7.88591 15.4067 7.85741C15.3383 7.82891 15.2649 7.81424 15.1907 7.81424H2.83017C2.75603 7.81424 2.68263 7.82891 2.61418 7.85741C2.54574 7.88591 2.48362 7.92767 2.43139 7.98029C2.37916 8.03291 2.33786 8.09534 2.30988 8.16399C2.28189 8.23265 2.26777 8.30616 2.26833 8.3803C2.27009 9.61273 2.60929 10.8211 3.24911 11.8745C3.88893 12.9278 4.80496 13.7858 5.89784 14.3555L5.65414 16.06C5.61736 16.3003 5.65742 16.5461 5.76861 16.7623C5.86357 16.944 6.00642 17.0963 6.18172 17.2026C6.35701 17.309 6.55805 17.3653 6.76308 17.3656H11.2339C11.478 17.3689 11.7169 17.2952 11.9166 17.1549C12.0825 17.0349 12.2124 16.8718 12.2924 16.6833C12.3724 16.4948 12.3993 16.288 12.3703 16.0853L12.1231 14.3576C13.2163 13.7878 14.1325 12.9294 14.7723 11.8757C15.4122 10.8219 15.7512 9.61308 15.7526 8.3803ZM6.76308 16.2419L6.96885 14.8022C8.29731 15.2235 9.7236 15.2235 11.0521 14.8022L11.2578 16.2419H6.76308Z" fill="#010F1E"/>
</g>
</svg>
