<svg width="32" height="32" viewBox="0 0 32 32" fill="none" xmlns="http://www.w3.org/2000/svg">
<g id="vuesax/bulk/empty-wallet">
<g id="empty-wallet">
<path id="Vector" opacity="0.4" d="M24.0534 18.0663C23.4934 18.613 23.1734 19.3997 23.2534 20.2397C23.3734 21.6797 24.6934 22.733 26.1334 22.733H28.6667V24.3197C28.6667 27.0797 26.4134 29.333 23.6534 29.333H8.34671C5.58671 29.333 3.33337 27.0797 3.33337 24.3197V15.3464C3.33337 12.5864 5.58671 10.333 8.34671 10.333H23.6534C26.4134 10.333 28.6667 12.5864 28.6667 15.3464V17.2664H25.9734C25.2267 17.2664 24.5467 17.5597 24.0534 18.0663Z" fill="#064997"/>
<path id="Vector_2" d="M19.8 5.26683V10.3335H8.34671C5.58671 10.3335 3.33337 12.5868 3.33337 15.3468V10.4535C3.33337 8.86685 4.30671 7.45346 5.78671 6.89346L16.3734 2.89346C18.0267 2.28013 19.8 3.4935 19.8 5.26683Z" fill="#064997"/>
<path id="Vector_3" d="M30.08 18.6265V21.3733C30.08 22.1066 29.4934 22.7066 28.7467 22.7332H26.1334C24.6934 22.7332 23.3734 21.6799 23.2534 20.2399C23.1734 19.3999 23.4934 18.6132 24.0534 18.0666C24.5467 17.5599 25.2267 17.2666 25.9734 17.2666H28.7467C29.4934 17.2933 30.08 17.8932 30.08 18.6265Z" fill="#064997"/>
<g id="Group">
<path id="Vector_4" d="M18.6667 17H9.33337C8.78671 17 8.33337 16.5467 8.33337 16C8.33337 15.4533 8.78671 15 9.33337 15H18.6667C19.2134 15 19.6667 15.4533 19.6667 16C19.6667 16.5467 19.2134 17 18.6667 17Z" fill="#064997"/>
</g>
</g>
</g>
</svg>
