<svg width="15" height="27" viewBox="0 0 15 27" fill="none" xmlns="http://www.w3.org/2000/svg">
<g opacity="0.5">
<path d="M15 0.262695H0V1.27959H15V0.262695Z" fill="#010F1E"/>
<path d="M0 1.53369V14.8812H7.37274V1.53369H0ZM6.03822 13.5299H1.33481V3.32975C1.33481 3.32975 3.63932 2.107 6.03822 3.32975V13.5299Z" fill="#010F1E"/>
<path d="M0 15.0718V18.0587H15V15.0718H0ZM8.32622 16.8551H6.29939C6.13956 16.8551 6.00984 16.7257 6.00984 16.5656C6.00984 16.4054 6.13956 16.276 6.29939 16.276H8.32622C8.48634 16.276 8.61577 16.4054 8.61577 16.5656C8.61577 16.7257 8.48634 16.8551 8.32622 16.8551Z" fill="#010F1E"/>
<path d="M7.6272 1.53369V14.8812H14.9999V1.53369H7.6272ZM9.48435 8.44779C9.48435 8.60762 9.35493 8.73734 9.19481 8.73734C9.03469 8.73734 8.90526 8.60762 8.90526 8.44779V6.77739C8.90526 6.61756 9.03469 6.48785 9.19481 6.48785C9.35493 6.48785 9.48435 6.61756 9.48435 6.77739V8.44779Z" fill="#010F1E"/>
<path d="M0 18.3135V26.3218H7.37274V18.3135H0ZM5.81672 23.137C5.81672 23.2972 5.687 23.4266 5.52717 23.4266C5.36734 23.4266 5.23762 23.2972 5.23762 23.137V21.2066C5.23762 21.0465 5.36734 20.9171 5.52717 20.9171C5.687 20.9171 5.81672 21.0465 5.81672 21.2066V23.137Z" fill="#010F1E"/>
<path d="M7.6272 18.3135V26.3218H14.9999V18.3135H7.6272ZM9.87061 23.137C9.87061 23.2972 9.74118 23.4266 9.58106 23.4266C9.42094 23.4266 9.29152 23.2972 9.29152 23.137V21.2066C9.29152 21.0465 9.42094 20.9171 9.58106 20.9171C9.74118 20.9171 9.87061 21.0465 9.87061 21.2066V23.137Z" fill="#010F1E"/>
</g>
</svg>
