<svg width="31" height="34" viewBox="0 0 31 34" fill="none" xmlns="http://www.w3.org/2000/svg">
<g id="Group">
<path id="Vector" d="M5.77871 23.8638C5.63614 23.7212 5.38632 23.7212 5.20792 23.8638C4.31616 24.7199 1.49829 27.5734 1.49829 29.9636C1.49829 32.8173 3.5672 33.9231 5.49335 33.9231C7.41951 33.9231 9.48842 32.8173 9.48842 29.9636C9.48842 27.5379 6.7061 24.7197 5.77878 23.8638H5.77871ZM5.60031 32.6744C4.20915 32.6744 2.78245 31.6401 2.78245 29.7138C2.78245 29.4284 2.99643 29.2144 3.28182 29.2144C3.56722 29.2144 3.7812 29.4284 3.7812 29.7138C3.7812 31.0693 4.70858 31.6757 5.60035 31.6757C5.88575 31.6757 6.09973 31.8897 6.09973 32.1751C6.09973 32.4605 5.84991 32.6745 5.60035 32.6745L5.60031 32.6744Z" fill="#064997"/>
<path id="Vector_2" d="M30.0705 8.31135H25.1123C24.3275 7.13421 23.1148 6.24244 21.7236 5.85V3.42452H23.7925C24.7199 3.42452 25.5047 2.63976 25.5047 1.71238C25.5047 0.785006 24.7199 0.00024882 23.7925 0.00024882L16.2303 0C15.303 0 14.5182 0.784757 14.5182 1.71213C14.5182 2.63951 15.303 3.42427 16.2303 3.42427H18.2992V5.84975C16.9081 6.24214 15.6953 7.1339 14.9106 8.3111H13.9118C7.95477 8.3111 3.03221 12.7343 2.21178 18.4416H0.963174C0.428215 18.4416 0 18.8696 0 19.4048V20.9385C0 21.4734 0.427973 21.9017 0.963174 21.9017H10.0592C10.5942 21.9017 11.0224 21.4737 11.0224 20.9385V19.4048C11.0224 18.8698 10.5944 18.4416 10.0592 18.4416H9.23886C9.91667 16.551 11.7002 15.2314 13.8047 15.1955H14.8749C15.9806 16.8365 17.8712 17.9064 19.9757 17.9064C22.0802 17.9064 23.9708 16.8362 25.0765 15.1955H30.0347C30.5697 15.1955 30.9979 14.7675 30.9979 14.2323V9.27408C31.0337 8.73937 30.6055 8.31142 30.0705 8.31142V8.31135Z" fill="#064997"/>
</g>
</svg>
