<svg width="25" height="25" viewBox="0 0 25 25" fill="none" xmlns="http://www.w3.org/2000/svg">
<g opacity="0.5">
<path d="M12.4954 0C9.04843 0 5.93642 0.505146 3.72086 1.31433C2.61297 1.71892 1.73173 2.20598 1.14771 2.71196C0.563718 3.2179 0.296173 3.72064 0.296173 4.22066V5.02592C0.29679 5.03825 0.29679 5.05061 0.296173 5.06294C0.296173 5.56299 0.563718 6.06569 1.14771 6.57164C1.73179 7.07759 2.61303 7.55542 3.72086 7.96001C5.93642 8.76917 9.04843 9.2836 12.4954 9.2836C15.9422 9.2836 19.0543 8.76917 21.2699 7.96001C22.3777 7.55542 23.259 7.07759 23.843 6.57164C24.4271 6.06569 24.7038 5.56299 24.7038 5.06294C24.7037 5.05677 24.7037 5.0506 24.7038 5.04443V5.0074V4.22066C24.7038 3.72064 24.427 3.2179 23.843 2.71196C23.2591 2.20598 22.3777 1.71892 21.2699 1.31433C19.0543 0.505146 15.9422 0 12.4954 0ZM12.4954 0.99963C15.299 0.99963 17.8275 1.33654 19.6872 1.88819C20.617 2.164 21.3881 2.48626 21.9456 2.87856C22.5031 3.27089 22.8804 3.76206 22.8804 4.34098V4.42429C22.8804 5.00321 22.5031 5.49441 21.9456 5.88671C21.3881 6.27901 20.617 6.61053 19.6872 6.88634C17.8275 7.43799 15.299 7.76564 12.4954 7.76564C9.69169 7.76564 7.16326 7.43799 5.30359 6.88634C4.37377 6.61053 3.61195 6.27901 3.05444 5.88671C2.49684 5.49441 2.11032 5.00321 2.11032 4.42429V4.34098C2.11032 3.76206 2.4969 3.27089 3.05444 2.87856C3.61192 2.48626 4.37377 2.164 5.30359 1.88819C7.16326 1.33654 9.69169 0.99963 12.4954 0.99963ZM12.4954 1.7401C9.7506 1.7401 7.27726 2.06931 5.51646 2.59163C4.63608 2.85278 3.93355 3.17043 3.48018 3.48945C3.02684 3.80844 2.85078 4.09699 2.85078 4.34098V4.42429C2.85078 4.66829 3.02684 4.96609 3.48018 5.28508C3.93355 5.6041 4.63608 5.91249 5.51646 6.17364C7.27732 6.69596 9.75063 7.02518 12.4954 7.02518C15.24 7.02518 17.7227 6.69596 19.4835 6.17364C20.3639 5.91249 21.0664 5.6041 21.5198 5.28508C21.9732 4.96609 22.1399 4.66829 22.1399 4.42429V4.34098C22.1399 4.09699 21.9732 3.80844 21.5198 3.48945C21.0664 3.17043 20.3639 2.85278 19.4835 2.59163C17.7227 2.06931 15.2401 1.7401 12.4954 1.7401ZM0.296173 6.76601V10.2647C0.29679 10.2771 0.29679 10.2894 0.296173 10.3017C0.296173 10.8018 0.563718 11.3045 1.14771 11.8105C1.18583 11.8435 1.22747 11.8794 1.26805 11.9123V7.58978C1.04938 7.44424 0.848294 7.28453 0.666406 7.12699C0.531138 7.00976 0.409968 6.89115 0.296173 6.76601ZM24.7038 6.76601C24.59 6.89115 24.4689 7.00976 24.3336 7.12699C24.1499 7.28607 23.9439 7.44293 23.7227 7.58978V11.9123C23.7633 11.8794 23.805 11.8435 23.843 11.8105C24.4271 11.3045 24.7038 10.8018 24.7038 10.3017C24.7024 10.2833 24.7024 10.2647 24.7038 10.2462V6.76601ZM2.00852 8.02481V12.4213C2.49089 12.7055 3.06504 12.9686 3.72086 13.2081C5.85613 13.9879 8.82724 14.4781 12.1252 14.5132V10.0148C8.75464 9.97953 5.7184 9.47502 3.47094 8.6542C2.93748 8.45937 2.448 8.25453 2.00852 8.02481ZM22.9822 8.02481C22.5446 8.25308 22.0595 8.46044 21.5291 8.6542C19.2816 9.47502 16.2366 9.97953 12.8656 10.0148V14.5132C16.1635 14.4781 19.1346 13.9879 21.2699 13.2081C21.9256 12.9686 22.4999 12.7055 22.9822 12.4213V8.02481ZM0.296173 12.0141V15.5035C0.29679 15.5159 0.29679 15.5282 0.296173 15.5405C0.296173 16.0406 0.563718 16.5526 1.14771 17.0585C1.73179 17.5645 2.61303 18.0423 3.72086 18.4469C4.30752 18.6611 4.96256 18.8611 5.66456 19.03V14.5409C4.8746 14.3577 4.13523 14.1449 3.47094 13.9023C2.30589 13.4768 1.35166 12.9687 0.666406 12.375C0.531138 12.2578 0.409968 12.1398 0.296173 12.0141ZM24.7038 12.0141C24.59 12.1398 24.4689 12.2578 24.3336 12.375C23.6484 12.9687 22.6941 13.4768 21.5291 13.9023C20.8623 14.1458 20.1206 14.3572 19.3262 14.5409V19.03C20.0282 18.8611 20.6831 18.6611 21.2699 18.4469C22.3777 18.0423 23.259 17.5645 23.843 17.0585C24.4271 16.5526 24.7038 16.0406 24.7038 15.5405C24.7024 15.5221 24.7024 15.5035 24.7038 15.485V12.0141ZM6.40502 14.7075V19.1873C8.19784 19.5558 10.2742 19.7705 12.4954 19.7705C14.7164 19.7705 16.7929 19.5558 18.5857 19.1873V14.7075C16.7725 15.0657 14.6987 15.2629 12.4954 15.2629C10.2883 15.2629 8.21774 15.0668 6.40502 14.7075ZM0.296173 17.2529V20.7886C0.296173 21.2886 0.563718 21.7913 1.14771 22.2973C1.18583 22.3303 1.22747 22.3664 1.26805 22.3991V18.0766C1.04938 17.9311 0.848294 17.7714 0.666406 17.6138C0.531138 17.4966 0.409968 17.3786 0.296173 17.2529ZM24.7038 17.2529C24.59 17.3786 24.4689 17.4966 24.3336 17.6138C24.1499 17.7729 23.9439 17.9298 23.7227 18.0766V22.3991C23.7633 22.3664 23.805 22.3303 23.843 22.2973C24.4271 21.7913 24.7038 21.2886 24.7038 20.7886V17.2529ZM2.00852 18.5117V22.8989C2.49109 23.1806 3.06457 23.446 3.72086 23.6857C5.85613 24.4655 8.82724 24.9643 12.1252 25V20.5017C8.75464 20.4664 5.7184 19.9619 3.47094 19.1411C2.93748 18.9462 2.448 18.7414 2.00852 18.5117ZM22.9822 18.5117C22.5446 18.74 22.0595 18.9473 21.5291 19.1411C19.2816 19.9619 16.2366 20.4664 12.8656 20.5017V25C16.1635 24.9643 19.1346 24.4655 21.2699 23.6857C21.9261 23.446 22.4997 23.1806 22.9822 22.8989V18.5117Z" fill="#010F1E"/>
</g>
</svg>
